<svg width="180" height="175" viewBox="0 0 180 175" fill="none" xmlns="http://www.w3.org/2000/svg">
<g clip-path="url(#clip0)">
<g opacity="0.5">
<path opacity="0.5" d="M110.118 0.00237014L15.2798 43.2628L75.0523 174.3L169.891 131.04L110.118 0.00237014Z" fill="url(#paint0_linear)"/>
</g>
<path d="M109.351 1.5181L16.9254 43.6779L75.377 171.819L167.803 129.66L109.351 1.5181Z" fill="white"/>
<path d="M84.642 8.69976L38.791 29.6146L43.8572 40.7212L89.7083 19.8063L84.642 8.69976Z" fill="url(#paint1_linear)"/>
<path d="M56.7641 8.30231C53.2251 9.91723 51.6956 14.164 53.3492 17.7884C55.0027 21.4128 59.2129 23.042 62.7519 21.4271C66.2909 19.8121 67.8203 15.5654 66.1668 11.941C64.5132 8.31655 60.3031 6.6874 56.7641 8.30231ZM61.4848 18.6508C60.7401 19.0121 59.9047 19.1432 59.0851 19.0274C58.2656 18.9116 57.4991 18.5542 56.8837 18.0008C56.2682 17.4474 55.8317 16.7231 55.6298 15.9205C55.4279 15.1178 55.4699 14.2731 55.7503 13.4944C56.0307 12.7157 56.5369 12.0382 57.2041 11.5485C57.8714 11.0588 58.6694 10.7791 59.4964 10.7451C60.3234 10.7111 61.1417 10.9243 61.8469 11.3576C62.5521 11.7909 63.1122 12.4245 63.4556 13.1776C63.6857 13.6665 63.8173 14.1959 63.8428 14.7357C63.8683 15.2755 63.7872 15.815 63.6042 16.3234C63.4212 16.8318 63.1398 17.2992 62.7762 17.6989C62.4125 18.0986 61.9737 18.4227 61.4848 18.6528V18.6508Z" fill="url(#paint2_linear)"/>
<path d="M84.1613 8.92822L39.2762 29.4025L44.1196 40.0205L89.0047 19.5462L84.1613 8.92822Z" fill="#6C63FF"/>
<path d="M56.9837 8.78637C55.7425 9.35232 54.697 10.2736 53.9795 11.4338C53.2619 12.594 52.9045 13.9409 52.9524 15.3042C53.0004 16.6674 53.4515 17.9859 54.2488 19.0928C55.0461 20.1997 56.1538 21.0453 57.4317 21.5226C58.7095 22 60.1003 22.0877 61.428 21.7746C62.7557 21.4615 63.9608 20.7617 64.8908 19.7638C65.8208 18.7658 66.434 17.5144 66.6528 16.168C66.8716 14.8215 66.6862 13.4404 66.12 12.1993C65.3609 10.5352 63.972 9.24088 62.2586 8.60086C60.5453 7.96084 58.6479 8.02757 56.9837 8.78637ZM61.497 18.6813C60.7811 19.0076 59.9845 19.1144 59.208 18.9881C58.4314 18.8618 57.7098 18.5081 57.1342 17.9717C56.5587 17.4352 56.1551 16.7402 55.9746 15.9745C55.794 15.2087 55.8445 14.4066 56.1198 13.6696C56.395 12.9325 56.8826 12.2937 57.521 11.8337C58.1593 11.3738 58.9196 11.1134 59.7059 11.0856C60.4921 11.0578 61.269 11.2637 61.9382 11.6773C62.6075 12.0909 63.1391 12.6937 63.4658 13.4094C63.9034 14.3693 63.9418 15.4638 63.5726 16.452C63.2034 17.4403 62.4568 18.2414 61.497 18.6793V18.6813Z" fill="#6C63FF"/>
<path d="M50.5258 53.4236L30.7368 62.4503L39.7635 82.2393L59.5525 73.2126L50.5258 53.4236Z" fill="url(#paint3_linear)"/>
<path d="M68.4812 92.6086L48.6922 101.635L57.7189 121.424L77.5079 112.398L68.4812 92.6086Z" fill="url(#paint4_linear)"/>
<path d="M50.1305 54.4781L31.7904 62.8439L40.1562 81.1839L58.4962 72.8181L50.1305 54.4781Z" fill="#69F0AE"/>
<path d="M67.8532 93.3294L49.5132 101.695L57.8789 120.035L76.219 111.669L67.8532 93.3294Z" fill="#6C63FF"/>
<path d="M89.9177 43.1693L64.779 54.6362L65.5792 56.3905L90.7179 44.9235L89.9177 43.1693Z" fill="#E0E0E0"/>
<path d="M107.489 38.3336L65.9807 57.2673L66.7809 59.0216L108.289 40.0878L107.489 38.3336Z" fill="#E0E0E0"/>
<path d="M105.763 42.2981L67.1789 59.8982L67.9791 61.6524L106.563 44.0523L105.763 42.2981Z" fill="#E0E0E0"/>
<path d="M107.641 82.0224L82.5026 93.4894L83.3028 95.2436L108.441 83.7767L107.641 82.0224Z" fill="#E0E0E0"/>
<path d="M125.211 77.1849L83.7034 96.1187L84.5036 97.8729L126.012 78.9391L125.211 77.1849Z" fill="#E0E0E0"/>
<path d="M123.487 81.1512L84.9025 98.7513L85.7027 100.506L124.287 82.9055L123.487 81.1512Z" fill="#E0E0E0"/>
<path d="M40.4827 68.636L45.2054 70.1696L46.7593 61.0801L49.0576 61.7086L46.4725 72.9458L39.3498 69.8238L40.4827 68.636Z" fill="url(#paint5_linear)"/>
<path d="M41.0847 68.5159L45.1912 69.8481L46.5417 61.9443L48.539 62.4915L46.2915 72.2623L40.0983 69.5491L41.0847 68.5159Z" fill="white"/>
<path d="M58.918 107.609L63.0244 108.942L64.3749 101.038L66.3722 101.585L64.1247 111.356L57.9315 108.643L58.918 107.609Z" fill="white"/>
<path d="M137.757 108.526L79.1159 135.275L88.0321 154.822L146.674 128.073L137.757 108.526Z" fill="#E0E0E0"/>
<path d="M129.256 124.104C127.003 123.462 124.696 123.584 123.978 126.161C123.736 127.029 123.708 128.378 122.776 128.825C121.405 129.484 119.752 128.166 118.562 127.629C116.345 126.628 114.069 127.31 112.786 129.413C112.135 130.479 111.856 131.705 111.635 132.919C111.539 133.446 111.527 134.097 111.305 134.593C110.88 135.543 109.55 135.458 108.677 135.421C108.486 135.421 108.291 135.399 108.096 135.378C108.785 134.428 109.13 133.27 109.072 132.098C109.015 130.172 107.764 128.064 105.578 128.3C103.619 128.504 102.24 130.395 102.46 132.309C102.647 133.936 103.706 135.197 105.065 135.97C104.398 136.265 103.686 136.495 103.056 136.8C102.761 136.943 102.475 137.102 102.199 137.278C100.294 136.359 97.7898 136.186 96.0753 137.123C95.2454 137.577 95.8515 138.925 96.6854 138.468C97.9912 137.754 99.4312 137.933 100.796 138.386L100.91 138.427C100.775 138.6 100.656 138.784 100.554 138.978C99.7831 140.475 100.554 142.843 102.429 143.005C105.073 143.231 105.197 139.737 103.761 138.346C103.7 138.287 103.639 138.23 103.574 138.175C104.168 137.888 104.811 137.673 105.378 137.43C105.873 137.221 106.343 136.959 106.782 136.649L106.883 136.676C108.903 137.134 112.056 137.276 112.782 134.829C113.404 132.706 113.463 128.197 116.819 128.614C118.188 128.782 119.311 129.834 120.612 130.214C121.778 130.562 123.126 130.576 124.082 129.718C124.871 129.01 125.048 127.965 125.29 126.988C125.414 126.484 125.536 125.882 125.947 125.522C126.689 124.873 127.916 125.256 128.744 125.491C129.649 125.748 130.174 124.365 129.256 124.104ZM103.019 141.309C102.574 141.75 102.102 141.401 101.864 140.939C101.575 140.378 101.699 139.824 102.067 139.33C102.127 139.249 102.192 139.172 102.26 139.098C103.141 139.668 103.861 140.483 103.027 141.309H103.019ZM104.581 130.326C105.496 129.476 106.772 129.663 107.317 130.83C107.862 131.998 107.622 133.645 106.857 134.675C106.756 134.81 106.643 134.936 106.521 135.053C105.988 134.875 105.496 134.593 105.071 134.225C103.989 133.249 103.377 131.445 104.589 130.32L104.581 130.326Z" fill="#6C63FF"/>
<path d="M141.454 45.0935L125.036 51.4942C121.948 51.2644 115.452 50.4264 109.005 47.3857C101.827 44.0013 93.6041 44.0095 86.6319 47.5545C70.5641 47.9389 61.7207 45.8806 57.002 43.9322L58.2468 41.3776L41.6054 34.8895L0 16.2427V92.6684L14.5607 99.1566L22.3708 80.4203L39.5227 88.3525L42.8156 79.985L54.0773 88.3423L54.8441 88.9871L53.7885 90.0834C52.8206 91.1055 52.2812 92.4597 52.2812 93.8674C52.2812 95.2751 52.8206 96.6293 53.7885 97.6515C54.2568 98.1466 54.8213 98.541 55.4472 98.8105C56.0732 99.08 56.7476 99.219 57.4291 99.219C58.1107 99.219 58.7851 99.08 59.4111 98.8105C60.037 98.541 60.6015 98.1466 61.0698 97.6515L60.4922 98.2617C59.5243 99.2838 58.985 100.638 58.985 102.046C58.985 103.453 59.5243 104.808 60.4922 105.83C60.9606 106.325 61.525 106.719 62.151 106.989C62.777 107.258 63.4513 107.397 64.1329 107.397C64.8144 107.397 65.4888 107.258 66.1148 106.989C66.7408 106.719 67.3052 106.325 67.7736 105.83L71.1091 102.362L68.819 104.742C67.8511 105.764 67.3117 107.118 67.3117 108.526C67.3117 109.933 67.8511 111.288 68.819 112.31C69.2873 112.805 69.8518 113.199 70.4777 113.469C71.1037 113.738 71.7781 113.877 72.4597 113.877C73.1412 113.877 73.8156 113.738 74.4416 113.469C75.0675 113.199 75.632 112.805 76.1003 112.31L79.3932 108.887L78.0081 110.327C77.3315 111.041 76.9544 111.987 76.9544 112.971C76.9544 113.955 77.3315 114.901 78.0081 115.615C78.3352 115.961 78.7294 116.236 79.1665 116.424C79.6037 116.612 80.0746 116.709 80.5505 116.709C81.0264 116.709 81.4973 116.612 81.9344 116.424C82.3716 116.236 82.7657 115.961 83.0929 115.615L85.2895 113.333C89.0624 116.089 92.1152 118.1 93.6102 118.621C99.84 120.781 99.84 116.455 99.84 116.455C108.161 120.779 112.322 112.131 112.322 112.131C122.723 116.455 122.723 105.643 122.723 105.643C125.323 107.445 127.198 106.619 128.508 105.033C130.292 102.881 130.509 99.844 129.285 97.4074L139.226 88.2203L143.526 97.0108L160.678 89.0786L168.488 106.393L179.99 101.258V25.6312L141.454 45.0935Z" fill="url(#paint6_linear)"/>
<path d="M138.692 85.1146L120.586 101.207L106.505 75.0549L138.692 67.0088V85.1146Z" fill="#BE7C5E"/>
<path d="M52.1898 42.8685C52.1898 42.8685 58.0007 50.9146 92.4224 48.9031L112.54 79.078L126.02 94.2448C128.138 96.6285 128.258 100.243 126.179 102.659C124.916 104.125 123.1 104.896 120.586 103.218C120.586 103.218 120.586 113.276 110.528 109.253C110.528 109.253 106.505 117.299 98.459 113.276C98.459 113.276 98.459 117.299 92.4244 115.288C86.3898 113.276 54.2014 87.1262 54.2014 87.1262L40.1207 77.0685L52.1898 42.8685Z" fill="#FDA57D"/>
<path d="M124.609 52.9282C124.609 52.9282 115.916 52.9282 107.321 49.0251C99.5044 45.48 90.4027 45.9316 83.1905 50.5851C77.3126 54.3784 72.2197 60.659 72.3153 71.0319C72.3153 71.0319 80.1376 79.078 88.4075 62.9858H94.442C94.442 62.9858 100.253 83.1031 116.571 81.0875C132.889 79.0719 136.688 77.0645 136.688 77.0645L124.609 52.9282Z" fill="#BE7C5E"/>
<path d="M71.7964 92.6494L71.1435 91.9965C69.3794 90.2323 66.5192 90.2323 64.7551 91.9964L60.0796 96.672C58.3155 98.4361 58.3155 101.296 60.0796 103.06L60.7325 103.713C62.4966 105.477 65.3568 105.477 67.1209 103.713L71.7964 99.0378C73.5606 97.2737 73.5605 94.4135 71.7964 92.6494Z" fill="#BE7C5E"/>
<path d="M65.3128 85.0501L64.6599 84.3972C62.8958 82.6331 60.0356 82.6331 58.2715 84.3972L53.5959 89.0727C51.8318 90.8369 51.8318 93.697 53.5959 95.4612L54.2489 96.1141C56.013 97.8782 58.8732 97.8782 60.6373 96.1141L65.3128 91.4386C67.0769 89.6744 67.0769 86.8143 65.3128 85.0501Z" fill="#BE7C5E"/>
<path d="M80.8476 97.6769L80.1946 97.0239C78.4305 95.2598 75.5703 95.2598 73.8062 97.0239L68.1254 102.705C66.3613 104.469 66.3613 107.329 68.1254 109.093L68.7783 109.746C70.5424 111.51 73.4026 111.51 75.1667 109.746L80.8476 104.065C82.6117 102.301 82.6117 99.441 80.8476 97.6769Z" fill="#BE7C5E"/>
<path d="M85.6114 104.676L85.1555 104.22C83.9235 102.988 81.9262 102.988 80.6942 104.22L77.1088 107.805C75.8769 109.037 75.8769 111.035 77.1088 112.267L77.5647 112.723C78.7967 113.954 80.794 113.954 82.026 112.723L85.6114 109.137C86.8433 107.905 86.8433 105.908 85.6114 104.676Z" fill="#BE7C5E"/>
<path d="M158.807 89.1376L140.703 97.1837L122.597 52.9281L138.692 46.8936L158.807 89.1376Z" fill="white"/>
<path d="M22.0169 79.08L40.1207 87.1261L58.2264 42.8705L42.1322 36.8339L22.0169 79.08Z" fill="white"/>
<path d="M1.89967 18.7302L42.1322 36.834L15.9824 97.1838L1.89967 91.1492V18.7302Z" fill="#333333"/>
<path d="M178.924 28.7877L138.692 46.8935L164.843 107.241L178.924 101.207V28.7877Z" fill="#4D8AF0"/>
</g>
<defs>
<linearGradient id="paint0_linear" x1="122.473" y1="152.67" x2="62.7" y2="21.6322" gradientUnits="userSpaceOnUse">
<stop stop-color="#808080" stop-opacity="0.25"/>
<stop offset="0.54" stop-color="#808080" stop-opacity="0.12"/>
<stop offset="1" stop-color="#808080" stop-opacity="0.1"/>
</linearGradient>
<linearGradient id="paint1_linear" x1="28932.3" y1="-11099.2" x2="28628.2" y2="-11765.8" gradientUnits="userSpaceOnUse">
<stop stop-color="#808080" stop-opacity="0.25"/>
<stop offset="0.54" stop-color="#808080" stop-opacity="0.12"/>
<stop offset="1" stop-color="#808080" stop-opacity="0.1"/>
</linearGradient>
<linearGradient id="paint2_linear" x1="8550.06" y1="-2205.16" x2="8126.93" y2="-3132.77" gradientUnits="userSpaceOnUse">
<stop stop-color="#808080" stop-opacity="0.25"/>
<stop offset="0.54" stop-color="#808080" stop-opacity="0.12"/>
<stop offset="1" stop-color="#808080" stop-opacity="0.1"/>
</linearGradient>
<linearGradient id="paint3_linear" x1="11718.7" y1="2634.49" x2="10753.4" y2="518.457" gradientUnits="userSpaceOnUse">
<stop stop-color="#808080" stop-opacity="0.25"/>
<stop offset="0.54" stop-color="#808080" stop-opacity="0.12"/>
<stop offset="1" stop-color="#808080" stop-opacity="0.1"/>
</linearGradient>
<linearGradient id="paint4_linear" x1="13671.3" y1="6853.11" x2="12706" y2="4736.88" gradientUnits="userSpaceOnUse">
<stop stop-color="#808080" stop-opacity="0.25"/>
<stop offset="0.54" stop-color="#808080" stop-opacity="0.12"/>
<stop offset="1" stop-color="#808080" stop-opacity="0.1"/>
</linearGradient>
<linearGradient id="paint5_linear" x1="5378.39" y1="1579.09" x2="5119.91" y2="1012.42" gradientUnits="userSpaceOnUse">
<stop stop-color="#808080" stop-opacity="0.25"/>
<stop offset="0.54" stop-color="#808080" stop-opacity="0.12"/>
<stop offset="1" stop-color="#808080" stop-opacity="0.1"/>
</linearGradient>
<linearGradient id="paint6_linear" x1="107925" y1="62536.9" x2="107925" y2="10394.8" gradientUnits="userSpaceOnUse">
<stop stop-color="#808080" stop-opacity="0.25"/>
<stop offset="0.54" stop-color="#808080" stop-opacity="0.12"/>
<stop offset="1" stop-color="#808080" stop-opacity="0.1"/>
</linearGradient>
<clipPath id="clip0">
<rect width="180" height="174.297" fill="white"/>
</clipPath>
</defs>
</svg>
