<svg width="226" height="208" viewBox="0 0 226 208" fill="none" xmlns="http://www.w3.org/2000/svg">
<g clip-path="url(#clip0)">
<path opacity="0.1" d="M126.605 32.4305C114.217 32.0011 102.42 28.0038 91.1601 23.634C79.9006 19.2643 68.7291 14.4158 56.6391 12.0873C48.8619 10.5971 39.9697 10.385 33.7035 14.553C27.6753 18.5657 25.7246 25.4917 24.6793 31.9183C23.9032 36.7537 23.4271 41.8428 25.5875 46.3678C27.0854 49.5112 29.7477 52.1528 31.5872 55.1643C37.9931 65.6373 33.4655 78.5526 26.524 88.7798C23.2693 93.5765 19.492 98.1533 16.9798 103.268C14.4677 108.383 13.3034 114.225 15.5025 119.436C17.681 124.61 22.8735 128.475 28.4981 131.205C39.9232 136.744 53.3844 138.33 66.5118 139.225C95.5713 141.212 124.783 140.353 153.921 139.484C164.701 139.163 175.531 138.84 186.139 137.173C192.03 136.247 198.113 134.778 202.389 131.223C207.822 126.719 209.162 119.094 205.525 113.446C199.422 103.974 182.553 101.62 178.287 91.455C175.94 85.8589 178.351 79.6263 181.761 74.439C189.081 63.314 201.347 53.5395 201.993 40.8053C202.438 32.0683 196.539 23.3158 187.422 19.1789C177.865 14.8453 164.611 15.3912 157.561 22.5655C150.301 29.9701 137.541 32.8109 126.605 32.4305Z" fill="#6C63FF"/>
<path opacity="0.1" d="M102.001 207.349C145.434 207.349 180.644 202.586 180.644 196.71C180.644 190.835 145.434 186.072 102.001 186.072C58.5671 186.072 23.3573 190.835 23.3573 196.71C23.3573 202.586 58.5671 207.349 102.001 207.349Z" fill="#6C63FF"/>
<path d="M121.41 54.2278C121.41 54.2278 118.975 49.4234 119.304 47.9952C119.632 46.5671 117.591 43.5168 117.591 43.5168L117.723 38.4562C117.723 38.4562 117.441 38.9736 115.971 39.4264C115.847 39.2634 115.713 39.103 115.573 38.9504C115.041 38.3962 114.449 37.9025 113.809 37.4782L111.221 31.8951L108.719 28.0634C108.719 28.0634 104.774 20.0431 100.699 18.2734L100.058 17.0186C100.079 17.0062 100.094 16.9862 100.102 16.9628C100.109 16.9393 100.107 16.914 100.096 16.8919L99.4443 15.6164C99.4327 15.5943 99.4133 15.5773 99.3899 15.5687C99.3665 15.5601 99.3407 15.5605 99.3176 15.5698L98.6941 14.3486C98.4559 12.7661 97.8342 11.2659 96.883 9.97885C96.8183 9.8883 96.7485 9.80551 96.6812 9.72013L97.6954 9.68391C98.5854 9.65028 99.5789 9.57266 100.177 8.90775C100.391 8.65992 100.549 8.36866 100.64 8.05397C100.717 7.80736 100.767 7.55324 100.79 7.29592C100.79 7.25712 100.79 7.21831 100.79 7.18209C100.79 7.09412 100.79 7.00788 100.79 6.92337C100.79 6.85351 100.79 6.78624 100.79 6.71639C100.79 6.64653 100.79 6.60514 100.79 6.55081C100.79 6.49648 100.761 6.37229 100.746 6.29209C100.746 6.25845 100.746 6.22482 100.725 6.19119C100.703 6.08984 100.677 5.98967 100.645 5.89107C100.637 5.87174 100.631 5.85184 100.627 5.83157C100.59 5.72808 100.552 5.62459 100.508 5.52369C100.501 5.51039 100.495 5.49655 100.49 5.48229C100.443 5.38139 100.391 5.28308 100.337 5.18735L100.321 5.15631C100.302 5.11615 100.281 5.07726 100.257 5.03988C99.5556 3.93773 98.3241 3.29352 97.1521 2.7114C96.0584 2.13639 94.9358 1.61826 93.7887 1.15908C89.5236 -0.440442 84.8123 -0.373929 80.594 1.34535C80.1774 1.50311 79.7826 1.71352 79.4194 1.97146C78.9131 2.40002 78.4805 2.90868 78.1387 3.47721L76.1336 6.43956C75.8535 6.79992 75.6341 7.20368 75.4843 7.63485C75.1091 9.04229 76.2863 10.4523 76.1543 11.9037C76.0871 12.6256 75.699 13.2879 75.624 14.0097C75.5282 14.9411 75.9603 15.8389 76.382 16.6797L79.2512 22.3716C79.0986 23.1193 78.9304 23.8851 78.7467 24.625C77.4247 25.9911 76.9797 26.7362 76.8581 27.1398L76.8193 27.1605C76.5574 27.3296 76.3322 27.5495 76.1569 27.8073L73.43 30.4566C73.43 30.4566 68.6903 31.6881 67.7045 33.2482C67.7045 33.2482 60.2663 32.9222 60.331 43.3098C60.331 43.3098 60.0024 47.2061 59.8136 47.7262C59.6247 48.2462 59.8136 53.5034 59.8136 53.5034L59.7256 64.1523C59.7256 64.1523 59.441 69.8002 59.7256 71.813C60.0102 73.8259 60.3388 81.4866 60.3388 81.4866C60.3388 81.4866 62.1162 88.9532 61.459 91.6155C60.8277 94.1639 61.459 99.7367 62.4939 99.76C62.6905 100.166 62.9156 100.365 63.1614 100.252C63.2684 100.205 63.3781 100.165 63.49 100.133V106.494C63.49 106.494 62.2093 115.407 63.6452 117.102C62.6931 118.458 61.5755 120.771 61.2909 121.379L51.2266 120.838L49.946 121.198L48.7714 121.526L48.0599 137.895L48.3445 137.916L48.3238 138.415L48.9965 138.465L48.0599 154.95L61.992 156.096C61.3788 157.47 60.6673 158.942 60.3905 159.085C59.8731 159.343 58.745 158.567 58.4812 158.888C58.2173 159.209 57.4282 159.602 56.5071 159.405C55.5861 159.209 54.9936 160.249 54.9936 160.249C54.9936 160.249 55.1281 160.368 55.3299 160.588C53.8345 160.407 51.9433 161.209 50.9162 161.726C50.4557 161.959 50.1685 162.132 50.1685 162.132H47.4519L48.9447 171.656L49.9977 172.375L50.2564 179.878C50.2564 179.878 54.4684 192.863 56.3985 192.778C56.5238 192.773 56.6467 192.742 56.7587 192.686C56.8708 192.629 56.9694 192.55 57.0478 192.452C58.0827 191.256 57.3661 187.151 57.3661 187.151V180.315C57.3661 180.315 58.9443 179.622 58.7683 179.102C58.5924 178.582 61.3141 172.892 61.5573 172.375C61.5643 172.371 61.5699 172.365 61.5736 172.357C61.5772 172.35 61.5788 172.342 61.578 172.334C61.578 171.749 62.763 171.1 62.6957 170.841C62.6284 170.582 65.5934 168.957 65.8004 167.529C66.0073 166.101 67.971 166.88 67.971 166.88L70.4703 164.008C70.5453 167.509 70.6876 169.959 70.9334 170.58C72.1183 173.568 72.5788 178.243 72.5788 178.243C72.5788 178.243 71.8544 181.813 72.5788 182.983C73.0238 183.697 74.0587 184.462 74.7779 185.096C74.0302 187.363 74.1363 192.18 74.1363 192.18V194.948L79.6652 196.501C79.6652 196.501 79.8385 195.117 80.1024 195.117C80.3663 195.117 83.8771 197.799 83.8771 197.799C83.8771 197.799 97.3927 197.973 100.813 197.799C102.107 197.735 102.458 197.179 102.259 196.506C101.931 195.386 100.086 193.934 98.4457 193.823C95.8119 193.65 92.477 190.881 92.477 190.881C92.477 190.881 92.7357 190.273 91.3361 189.409C90.3684 188.814 87.6907 186.405 86.0349 184.995C86.1125 184.889 86.1927 184.783 86.2677 184.669C86.2677 184.669 84.0298 181.565 84.4929 180.188C84.956 178.812 84.2937 176.825 84.2937 176.825C84.2937 176.825 83.0441 172.993 83.0441 171.045C83.0441 169.811 82.8578 162.792 82.7233 157.814L83.8771 157.91L83.9004 157.413L84.4179 157.46L89.3103 157.91L89.1602 152.681C91.5172 151.646 93.4783 150.687 94.2906 150.073C97.0538 148.004 99.4237 147.866 99.4237 147.866C99.4237 147.866 105.017 144.881 105.874 143.647C106.73 142.413 106.65 133.453 106.65 133.453L106.189 114.251V114.235C106.189 114.235 105.796 104.953 105.004 102.94C104.714 102.195 103.998 99.7108 103.214 96.8753C103.664 96.8289 104.119 96.848 104.564 96.9322C104.593 97.6256 104.611 98.1016 104.611 98.2646C104.611 99.3667 106.189 100.303 106.189 100.303L105.072 75.4662V58.5691C108.518 59.6661 116.851 60.0076 116.851 60.0076C122.856 59.692 121.41 54.2278 121.41 54.2278ZM88.9041 32.8885H88.886C89.0083 32.2374 89.1681 31.5938 89.3646 30.9611L88.9041 32.8885ZM66.2867 118.077C68.3281 118.414 70.685 118.315 70.8635 117.92C70.8816 117.881 70.9049 117.811 70.936 117.72C71.0006 117.834 71.0627 117.951 71.1274 118.07L70.9282 121.816V121.901L64.2015 121.539C64.6723 119.534 65.5623 118.556 66.2867 118.077ZM88.71 136.98L88.5367 130.913C88.8368 129.795 89.1059 128.781 89.3361 127.911C89.4396 128.633 89.5276 129.298 89.5949 129.911C90.2313 135.668 89.2922 136.791 88.71 136.98ZM107.855 46.0186C107.47 46.1661 106.003 45.2424 104.611 44.2852C104.611 44.1092 104.624 43.9359 104.632 43.7677C104.828 39.8067 98.3784 37.3411 96.4044 36.8858C95.9253 36.7621 95.4606 36.5887 95.0176 36.3683C93.9659 35.8474 92.9433 35.2696 91.9544 34.6375L91.9803 34.5625C91.9803 34.5625 89.4345 32.9506 89.3801 30.9404C89.9603 29.1119 90.6924 27.3352 91.5689 25.6288C91.618 25.5279 91.6724 25.4219 91.7241 25.321C92.9273 24.9468 94.0503 24.3519 95.0358 23.5668C95.4316 28.7413 102.919 33.1938 102.919 33.1938L103.718 34.4874L103.907 34.7927C103.504 35.0307 103.31 35.2222 103.447 35.3335C104.016 35.7888 105.392 38.3657 105.962 39.4549C106.117 39.7498 106.22 39.9335 106.22 39.9335C106.22 39.9335 107.444 43.2632 108.145 46.0496C108.052 46.0107 107.949 46 107.85 46.0186H107.855Z" fill="url(#paint0_linear)"/>
<path d="M110.748 32.5987L110.66 32.7151L110.36 33.1162L104.603 37.1833L103.382 35.1756L102.606 33.882C102.606 33.882 91.1316 27 96.0654 20.3664C100.999 13.7328 108.29 28.7748 108.29 28.7748L110.748 32.5987Z" fill="#FFC5D3"/>
<path d="M99.1703 16.393C99.1459 16.3445 99.0868 16.325 99.0383 16.3495C98.9898 16.3739 98.9703 16.433 98.9947 16.4815L99.6348 17.7524C99.6592 17.8009 99.7183 17.8204 99.7668 17.796C99.8153 17.7715 99.8348 17.7124 99.8104 17.6639L99.1703 16.393Z" fill="#3A3768"/>
<path d="M92.6011 18.1701L92.5988 18.1712C92.572 18.1847 92.5612 18.2174 92.5747 18.2442L92.7656 18.6232C92.7791 18.65 92.8117 18.6608 92.8385 18.6473L92.8408 18.6461C92.8676 18.6326 92.8784 18.5999 92.8649 18.5731L92.6741 18.1942C92.6606 18.1674 92.6279 18.1566 92.6011 18.1701Z" fill="#3A3768"/>
<path d="M93.1236 19.0673C93.1082 19.0367 93.0708 19.0244 93.0402 19.0398C93.0096 19.0552 92.9972 19.0926 93.0127 19.1232L93.3746 19.8418C93.39 19.8725 93.4273 19.8848 93.458 19.8694C93.4886 19.8539 93.5009 19.8166 93.4855 19.786L93.1236 19.0673Z" fill="#3A3768"/>
<path d="M93.6816 20.1859C93.6668 20.1565 93.631 20.1447 93.6017 20.1595C93.5723 20.1743 93.5605 20.2101 93.5753 20.2394L93.943 20.9696C93.9578 20.999 93.9936 21.0108 94.0229 20.996C94.0523 20.9812 94.0641 20.9454 94.0493 20.9161L93.6816 20.1859Z" fill="#3A3768"/>
<path d="M97.1626 13.8978L92.3285 16.3322C92.0427 16.4762 91.9276 16.8246 92.0716 17.1105L97.5572 28.0033C97.7012 28.2891 98.0496 28.4041 98.3355 28.2602L103.17 25.8257C103.455 25.6818 103.57 25.3333 103.426 25.0475L97.9408 14.1547C97.7969 13.8689 97.4484 13.7538 97.1626 13.8978Z" fill="#3A3768"/>
<path d="M96.5441 14.5892C96.5164 14.6029 96.4917 14.6221 96.4714 14.6454C96.4512 14.6688 96.4358 14.696 96.4262 14.7253C96.4165 14.7547 96.4128 14.7857 96.4153 14.8166C96.4178 14.8474 96.4264 14.8774 96.4406 14.9049L96.4613 14.9488C96.4756 14.9765 96.4842 15.0067 96.4867 15.0377C96.4892 15.0687 96.4856 15.1 96.4759 15.1295C96.4663 15.1591 96.4509 15.1865 96.4306 15.2101C96.4104 15.2337 96.3856 15.2531 96.3578 15.2671L93.8689 16.5193C93.8415 16.5335 93.8114 16.5421 93.7806 16.5446C93.7498 16.547 93.7188 16.5434 93.6894 16.5337C93.66 16.5241 93.6329 16.5087 93.6095 16.4884C93.5861 16.4682 93.567 16.4435 93.5533 16.4158L93.53 16.3718C93.5162 16.3441 93.4972 16.3194 93.4739 16.2991C93.4505 16.2788 93.4235 16.2632 93.3942 16.2534C93.3648 16.2435 93.3339 16.2396 93.303 16.2417C93.2722 16.2438 93.2421 16.252 93.2144 16.2657L92.7306 16.5115C92.6775 16.5376 92.6302 16.574 92.5914 16.6186C92.5526 16.6632 92.5231 16.715 92.5045 16.7712C92.486 16.8273 92.4788 16.8865 92.4834 16.9454C92.488 17.0044 92.5043 17.0618 92.5313 17.1143L97.8196 27.6106C97.8739 27.7169 97.9679 27.7975 98.0813 27.8348C98.1947 27.8721 98.3182 27.8631 98.425 27.8098L102.766 25.6237C102.873 25.5694 102.953 25.4753 102.99 25.3619C103.028 25.2486 103.019 25.125 102.966 25.0182L97.6747 14.5168C97.6481 14.4639 97.6113 14.4168 97.5664 14.3782C97.5216 14.3395 97.4696 14.3101 97.4133 14.2916C97.3571 14.2731 97.2978 14.2659 97.2387 14.2703C97.1797 14.2748 97.1221 14.2908 97.0693 14.3176L96.5441 14.5892Z" fill="#6C63FF"/>
<path d="M95.0977 15.3842L94.4438 15.7135C94.3979 15.7366 94.3794 15.7926 94.4025 15.8386C94.4256 15.8845 94.4816 15.903 94.5276 15.8798L95.1815 15.5505C95.2274 15.5274 95.2459 15.4714 95.2228 15.4254C95.1997 15.3795 95.1437 15.361 95.0977 15.3842Z" fill="#E6E8EC"/>
<path d="M95.4368 15.4145C95.4953 15.4145 95.5428 15.3671 95.5428 15.3085C95.5428 15.2499 95.4953 15.2024 95.4368 15.2024C95.3782 15.2024 95.3307 15.2499 95.3307 15.3085C95.3307 15.3671 95.3782 15.4145 95.4368 15.4145Z" fill="#E6E8EC"/>
<path d="M100.27 54.8488L98.6526 98.2413C98.6526 98.2413 104.086 96.4303 104.927 97.7886C105.767 99.1469 104.021 76.0561 104.021 76.0561L100.27 54.8488Z" fill="#5F5570"/>
<path opacity="0.15" d="M100.27 54.8488L98.6526 98.2413C98.6526 98.2413 104.086 96.4303 104.927 97.7886C105.767 99.1469 104.021 76.0561 104.021 76.0561L100.27 54.8488Z" fill="black"/>
<path d="M100.528 197.877C97.165 198.05 83.8849 197.877 83.8849 197.877C83.8849 197.877 80.4336 195.204 80.1748 195.204C79.9161 195.204 79.7454 196.583 79.7454 196.583L74.3122 195.031V192.273C74.3122 192.273 74.1389 184.421 75.7766 184.08C77.4143 183.738 84.661 184.08 84.661 184.08C84.9198 183.994 89.8355 188.651 91.2144 189.513C92.5934 190.374 92.3347 190.98 92.3347 190.98C92.3347 190.98 95.6127 193.738 98.1999 193.911C99.8117 194.02 101.625 195.463 101.949 196.583C102.145 197.259 101.796 197.812 100.528 197.877Z" fill="#BC8487"/>
<path opacity="0.1" d="M100.528 197.877C97.165 198.05 83.8849 197.877 83.8849 197.877C83.8849 197.877 80.4336 195.204 80.1749 195.204C79.9161 195.204 79.7454 196.583 79.7454 196.583L74.3123 195.031V192.328L79.3987 194.17L83.4528 196.583H101.949C102.145 197.259 101.796 197.812 100.528 197.877Z" fill="black"/>
<g opacity="0.1">
<path d="M85.4269 193.826C85.4269 193.826 89.5664 189.859 92.3347 190.98L85.4269 193.826Z" fill="black"/>
<path d="M85.4269 193.826C85.4269 193.826 89.5664 189.859 92.3347 190.98" stroke="black" stroke-width="0.25872" stroke-miterlimit="10"/>
</g>
<path d="M59.2185 179.249C59.3918 179.767 57.8395 180.457 57.8395 180.457V187.269C57.8395 187.269 58.5432 191.36 57.5264 192.553C57.4501 192.649 57.3537 192.728 57.2438 192.784C57.1339 192.84 57.0132 192.871 56.89 192.876C54.9936 192.961 50.854 180.025 50.854 180.025L50.5953 172.551L49.5604 171.834L48.0935 162.347H50.7687C50.7687 162.347 51.0507 162.174 51.5034 161.941C52.797 161.281 55.5058 160.13 56.978 161.227L61.979 172.494C61.979 172.494 59.0477 178.732 59.2185 179.249Z" fill="#BC8487"/>
<path opacity="0.1" d="M57.5264 192.553C57.4501 192.649 57.3537 192.728 57.2438 192.784C57.1339 192.84 57.0132 192.871 56.89 192.876C54.9936 192.961 50.854 180.025 50.854 180.025L50.5953 172.551L49.5604 171.834L48.0935 162.347H50.7687C50.7687 162.347 51.0507 162.174 51.5034 161.941L52.1476 171.661L52.4918 180.025C52.4918 180.025 55.7413 189.132 57.5264 192.553Z" fill="black"/>
<path d="M105.509 143.913C104.668 145.142 99.1701 148.117 99.1701 148.117C99.1701 148.117 96.8416 148.247 94.1251 150.317C92.7202 151.388 87.8382 153.512 83.4528 155.315C79.3573 156.999 75.6912 158.402 75.6912 158.402L71.4689 163.317L68.253 167.061C68.253 167.061 66.3126 166.285 66.1186 167.708C65.9245 169.131 63.0139 170.748 63.0786 171.006C63.1433 171.265 61.9791 171.912 61.9791 172.494C61.9791 173.076 57.6455 168.29 57.7102 165.379C57.7749 162.469 55.511 160.464 55.511 160.464C55.511 160.464 56.0932 159.429 56.9987 159.623C57.9042 159.817 58.6804 159.429 58.9391 159.105C59.1978 158.782 60.2974 159.558 60.8148 159.299C61.3323 159.041 63.402 153.931 63.402 153.931L71.4663 148.521L87.507 137.769L88.2469 137.272C88.2469 137.272 90.3814 138.25 89.5147 130.237C89.3465 128.685 89.0645 126.799 88.635 124.501C85.9831 110.336 95.4911 108.719 95.4911 108.719L103.835 111.501L105.84 114.605V114.621L106.293 133.751C106.293 133.751 106.35 142.684 105.509 143.913Z" fill="#433A59"/>
<path opacity="0.1" d="M83.3882 152.968C83.3882 152.968 83.414 153.887 83.4529 155.315C79.3573 156.999 75.6912 158.402 75.6912 158.402L71.4689 163.317C71.3991 159.242 71.4146 153.949 71.4689 148.524L87.5096 137.771C85.5252 145.127 83.3882 152.968 83.3882 152.968Z" fill="black"/>
<path opacity="0.1" d="M105.832 114.613V114.629L93.2842 114.872C93.2842 114.872 91.085 123.474 90.7616 125.285C90.6814 125.73 90.195 127.632 89.5069 130.245C89.3387 128.693 89.0567 126.807 88.6272 124.509C85.9753 110.344 95.4833 108.727 95.4833 108.727L103.827 111.509L105.832 114.613Z" fill="black"/>
<path d="M72.7806 91.1343L71.1636 122.181C71.1636 122.181 69.9994 167.78 71.1636 170.755C72.3279 173.731 72.7806 178.388 72.7806 178.388C72.7806 178.388 72.0691 181.945 72.7806 183.109C73.4921 184.274 75.7559 185.567 75.6912 186.214C75.6265 186.861 82.612 190.354 86.2341 184.791C86.2341 184.791 84.035 181.686 84.4877 180.328C84.9405 178.97 84.2937 176.965 84.2937 176.965C84.2937 176.965 83.0648 173.149 83.0648 171.2C83.0648 169.252 82.612 152.961 82.612 152.961C82.612 152.961 89.6621 127.089 89.9855 125.278C90.3089 123.467 92.5081 114.864 92.5081 114.864L105.832 114.605C105.832 114.605 105.444 105.356 104.668 103.351C103.892 101.346 100.076 86.6636 100.076 86.6636L72.7806 91.1343Z" fill="#433A59"/>
<path d="M50.5436 121.57L49.3871 121.901L49.3406 123.045L84.0143 123.492V123.042L50.5436 121.57Z" fill="#7B728F"/>
<path d="M91.4421 26.3558C86.3971 36.5882 89.5302 38.7278 90.0295 38.9917C88.961 38.495 75.0729 31.9701 76.8995 30.3143C78.087 29.2354 79.1038 24.5422 79.7014 21.1788C80.0558 19.1712 80.2628 17.637 80.2628 17.637L94.8365 20.3095C93.4239 22.5863 92.3011 24.5914 91.4421 26.3558Z" fill="#FFC5D3"/>
<path opacity="0.1" d="M110.67 32.7152L110.37 33.1162L104.603 37.1833L103.382 35.1756C105.159 34.1408 110.489 32.3297 110.489 32.3297L110.67 32.7152Z" fill="black"/>
<path d="M115.987 42.0421C115.469 43.8531 106.738 42.0421 106.738 42.0421L105.832 40.6191C105.832 40.6191 105.742 40.438 105.589 40.1431C105.03 39.059 103.677 36.4925 103.118 36.0372C102.407 35.4551 110.75 32.6091 110.75 32.6091L113.307 38.1716C113.937 38.5952 114.518 39.0872 115.04 39.6386C115.687 40.3397 116.222 41.2168 115.987 42.0421Z" fill="#E5E8EF"/>
<path d="M101.499 42.8751C101.499 42.8751 106.673 46.9577 107.449 46.6628C108.225 46.3678 120.773 54.8409 120.773 54.8409C120.773 54.8409 122.196 60.2741 116.31 60.5975C116.31 60.5975 103.827 60.08 103.31 58.269C102.792 56.4579 101.499 42.8751 101.499 42.8751Z" fill="#5F5570"/>
<path opacity="0.1" d="M87.3983 34.6685L81.7711 40.4897L89.6621 90.6815L92.7667 88.8704C92.7667 88.8704 100.787 92.4278 101.434 89.1292C102.081 85.8305 101.902 72.8298 101.902 72.8298L100.852 49.3431C100.852 49.3431 97.165 41.1288 97.165 40.8701C97.165 40.6113 91.8483 36.6012 91.8483 36.6012L89.3387 34.6608L87.3983 34.6685Z" fill="black"/>
<path d="M87.3983 33.8924L81.7711 39.7136L89.6621 89.9054L92.7667 88.0943C92.7667 88.0943 100.787 91.6517 101.434 88.353C102.081 85.0544 101.902 72.0537 101.902 72.0537L100.852 48.567C100.852 48.567 97.165 40.3527 97.165 40.0939C97.165 39.8352 91.8483 35.825 91.8483 35.825L89.3387 33.8846L87.3983 33.8924Z" fill="#E5E8EF"/>
<path opacity="0.1" d="M87.7218 34.7333L86.1694 37.9026L87.7218 39.5403C87.7218 39.5403 93.2842 50.774 92.1847 57.436L93.3489 79.3626L97.1004 83.0493L100.076 79.6135L98.6527 59.6921C98.6527 59.6921 94.8366 43.2633 90.8264 38.1536L89.6622 33.626L87.7218 34.7333Z" fill="black"/>
<path d="M87.7218 34.2157L86.1694 37.385L87.7218 39.0227C87.7218 39.0227 93.2842 50.2564 92.1847 56.9184L93.3489 78.845L97.1004 82.5317L100.076 79.0959L98.6527 59.1745C98.6527 59.1745 94.8366 42.7457 90.8264 37.636L89.6622 33.1084L87.7218 34.2157Z" fill="#BC8487"/>
<path opacity="0.1" d="M94.8365 20.3095C93.4239 22.5863 92.3114 24.5914 91.4421 26.3558C90.5264 26.6258 89.5767 26.7626 88.622 26.762C85.4243 26.762 83.5822 24.55 81.7711 22.2008C81.3572 21.6678 79.9963 21.792 79.7014 21.1659C80.0558 19.1582 80.2628 17.624 80.2628 17.624L94.8365 20.3095Z" fill="black"/>
<path d="M98.5388 16.584C98.5387 18.9458 97.6957 21.23 96.1614 23.0256C94.6272 24.8211 92.5025 26.0102 90.1697 26.3788C87.8369 26.7473 85.4491 26.2712 83.436 25.0361C81.423 23.801 79.9168 21.888 79.1885 19.6413C78.4603 17.3947 78.5578 14.9618 79.4635 12.7806C80.3692 10.5994 82.0236 8.81307 84.129 7.74301C86.2345 6.67295 88.6527 6.38945 90.9485 6.94352C93.2444 7.49759 95.2671 8.85285 96.6528 10.7654C97.8788 12.4578 98.5389 14.4942 98.5388 16.584Z" fill="#FFC5D3"/>
<path opacity="0.1" d="M85.4579 38.6788L77.3082 28.8474C77.3082 28.8474 76.5553 28.5447 79.0986 25.8824C79.0986 25.8824 88.4384 33.1628 89.0179 34.3995C89.5974 35.6362 85.4579 38.6788 85.4579 38.6788Z" fill="black"/>
<path d="M85.1992 38.1613L77.0496 28.3299C77.0496 28.3299 76.2967 28.0272 78.8399 25.365C78.8399 25.365 88.1797 32.6454 88.7592 33.8821C89.3388 35.1187 85.1992 38.1613 85.1992 38.1613Z" fill="#E5E8EF"/>
<path d="M105.832 100.733C105.832 100.733 104.28 99.8014 104.28 98.7018C104.28 97.6022 103.504 82.079 103.504 82.079C103.504 82.079 102.365 72.8143 101.175 65.4511C100.477 61.1123 99.76 57.4307 99.2529 56.7011L99.2322 56.6701C97.8739 54.9237 98.1326 46.386 89.6595 33.9027C89.7734 33.9803 92.6943 36.0294 94.8339 37.0591C95.2694 37.278 95.7264 37.4514 96.1974 37.5765C98.1378 38.0293 104.476 40.4871 104.282 44.4326C104.088 48.3781 104.735 57.4333 104.735 57.4333V75.9913L105.832 100.733Z" fill="#5F5570"/>
<path d="M105.832 40.6191C105.832 40.6191 108.549 48.122 108.161 49.9977C107.773 51.8734 114.435 59.2469 114.435 59.2469L120.773 54.8487C120.773 54.8487 118.38 50.0624 118.703 48.6394C119.027 47.2164 117.022 44.1765 117.022 44.1765L117.151 39.1366C117.151 39.1366 115.987 41.3228 105.832 40.6191Z" fill="#5F5570"/>
<path opacity="0.1" d="M96.6528 10.7654L91.7371 10.9516C91.257 10.9485 90.7786 11.0085 90.3141 11.1302C88.5574 11.6709 87.7476 13.5388 87.6829 15.2179C87.6183 16.897 86.6481 18.7779 84.7672 18.9254C84.58 18.9572 84.3877 18.9145 84.2316 18.8064C84.1123 18.6795 84.0331 18.5202 84.0039 18.3485C83.7341 17.3701 83.3171 16.4384 82.7673 15.5853C81.9911 15.725 81.4167 16.4624 81.2149 17.2334C81.0131 18.0044 81.0675 18.8167 81.0701 19.6162C81.0724 20.6315 80.9745 21.6446 80.7777 22.6406C79.9757 21.5995 79.3886 20.4092 79.0506 19.1392C78.7126 17.8691 78.6304 16.5445 78.8089 15.2424C78.9873 13.9403 79.4228 12.6866 80.0901 11.5543C80.7573 10.422 81.6429 9.43363 82.6955 8.64663C83.7481 7.85963 84.9467 7.28971 86.2215 6.97C87.4963 6.65029 88.8219 6.58718 90.1213 6.78432C91.4207 6.98146 92.668 7.43493 93.7906 8.11837C94.9132 8.8018 95.8887 9.70157 96.6605 10.7654H96.6528Z" fill="black"/>
<path d="M90.0579 10.8714C90.5224 10.7497 91.0008 10.6897 91.4809 10.6929L97.4496 10.4704C98.3241 10.4367 99.2994 10.3591 99.8867 9.70972C100.098 9.46175 100.253 9.17152 100.342 8.85853C100.496 8.35846 100.541 7.83134 100.474 7.31243C100.408 6.79351 100.231 6.29479 99.9566 5.84961C99.2658 4.75005 98.055 4.11101 96.9011 3.52113C95.8272 2.94738 94.7244 2.42925 93.5972 1.96881C89.4104 0.378803 84.7748 0.445423 80.6354 2.15509C80.2264 2.31207 79.8387 2.51981 79.4815 2.77343C78.9825 3.20094 78.5577 3.70796 78.2241 4.27401L76.2604 7.23377C75.9895 7.59517 75.7805 7.99911 75.642 8.42905C75.2721 9.83391 76.4182 11.2388 76.2992 12.685C76.2319 13.4042 75.8516 14.064 75.7818 14.7832C75.6886 15.712 76.1129 16.5943 76.5295 17.4403L79.9808 24.4025C80.5381 22.779 80.8205 21.0739 80.8165 19.3574C80.8165 18.558 80.7492 17.7456 80.9613 16.9746C81.1735 16.2036 81.7375 15.4662 82.5137 15.3265C83.0649 16.1792 83.4828 17.1109 83.7529 18.0897C83.7815 18.2616 83.8608 18.4211 83.9806 18.5476C84.1366 18.656 84.3289 18.6987 84.5162 18.6666C86.4074 18.5191 87.3621 16.6564 87.4319 14.9592C87.5018 13.262 88.3012 11.4121 90.0579 10.8714Z" fill="#8F7080"/>
<path d="M49.3871 121.901L51.8036 121.211L88.2392 123.195L84.229 123.712L49.3871 121.901Z" fill="#7B728F"/>
<path opacity="0.1" d="M49.3871 121.901L51.8036 121.211L88.2392 123.195L84.229 123.712L49.3871 121.901Z" fill="black"/>
<path d="M89.2301 158.122L84.4231 157.675L82.7362 157.519V130.783L83.1812 124.577L83.2795 123.195H88.2392L89.2301 158.122Z" fill="#7B728F"/>
<path opacity="0.1" d="M87.9158 157.173L84.0815 156.748L82.7362 156.601V131.251L83.0907 125.368L83.1683 124.056H87.1241L87.9158 157.173Z" fill="black"/>
<path d="M61.622 121.901C61.622 121.901 64.0152 116.652 65.019 116.489C66.0228 116.326 67.8649 116.489 67.8649 116.489L67.7019 118.01C67.7019 118.01 65.2441 118.204 64.4679 122.31L61.622 121.901Z" fill="#7B728F"/>
<path opacity="0.1" d="M61.622 121.901C61.622 121.901 64.0152 116.652 65.019 116.489C66.0228 116.326 67.8649 116.489 67.8649 116.489L67.7019 118.01C67.7019 118.01 65.2441 118.204 64.4679 122.31L61.622 121.901Z" fill="black"/>
<path d="M70.9049 115.94C70.9049 115.94 77.3393 119.141 76.4984 122.892L73.0057 122.698C73.0057 122.698 71.324 117.105 69.9994 116.812C68.6747 116.52 70.9049 115.94 70.9049 115.94Z" fill="#7B728F"/>
<path d="M94.8365 65.2623V65.4511L94.7072 86.9948C94.7072 86.9948 91.4085 105.105 90.503 105.817C89.5974 106.528 69.7407 104.588 69.7407 104.588L60.7501 43.9825C60.6854 33.6337 67.9943 33.9571 67.9943 33.9571C68.9645 32.4048 73.6215 31.1759 73.6215 31.1759L76.2087 28.6533L76.2915 28.5369C76.4634 28.2806 76.6851 28.0615 76.9434 27.8927C77.4764 27.5848 77.8153 27.991 78.0094 28.392C78.0967 28.5803 78.1643 28.7771 78.2112 28.9793C88.6919 36.6659 94.8365 65.2623 94.8365 65.2623Z" fill="#5F5570"/>
<path opacity="0.1" d="M94.5779 65.5209V65.7098C91.3257 59.7592 78.7959 37.2143 75.3679 36.0915L76.6874 35.186C76.6874 35.186 77.567 34.6685 75.95 34.1511C75.95 34.1511 73.4275 34.4745 73.3628 31.4345L76.0328 28.7956L76.6848 28.1514L77.7507 28.6507C77.838 28.839 77.9057 29.0358 77.9525 29.238C88.4333 36.9246 94.5779 65.5209 94.5779 65.5209Z" fill="black"/>
<path d="M94.8365 65.2621V65.451C91.5844 59.5004 79.0546 36.9556 75.6265 35.8327L76.946 34.9272C76.946 34.9272 77.8257 34.4097 76.2087 33.8923C76.2087 33.8923 73.6861 34.2157 73.6215 31.1757L76.2915 28.5368L76.9434 27.8926L78.0094 28.3919C78.0967 28.5802 78.1643 28.777 78.2112 28.9792C88.6919 36.6658 94.8365 65.2621 94.8365 65.2621Z" fill="#433A59"/>
<path opacity="0.1" d="M99.5143 56.9496L99.4936 56.9185C98.1353 55.1722 98.394 46.6344 89.9209 34.1511C90.0347 34.2287 92.9557 36.2778 95.0953 37.3075L94.4977 39.279L95.7913 39.9697L99.5143 56.9496Z" fill="black"/>
<path d="M99.2555 56.6909L99.2348 56.6598C97.8765 54.9135 98.1352 46.3757 89.6621 33.8925C89.7759 33.9701 92.6969 36.0191 94.8365 37.0488L94.2389 39.0203L95.5325 39.7111L99.2555 56.6909Z" fill="#433A59"/>
<path opacity="0.1" d="M89.2896 31.9003L88.7592 34.1408C88.7592 34.1408 89.1473 36.3839 91.4732 36.5779L91.8483 35.5094C91.8483 35.5094 89.3387 33.9002 89.2896 31.9003Z" fill="black"/>
<path d="M89.2896 31.6415L88.7592 33.882C88.7592 33.882 89.1473 36.1251 91.4732 36.3191L91.8483 35.2506C91.8483 35.2506 89.3387 33.6414 89.2896 31.6415Z" fill="#E5E8EF"/>
<path opacity="0.1" d="M85.9443 123.557L84.4231 157.675L82.7362 157.519V130.783L83.1812 124.576L85.9443 123.557Z" fill="black"/>
<path d="M49.7338 136.734L48.6989 155.188L83.8849 158.122L85.4269 123.557L49.7338 136.734Z" fill="#7B728F"/>
<path opacity="0.1" d="M48.9576 138.718L49.6458 122.419L85.6856 124.075L83.9703 141.305L48.9576 138.718Z" fill="black"/>
<path d="M48.6989 138.201L49.3871 121.901L85.4269 123.557L83.7115 140.788L48.6989 138.201Z" fill="#7B728F"/>
<path d="M68.1883 138.221H63.8547V143.266H68.1883V138.221Z" fill="#C3BBC8"/>
<path d="M64.5016 105.17L63.8548 106.916C63.8548 106.916 62.4965 116.489 64.1782 117.653C65.8599 118.817 70.8402 118.882 71.0989 118.3C71.3577 117.718 73.1687 111.12 73.1687 111.12C73.1687 111.12 74.7857 115.971 75.6266 115.583C76.4674 115.195 73.6861 105.974 73.6861 105.974L64.5016 105.17Z" fill="#FFC5D3"/>
<path opacity="0.1" d="M63.8547 97.9256V107.175C63.8547 107.175 70.7108 108.469 73.6861 106.233C73.6861 106.233 70.9049 97.2788 71.9397 95.015C72.9746 92.7512 63.8547 97.9256 63.8547 97.9256Z" fill="black"/>
<path d="M63.8547 97.6669V106.916C63.8547 106.916 70.7108 108.21 73.6861 105.974C73.6861 105.974 70.9049 97.0201 71.9397 94.7562C72.9746 92.4924 63.8547 97.6669 63.8547 97.6669Z" fill="#E5E8EF"/>
<path opacity="0.1" d="M63.0786 43.5297L61.2676 44.4999C61.2676 44.4999 60.9442 48.3807 60.7501 48.8982C60.5561 49.4156 60.7501 54.6547 60.7501 54.6547L60.6621 65.2622C60.6621 65.2622 60.3827 70.8894 60.6621 72.8945C60.9416 74.8996 61.2546 82.5318 61.2546 82.5318C61.2546 82.5318 63.0036 89.97 62.3568 92.6219C61.71 95.2738 62.4215 101.224 63.521 100.707C64.6206 100.189 74.7753 98.1844 75.2928 97.7963C75.8102 97.4082 75.5515 93.7862 75.2928 93.3334C75.0341 92.8806 73.4817 86.736 73.6111 85.3131C73.7405 83.8901 73.1583 71.4069 73.1583 71.4069C73.1583 71.4069 74.1285 58.0828 74.5166 54.9781C74.9047 51.8735 73.7405 42.7536 72.7056 42.6242C71.6707 42.4948 68.6411 35.4447 63.0786 43.5297Z" fill="black"/>
<path d="M62.5612 43.0123L60.7502 43.9825C60.7502 43.9825 60.4268 47.8633 60.2327 48.3807C60.0387 48.8982 60.2327 54.1373 60.2327 54.1373L60.1448 64.7448C60.1448 64.7448 59.8653 70.372 60.1448 72.377C60.4242 74.3821 60.7372 82.0144 60.7372 82.0144C60.7372 82.0144 62.4862 89.4526 61.8394 92.1045C61.1926 94.7564 61.9041 100.707 63.0036 100.189C64.1032 99.672 74.258 97.667 74.7754 97.2789C75.2928 96.8908 75.0341 93.2687 74.7754 92.8159C74.5167 92.3632 72.9644 86.2186 73.0937 84.7956C73.2231 83.3727 72.641 70.8894 72.641 70.8894C72.641 70.8894 73.6112 57.5653 73.9992 54.4607C74.3873 51.356 73.2231 42.2361 72.1882 42.1068C71.1533 41.9774 68.1237 34.9273 62.5612 43.0123Z" fill="#5F5570"/>
<g opacity="0.1">
<path opacity="0.1" d="M82.123 14.3563C81.3469 14.496 80.7725 15.2334 80.5707 16.0044C80.3689 16.7754 80.4233 17.5877 80.4258 18.3872C80.4308 20.1035 80.1492 21.8086 79.5928 23.4322L76.1388 16.4701C76.0716 16.3329 76.0017 16.1907 75.9344 16.0484C76.0943 16.5275 76.2924 16.993 76.5269 17.4403L79.9808 24.4024C80.5373 22.7788 80.8189 21.0737 80.8139 19.3574C80.8139 18.5579 80.7492 17.7456 80.9588 16.9746C81.1684 16.2036 81.735 15.4662 82.5111 15.3265C82.7617 15.719 82.9855 16.1278 83.1812 16.5503C82.9184 15.7789 82.5631 15.0422 82.123 14.3563Z" fill="black"/>
<path opacity="0.1" d="M100.019 5.96094C100.171 6.59744 100.149 7.26299 99.9566 7.8884C99.8665 8.20155 99.7103 8.49177 99.4987 8.73959C98.9114 9.38898 97.9464 9.4666 97.0616 9.50023L91.0955 9.72273C90.6145 9.71957 90.1352 9.77959 89.6699 9.90125C87.9158 10.442 87.1034 12.3099 87.0387 13.989C86.9741 15.6681 86.0039 17.549 84.123 17.6965C83.9357 17.7283 83.7435 17.6856 83.5874 17.5775C83.6469 17.7456 83.7038 17.9164 83.753 18.0949C83.7796 18.2669 83.8581 18.4267 83.9781 18.5529C84.1342 18.6609 84.3264 18.7037 84.5136 18.6719C86.4075 18.5244 87.3595 16.6616 87.4294 14.9644C87.4993 13.2672 88.3065 11.4173 90.0606 10.8766C90.5259 10.755 91.0052 10.6949 91.4861 10.6981L97.4522 10.4756C98.3267 10.442 99.3021 10.3644 99.8894 9.71497C100.101 9.46715 100.257 9.17692 100.347 8.86378C100.494 8.38317 100.54 7.87759 100.484 7.3783C100.427 6.879 100.269 6.3966 100.019 5.96094Z" fill="black"/>
</g>
<path opacity="0.1" d="M90.3038 112.075C90.3038 112.075 92.5443 110.911 93.4084 110.975C94.2725 111.04 102.032 120.908 102.032 120.908L90.3038 112.075Z" fill="black"/>
<path opacity="0.1" d="M67.3216 45.2942C67.3216 45.2942 63.2261 47.0431 63.3348 48.2514C63.4434 49.4596 67.3216 45.2942 67.3216 45.2942Z" fill="black"/>
<path opacity="0.1" d="M65.3269 51.0118C65.3269 51.0118 61.0295 56.5071 61.979 56.6908C62.9285 56.8744 65.3269 51.0118 65.3269 51.0118Z" fill="black"/>
<path opacity="0.1" d="M79.7014 59.2469C79.7014 59.2469 80.0946 71.5362 76.9434 73.0885L79.7014 59.2469Z" fill="black"/>
<path opacity="0.1" d="M63.3244 92.0604C63.3244 92.0604 66.3566 90.3373 67.0526 90.6814C67.7485 91.0255 63.3244 92.0604 63.3244 92.0604Z" fill="black"/>
<path opacity="0.1" d="M63.8547 94.4433C63.8547 94.4433 65.7693 94.5804 66.6774 94.1846C67.5855 93.7887 63.8547 94.4433 63.8547 94.4433Z" fill="black"/>
<path opacity="0.1" d="M109.558 49.1904C109.558 49.1904 111.933 56.0129 113.301 56.0129L109.558 49.1904Z" fill="black"/>
<path opacity="0.1" d="M75.7844 179.855C75.7844 179.855 80.2395 178.646 80.8967 179.855C81.5538 181.063 75.7844 179.855 75.7844 179.855Z" fill="black"/>
<path opacity="0.1" d="M61.622 161.941C61.622 161.941 60.5121 163.641 61.9791 164.158C63.446 164.675 61.622 161.941 61.622 161.941Z" fill="black"/>
<path opacity="0.1" d="M91.2145 138.221C91.2145 138.221 94.5778 141.217 96.1664 141.305C97.7549 141.393 91.2145 138.221 91.2145 138.221Z" fill="black"/>
<path d="M223.69 15.4793C223.69 15.4793 201.908 14.1572 204.474 29.4217C204.474 29.4217 203.957 32.1202 206.41 33.3465C206.41 33.3465 206.449 32.2133 208.645 32.5988C209.426 32.7284 210.22 32.7666 211.01 32.7126C212.076 32.6401 213.09 32.2234 213.9 31.5251C213.9 31.5251 220.024 28.9974 222.404 18.9875C222.404 18.9875 224.166 16.8039 224.096 16.2425L220.419 17.8129C220.419 17.8129 221.677 20.4648 220.678 22.6691C220.678 22.6691 220.559 17.9086 219.853 18.0121C219.708 18.0354 217.941 18.9306 217.941 18.9306C217.941 18.9306 220.104 23.5513 218.471 26.9069C218.471 26.9069 219.092 21.2151 217.268 19.2643L214.681 20.7753C214.681 20.7753 217.209 25.5461 215.496 29.4398C215.496 29.4398 215.936 23.4685 214.138 21.1426L211.794 22.9718C211.794 22.9718 214.166 27.6753 212.72 30.9042C212.72 30.9042 212.531 23.9524 211.284 23.4271C211.284 23.4271 209.235 25.2382 208.922 25.9781C208.922 25.9781 210.547 29.3932 209.538 31.1939C209.538 31.1939 208.919 26.5628 208.412 26.537C208.412 26.537 206.368 29.6054 206.156 31.7114C206.156 31.7114 206.244 28.5809 207.918 26.2446C207.918 26.2446 205.941 26.5835 204.788 27.8668C204.788 27.8668 205.106 25.6961 208.41 25.5073C208.41 25.5073 210.096 23.1788 210.549 23.0365C210.549 23.0365 207.251 22.7622 205.251 23.6471C205.251 23.6471 207.013 21.6006 211.155 22.532L213.483 20.6433C213.483 20.6433 209.139 20.0483 207.3 20.7054C207.3 20.7054 209.419 18.8944 214.107 20.2138L216.627 18.7055C216.627 18.7055 212.924 17.9086 210.72 18.1881C210.72 18.1881 213.048 16.9333 217.364 18.2941L219.175 17.4843C219.175 17.4843 216.464 16.9514 215.669 16.8686C214.875 16.7858 214.831 16.5633 214.831 16.5633C216.55 16.2769 218.314 16.4731 219.928 17.1299C219.928 17.1299 223.757 15.7095 223.69 15.4793Z" fill="#6C63FF"/>
<path d="M180.455 12.5531C180.455 12.5531 170.623 11.9607 171.772 18.8582C171.772 18.8582 171.542 20.0767 172.647 20.6304C172.647 20.6304 172.665 20.1129 173.656 20.2915C174.009 20.3522 174.369 20.3696 174.727 20.3432C175.205 20.3075 175.658 20.1188 176.02 19.8051C176.02 19.8051 178.786 18.6615 179.862 14.1391C179.862 14.1391 180.659 13.1534 180.639 12.8998L178.972 13.6087C178.972 13.6087 179.539 14.8066 179.094 15.8027C179.094 15.8027 179.04 13.6527 178.719 13.7019C178.654 13.7019 177.857 14.1184 177.857 14.1184C177.857 14.1184 178.833 16.2063 178.095 17.7224C178.095 17.7224 178.377 15.1507 177.552 14.2685L176.385 14.9515C176.385 14.9515 177.526 17.1066 176.753 18.8659C176.753 18.8659 176.952 16.1675 176.139 15.1171L175.081 15.945C175.081 15.945 176.152 18.0691 175.498 19.5282C175.498 19.5282 175.412 16.3874 174.851 16.1494C174.851 16.1494 173.925 16.9669 173.782 17.3032C173.782 17.3032 174.517 18.8556 174.062 19.6602C174.062 19.6602 173.782 17.5671 173.544 17.5568C173.544 17.5568 172.621 18.9435 172.525 19.8853C172.57 19.0069 172.845 18.1558 173.322 17.4171C172.789 17.5175 172.297 17.772 171.907 18.1493C171.907 18.1493 172.052 17.1687 173.55 17.0833C173.55 17.0833 174.313 16.0303 174.517 15.9682C174.517 15.9682 173.027 15.8415 172.121 16.2425C172.121 16.2425 172.918 15.3189 174.789 15.725L175.824 14.8713C175.824 14.8713 173.86 14.6126 173.03 14.8997C173.03 14.8997 173.987 14.0822 176.103 14.6772L177.244 13.9968C177.244 13.9968 175.57 13.6372 174.574 13.7665C174.574 13.7665 175.625 13.1999 177.578 13.8131L178.39 13.4483C178.39 13.4483 177.167 13.2077 176.807 13.1689C176.447 13.1301 176.429 13.0318 176.429 13.0318C177.206 12.9042 178.003 12.9937 178.732 13.2905C178.732 13.2905 180.486 12.6618 180.455 12.5531Z" fill="#6C63FF"/>
<path opacity="0.1" d="M219.033 188.201C222.881 188.201 226 187.674 226 187.024C226 186.374 222.881 185.847 219.033 185.847C215.185 185.847 212.065 186.374 212.065 187.024C212.065 187.674 215.185 188.201 219.033 188.201Z" fill="#6C63FF"/>
<path opacity="0.1" d="M6.96734 170.678C10.8153 170.678 13.9347 170.151 13.9347 169.501C13.9347 168.851 10.8153 168.323 6.96734 168.323C3.11938 168.323 0 168.851 0 169.501C0 170.151 3.11938 170.678 6.96734 170.678Z" fill="#6C63FF"/>
<path opacity="0.1" d="M214.184 165.4C218.032 165.4 221.152 164.873 221.152 164.223C221.152 163.573 218.032 163.046 214.184 163.046C210.336 163.046 207.217 163.573 207.217 164.223C207.217 164.873 210.336 165.4 214.184 165.4Z" fill="#6C63FF"/>
<path opacity="0.1" d="M33.9157 176.993C37.7637 176.993 40.883 176.466 40.883 175.816C40.883 175.166 37.7637 174.639 33.9157 174.639C30.0677 174.639 26.9484 175.166 26.9484 175.816C26.9484 176.466 30.0677 176.993 33.9157 176.993Z" fill="#6C63FF"/>
<path opacity="0.1" d="M183.127 178.005C186.975 178.005 190.095 177.478 190.095 176.828C190.095 176.177 186.975 175.65 183.127 175.65C179.279 175.65 176.16 176.177 176.16 176.828C176.16 177.478 179.279 178.005 183.127 178.005Z" fill="#6C63FF"/>
<path d="M203.784 201.398C209.529 201.398 214.187 200.611 214.187 199.639C214.187 198.667 209.529 197.88 203.784 197.88C198.038 197.88 193.381 198.667 193.381 199.639C193.381 200.611 198.038 201.398 203.784 201.398Z" fill="#6C63FF"/>
<path d="M208.084 196.762C208.558 196.375 208.903 195.854 209.075 195.267C209.204 194.672 208.95 193.973 208.381 193.743C207.745 193.5 207.064 193.939 206.549 194.384C206.035 194.829 205.442 195.339 204.767 195.246C205.114 194.931 205.374 194.532 205.522 194.086C205.669 193.641 205.699 193.165 205.608 192.705C205.577 192.515 205.496 192.336 205.372 192.188C205.02 191.81 204.379 191.973 203.957 192.271C202.612 193.218 202.237 195.044 202.229 196.69C202.094 196.095 202.208 195.476 202.203 194.879C202.198 194.281 202.035 193.585 201.52 193.269C201.202 193.099 200.845 193.014 200.485 193.023C199.88 193.003 199.207 193.062 198.796 193.505C198.278 194.053 198.415 194.977 198.86 195.574C199.305 196.172 199.986 196.558 200.612 196.977C201.113 197.275 201.541 197.682 201.861 198.169C201.901 198.236 201.932 198.307 201.955 198.382H205.747C206.595 197.949 207.381 197.404 208.084 196.762Z" fill="#6C63FF"/>
<path d="M34.2752 146.881C34.2752 146.881 35.6982 148.738 33.6207 151.538C31.5432 154.337 29.8304 156.712 30.516 158.461C30.516 158.461 33.6517 153.25 36.2079 153.178C38.764 153.106 37.0824 150.022 34.2752 146.881Z" fill="#6C63FF"/>
<path opacity="0.1" d="M34.2753 146.881C34.3998 147.06 34.4974 147.256 34.5651 147.463C37.0539 150.386 38.3812 153.116 35.988 153.186C33.7604 153.248 31.0879 157.232 30.4462 158.239C30.4673 158.317 30.4924 158.393 30.5213 158.469C30.5213 158.469 33.6569 153.258 36.2131 153.186C38.7693 153.113 37.0824 150.022 34.2753 146.881Z" fill="black"/>
<path d="M36.9168 149.256C36.9168 149.91 36.8444 150.441 36.7538 150.441C36.6633 150.441 36.5908 149.923 36.5908 149.256C36.5908 148.588 36.6814 148.909 36.7719 148.909C36.8625 148.909 36.9168 148.601 36.9168 149.256Z" fill="#FFD037"/>
<path d="M37.8249 150.037C37.2506 150.35 36.7486 150.539 36.7072 150.461C36.6658 150.384 37.0927 150.063 37.6671 149.75C38.2414 149.437 38.0164 149.665 38.0578 149.75C38.0992 149.835 38.3993 149.727 37.8249 150.037Z" fill="#FFD037"/>
<path d="M26.7698 146.881C26.7698 146.881 25.3468 148.738 27.4244 151.538C29.5019 154.337 31.2146 156.712 30.529 158.461C30.529 158.461 27.3959 153.25 24.8372 153.178C22.2784 153.106 23.9627 150.022 26.7698 146.881Z" fill="#6C63FF"/>
<path opacity="0.1" d="M26.7698 146.881C26.645 147.06 26.5466 147.256 26.4775 147.463C23.9886 150.386 22.6639 153.116 25.0545 153.186C27.2847 153.248 29.9573 157.232 30.5989 158.239C30.5781 158.317 30.5521 158.394 30.5213 158.469C30.5213 158.469 27.3882 153.258 24.8294 153.186C22.2707 153.113 23.9627 150.022 26.7698 146.881Z" fill="black"/>
<path d="M24.1257 149.256C24.1257 149.91 24.2007 150.441 24.2913 150.441C24.3818 150.441 24.4543 149.923 24.4543 149.256C24.4543 148.588 24.3637 148.909 24.2731 148.909C24.1826 148.909 24.1257 148.601 24.1257 149.256Z" fill="#FFD037"/>
<path d="M23.2228 150.037C23.7971 150.35 24.2965 150.539 24.3404 150.461C24.3844 150.384 23.9524 150.063 23.378 149.75C22.8036 149.437 23.0313 149.665 22.9873 149.75C22.9434 149.835 22.6458 149.727 23.2228 150.037Z" fill="#FFD037"/>
<path d="M24.5784 158.233C24.5784 158.233 28.5524 158.112 29.7528 157.258C30.9533 156.404 35.8664 155.388 36.1613 156.756C36.4563 158.125 42.1352 163.558 37.649 163.594C33.1628 163.63 27.2226 162.896 26.0273 162.166C24.832 161.436 24.5784 158.233 24.5784 158.233Z" fill="#A8A8A8"/>
<path opacity="0.2" d="M37.7266 163.118C33.2404 163.154 27.3002 162.42 26.1049 161.69C25.1968 161.136 24.832 159.147 24.7104 158.228H24.5784C24.5784 158.228 24.8371 161.434 26.0247 162.161C27.2122 162.888 33.1602 163.625 37.6464 163.589C38.94 163.589 39.3876 163.118 39.3643 162.435C39.1832 162.852 38.689 163.11 37.7266 163.118Z" fill="black"/>
</g>
<defs>
<linearGradient id="paint0_linear" x1="84.5084" y1="197.877" x2="84.5084" y2="9.35516e-06" gradientUnits="userSpaceOnUse">
<stop stop-color="#808080" stop-opacity="0.25"/>
<stop offset="0.54" stop-color="#808080" stop-opacity="0.12"/>
<stop offset="1" stop-color="#808080" stop-opacity="0.1"/>
</linearGradient>
<clipPath id="clip0">
<rect width="226" height="207.349" fill="white"/>
</clipPath>
</defs>
</svg>
