<svg width="385" height="353" viewBox="0 0 385 353" fill="none" xmlns="http://www.w3.org/2000/svg">
<g clip-path="url(#clip0)">
<g opacity="0.5">
<path opacity="0.5" d="M212.424 0.0116751L176.494 255.459L348.846 283.353L384.776 27.9062L212.424 0.0116751Z" fill="url(#paint0_linear)"/>
</g>
<path d="M214.355 2.24909L179.219 252.049L347.186 279.234L382.321 29.4338L214.355 2.24909Z" fill="#F5F5F5"/>
<path d="M342.712 133.82L221.484 114.2L220.375 122.082L341.604 141.703L342.712 133.82Z" fill="#E0E0E0"/>
<path d="M339.941 153.522L218.713 133.901L217.604 141.783L338.833 161.404L339.941 153.522Z" fill="#E0E0E0"/>
<path d="M351.578 70.7687L289.126 60.661L288.017 68.5433L350.47 78.6509L351.578 70.7687Z" fill="#E0E0E0"/>
<path d="M343.299 89.583L291.867 81.2589L290.758 89.1412L342.191 97.4653L343.299 89.583Z" fill="#6C63FF"/>
<path d="M322.476 170.848L215.939 153.605L214.83 161.488L321.367 178.73L322.476 170.848Z" fill="#E0E0E0"/>
<path d="M305.006 188.174L213.165 173.31L212.056 181.192L303.897 196.056L305.006 188.174Z" fill="#E0E0E0"/>
<path d="M291.215 206.093L210.394 193.012L209.285 200.895L290.106 213.975L291.215 206.093Z" fill="#E0E0E0"/>
<path d="M310.484 229.364L207.623 212.716L206.515 220.598L309.375 237.246L310.484 229.364Z" fill="#E0E0E0"/>
<path d="M245.264 238.958L204.855 232.418L203.747 240.3L244.155 246.84L245.264 238.958Z" fill="#6C63FF"/>
<g opacity="0.5">
<path opacity="0.5" d="M277.289 71.5023C277.927 66.9615 277.458 62.3208 275.928 58.0319C274.398 53.7431 271.86 49.9521 268.559 47.0281C265.258 44.104 261.307 42.1464 257.092 41.3457C252.877 40.5451 248.54 40.9288 244.504 42.4594C240.467 43.9899 236.869 46.6153 234.06 50.0799C231.25 53.5446 229.324 57.7305 228.47 62.2302C227.616 66.73 227.862 71.3904 229.185 75.7578C230.508 80.1251 232.862 84.0508 236.019 87.1526C236.019 87.1904 236.019 87.2329 236.019 87.2706C236.702 88.2279 237.556 89.0301 238.531 89.6304L238.58 89.5172C239.578 90.7584 244.176 93.2315 249.733 94.1141H249.856C253.376 94.6899 257.288 94.638 260.917 93.2315C260.917 93.2315 260.957 93.1654 261.023 93.0427C261.935 92.7509 262.796 92.3031 263.575 91.7165L263.654 91.4239C267.261 89.5366 270.387 86.7373 272.762 83.2671C275.137 79.7968 276.691 75.7594 277.289 71.5023Z" fill="url(#paint1_linear)"/>
</g>
<path d="M276.443 70.4148C278.425 56.3241 269.383 43.1779 256.247 41.0519C243.112 38.9259 230.856 48.6252 228.874 62.7159C226.892 76.8066 235.934 89.9528 249.07 92.0788C262.206 94.2048 274.461 84.5055 276.443 70.4148Z" fill="#F5F5F5"/>
<path d="M241.695 75.0657C241.695 75.0657 235.975 74.6457 235.9 85.9634C236.564 86.8886 237.393 87.6634 238.338 88.2429L243.151 77.1848L241.695 75.0657Z" fill="#FDA57D"/>
<path d="M260.086 78.0438C260.086 78.0438 265.682 79.4597 262.629 90.2913C261.74 90.9685 260.735 91.4498 259.672 91.7072L258.11 79.6202L260.086 78.0438Z" fill="#FDA57D"/>
<path d="M244.493 56.9612C244.493 56.9612 240.612 64.9421 239.253 63.9132C239.253 63.9132 251.599 79.3605 265.982 68.2364C264.863 65.2297 263.412 62.3776 261.661 59.741L244.493 56.9612Z" fill="#333333"/>
<path d="M264.266 59.3603C265.144 53.1153 261.137 47.2888 255.315 46.3466C249.493 45.4043 244.062 49.7031 243.183 55.9482C242.305 62.1932 246.312 68.0197 252.134 68.9619C257.956 69.9042 263.388 65.6054 264.266 59.3603Z" fill="#333333"/>
<path opacity="0.1" d="M259.976 78.0249L241.585 75.0515L238.76 82.6643C238.76 82.6643 237.238 86.1521 238.267 87.9644C239.297 89.7768 250.494 95.3223 259.826 91.7401C260.873 89.7574 261.284 87.461 260.997 85.2034C260.535 81.3617 260.79 84.9014 260.79 84.9014L259.976 78.0249Z" fill="black"/>
<path opacity="0.1" d="M260.222 78.0674L241.831 75.094L239.011 82.702C239.011 82.702 237.488 86.1898 238.518 88.0022C239.548 89.8145 250.745 95.3601 260.077 91.7779C261.124 89.7952 261.535 87.4988 261.247 85.2412C260.785 81.3994 261.041 84.9391 261.041 84.9391L260.222 78.0674Z" fill="black"/>
<path d="M260.086 78.0438L241.695 75.0704L238.87 82.6832C238.87 82.6832 237.348 86.171 238.377 87.9834C239.407 89.7957 250.604 95.3413 259.936 91.7591C260.983 89.7764 261.394 87.4799 261.107 85.2224C260.645 81.3806 260.9 84.9203 260.9 84.9203L260.086 78.0438Z" fill="#FDD835"/>
<path opacity="0.1" d="M248.251 69.4563L255.608 70.6469L254.606 77.7685C254.489 78.6015 254.068 79.3504 253.436 79.8505C252.804 80.3507 252.013 80.5611 251.236 80.4354L249.731 80.1918C248.954 80.0661 248.256 79.6146 247.79 78.9368C247.324 78.2589 247.128 77.4101 247.245 76.5771L248.247 69.4556L248.251 69.4563Z" fill="black"/>
<path d="M248.287 69.1638L255.644 70.3545L254.642 77.476C254.525 78.309 254.104 79.058 253.472 79.5581C252.84 80.0582 252.049 80.2686 251.272 80.1429L249.771 79.9C248.995 79.7743 248.297 79.3229 247.83 78.645C247.364 77.9671 247.168 77.1184 247.285 76.2854L248.287 69.1638Z" fill="#FDA57D"/>
<path opacity="0.1" d="M248.149 70.2801C250.386 71.6142 252.994 72.0445 255.501 71.4931L255.638 70.5255L248.281 69.3362L248.149 70.2801Z" fill="black"/>
<path d="M263.921 61.8132C264.799 55.5682 260.792 49.7417 254.97 48.7995C249.148 47.8572 243.716 52.156 242.838 58.4011C241.96 64.6461 245.967 70.4726 251.789 71.4148C257.611 72.3571 263.042 68.0583 263.921 61.8132Z" fill="#FDA57D"/>
<path d="M243.881 54.1719L263.988 57.4238C263.988 57.4238 263.496 48.4565 255.818 47.7627C248.14 47.0689 243.881 54.1719 243.881 54.1719Z" fill="#333333"/>
<path d="M244.099 58.1081C244.253 57.0178 243.939 56.0631 243.398 55.9756C242.858 55.8881 242.295 56.701 242.142 57.7912C241.988 58.8815 242.302 59.8362 242.843 59.9237C243.384 60.0112 243.946 59.1983 244.099 58.1081Z" fill="#FDA57D"/>
<path d="M264.697 61.4435C264.85 60.3533 264.536 59.3985 263.996 59.311C263.455 59.2235 262.893 60.0364 262.739 61.1267C262.586 62.2169 262.9 63.1716 263.44 63.2591C263.981 63.3466 264.544 62.5338 264.697 61.4435Z" fill="#FDA57D"/>
<path opacity="0.1" d="M243.851 54.4645L263.958 57.7164C263.958 57.7164 263.465 48.7491 255.787 48.0553C248.11 47.3615 243.851 54.4645 243.851 54.4645Z" fill="black"/>
<g opacity="0.5">
<path opacity="0.5" d="M172.704 36.7145L0.144409 66.6301L38.6776 322.385L211.237 292.469L172.704 36.7145Z" fill="url(#paint2_linear)"/>
</g>
<path d="M170.11 38.2076L2.47937 67.6857L40.579 316.986L208.209 287.507L170.11 38.2076Z" fill="#F5F5F5"/>
<path d="M162.339 150.576L41.3534 171.852L42.5556 179.719L163.541 158.443L162.339 150.576Z" fill="#E0E0E0"/>
<path d="M165.344 170.241L44.3583 191.517L45.5605 199.383L166.546 178.108L165.344 170.241Z" fill="#E0E0E0"/>
<path d="M152.727 87.6532L90.3996 98.6135L91.6018 106.48L153.929 95.5196L152.727 87.6532Z" fill="#E0E0E0"/>
<path d="M150.231 108.285L98.9013 117.312L100.104 125.178L151.433 116.152L150.231 108.285Z" fill="#6C63FF"/>
<path d="M153.687 192.484L47.3633 211.181L48.5655 219.048L154.889 200.35L153.687 192.484Z" fill="#E0E0E0"/>
<path d="M142.024 214.723L50.3677 230.841L51.5699 238.707L143.226 222.589L142.024 214.723Z" fill="#E0E0E0"/>
<path d="M134.032 236.324L53.373 250.508L54.5753 258.375L135.234 244.191L134.032 236.324Z" fill="#E0E0E0"/>
<path d="M159.033 252.116L56.3785 270.168L57.5807 278.034L160.235 259.982L159.033 252.116Z" fill="#E0E0E0"/>
<path d="M99.7137 282.743L59.3866 289.834L60.5888 297.701L100.916 290.609L99.7137 282.743Z" fill="#6C63FF"/>
<g opacity="0.5">
<path opacity="0.5" d="M84.4939 111.128C83.7814 106.47 81.9566 102.089 79.1974 98.411C76.4381 94.7333 72.8383 91.8845 68.7482 90.1418C64.6582 88.3992 60.2172 87.822 55.8575 88.4665C51.4979 89.111 47.368 90.9552 43.8698 93.8196C40.3716 96.684 37.6243 100.471 35.8953 104.812C34.1662 109.153 33.5143 113.901 34.003 118.592C34.4916 123.284 36.1042 127.76 38.6839 131.585C41.2635 135.41 44.7222 138.453 48.7235 140.418L48.7587 140.536C49.7095 141.236 50.7802 141.727 51.9089 141.981V141.853C53.2509 142.731 58.4779 143.595 64.1756 142.575H64.2988C67.911 141.948 71.7213 140.569 74.8583 137.964C74.8583 137.964 74.8583 137.889 74.9023 137.747C75.7088 137.153 76.4205 136.423 77.0098 135.586C77.0098 135.479 77.0098 135.375 77.0098 135.274C79.9901 132.203 82.2289 128.4 83.5327 124.193C84.8366 119.986 85.1665 115.502 84.4939 111.128Z" fill="url(#paint3_linear)"/>
</g>
<path d="M63.3435 141.718C76.8199 139.348 85.9537 125.708 83.7445 111.252C81.5352 96.7961 68.8195 86.9983 55.343 89.3682C41.8666 91.738 32.7328 105.378 34.9421 119.834C37.1513 134.29 49.8671 144.088 63.3435 141.718Z" fill="#F5F5F5"/>
<path d="M50.3426 127.642C50.3426 127.642 44.6229 129.176 47.8787 140.267C48.8005 140.952 49.8399 141.433 50.9366 141.683L52.3929 129.233L50.3426 127.642Z" fill="#4D8AF0"/>
<path d="M69.209 124.325C69.209 124.325 75.1003 123.81 75.2983 135.449C74.6256 136.403 73.7838 137.205 72.8212 137.809L67.735 126.51L69.209 124.325Z" fill="#4D8AF0"/>
<path d="M58.7395 118.124C64.7128 117.073 68.7613 111.027 67.782 104.62C66.8028 98.2124 61.1667 93.8697 55.1934 94.9201C49.2202 95.9705 45.1717 102.016 46.1509 108.424C47.1302 114.831 52.7663 119.174 58.7395 118.124Z" fill="#333333"/>
<path d="M69.099 124.343L50.2326 127.647L49.709 136.053C49.709 136.053 49.2691 139.984 50.787 141.405C52.3049 142.825 64.9192 144.463 72.9664 137.78C73.4069 135.486 73.1333 133.1 72.1877 130.989C70.6037 127.388 71.8929 130.762 71.8929 130.762L69.099 124.343Z" fill="#4D8AF0"/>
<path d="M69.3498 124.301L50.4834 127.605L49.9598 136.01C49.9598 136.01 49.5198 139.942 51.0378 141.362C52.5557 142.783 65.17 144.421 73.2172 137.738C73.6577 135.443 73.3841 133.058 72.4384 130.946C70.8545 127.345 72.1436 130.72 72.1436 130.72L69.3498 124.301Z" fill="#4D8AF0"/>
<path d="M69.209 124.324L50.3426 127.628L49.819 136.048C49.819 136.048 49.379 139.979 50.897 141.4C52.4149 142.821 65.0291 144.458 73.0764 137.775C73.5169 135.481 73.2433 133.095 72.2976 130.984C70.7137 127.383 72.0029 130.757 72.0029 130.757L69.209 124.324Z" fill="#4D8AF0"/>
<path opacity="0.1" d="M55.1092 119.903L62.6553 118.576L63.7849 125.968C63.912 126.799 63.7259 127.651 63.2678 128.335C62.8096 129.019 62.1169 129.48 61.3419 129.616L59.6355 129.916C58.8605 130.052 58.0668 129.853 57.429 129.361C56.7912 128.87 56.3615 128.127 56.2344 127.296L55.1048 119.904L55.1092 119.903Z" fill="black"/>
<path d="M55.0642 119.603L62.6103 118.276L63.7399 125.668C63.867 126.499 63.681 127.351 63.2228 128.035C62.7647 128.719 62.0719 129.18 61.2969 129.316L59.5906 129.616C58.8156 129.753 58.0219 129.553 57.384 129.062C56.7462 128.57 56.3165 127.827 56.1894 126.996L55.0598 119.604L55.0642 119.603Z" fill="#FDA57D"/>
<path opacity="0.1" d="M55.2484 120.771C57.8293 121.319 60.508 120.857 62.7985 119.468L62.6445 118.472L55.0988 119.803L55.2484 120.771Z" fill="black"/>
<path d="M59.1277 120.642C65.101 119.592 69.1494 113.546 68.1702 107.139C67.191 100.731 61.5549 96.3886 55.5816 97.439C49.6083 98.4894 45.5599 104.535 46.5391 110.943C47.5183 117.35 53.1544 121.693 59.1277 120.642Z" fill="#FDA57D"/>
<path opacity="0.1" d="M46.3784 106.753L67.0091 103.129C67.0091 103.129 63.8808 94.5011 56.1724 96.4456C48.4639 98.3901 46.3784 106.753 46.3784 106.753Z" fill="black"/>
<path d="M46.33 106.456L66.9783 102.827C66.9783 102.827 63.85 94.1991 56.1416 96.1436C48.4331 98.0881 46.33 106.456 46.33 106.456Z" fill="#333333"/>
<path d="M47.1231 113.129C47.6812 113.032 47.9965 112.044 47.8274 110.921C47.6583 109.799 47.0687 108.967 46.5106 109.064C45.9525 109.161 45.6372 110.149 45.8063 111.272C45.9754 112.394 46.565 113.226 47.1231 113.129Z" fill="#FDA57D"/>
<path d="M68.1231 108.716C68.6794 108.618 68.9918 107.631 68.8208 106.513C68.6498 105.394 68.0602 104.566 67.5039 104.664C66.9475 104.762 66.6352 105.748 66.8062 106.867C66.9772 107.986 67.5668 108.814 68.1231 108.716Z" fill="#FDA57D"/>
<g opacity="0.5">
<path opacity="0.5" d="M298.655 78.0957H124.352V336.434H298.655V78.0957Z" fill="url(#paint4_linear)"/>
</g>
<path d="M296.437 79.9977H126.569V332.625H296.437V79.9977Z" fill="white"/>
<g opacity="0.5">
<path opacity="0.5" d="M149.255 137.799C149.255 132.972 150.421 128.228 152.637 124.027C154.854 119.827 158.047 116.314 161.905 113.83C165.764 111.346 170.156 109.975 174.654 109.852C179.152 109.729 183.604 110.857 187.575 113.126C191.546 115.396 194.902 118.73 197.316 122.803C199.73 126.877 201.119 131.552 201.349 136.372C201.58 141.193 200.642 145.995 198.629 150.312C196.616 154.628 193.595 158.313 189.861 161.005V161.128C189.009 162.005 188.004 162.691 186.904 163.148L186.869 163.025C185.65 164.149 180.511 165.947 174.606 165.928H174.479C170.739 165.928 166.682 165.22 163.11 163.148C163.11 163.148 163.079 163.073 163.03 162.936C162.125 162.479 161.295 161.869 160.571 161.128L160.531 160.812C157.053 158.244 154.209 154.808 152.245 150.799C150.28 146.79 149.254 142.328 149.255 137.799Z" fill="url(#paint5_linear)"/>
</g>
<path d="M175.315 164.918C189.277 164.918 200.596 152.776 200.596 137.799C200.596 122.822 189.277 110.68 175.315 110.68C161.352 110.68 150.033 122.822 150.033 137.799C150.033 152.776 161.352 164.918 175.315 164.918Z" fill="#F5F5F5"/>
<path d="M165.398 148.13C165.398 148.13 159.374 148.654 160.967 160.453C161.793 161.303 162.768 161.969 163.836 162.412L167.224 150.108L165.398 148.13Z" fill="#BE7C5E"/>
<path d="M184.946 148.13C184.946 148.13 190.969 148.654 189.377 160.453C188.55 161.303 187.575 161.969 186.508 162.412L183.133 150.07L184.946 148.13Z" fill="#BE7C5E"/>
<path d="M165.657 128.832C165.657 128.832 165.195 130.281 164.535 131.956C163.101 135.619 164.738 149.693 168.169 151.193C172.019 152.878 177.083 153.954 182.341 151.897C186.913 150.108 188.321 134.089 185.091 130.186C184.713 129.714 184.317 129.275 183.903 128.832H165.657Z" fill="#333333"/>
<path d="M175.332 140.017C181.521 140.017 186.539 134.635 186.539 127.996C186.539 121.357 181.521 115.975 175.332 115.975C169.143 115.975 164.126 121.357 164.126 127.996C164.126 134.635 169.143 140.017 175.332 140.017Z" fill="#333333"/>
<path opacity="0.1" d="M184.832 148.13H165.283L163.457 156.517C163.457 156.517 162.384 160.401 163.717 162.11C165.05 163.818 177.501 167.703 186.653 162.388C187.45 160.152 187.542 157.696 186.913 155.399C185.87 151.486 186.653 155.12 186.653 155.12L184.832 148.13Z" fill="black"/>
<path opacity="0.1" d="M185.091 148.13H165.534L163.708 156.517C163.708 156.517 162.635 160.401 163.968 162.11C165.301 163.818 177.752 167.703 186.904 162.388C187.701 160.152 187.792 157.696 187.163 155.399C186.121 151.486 186.904 155.12 186.904 155.12L185.091 148.13Z" fill="black"/>
<path d="M184.946 148.13H165.398L163.572 156.517C163.572 156.517 162.498 160.401 163.831 162.11C165.164 163.818 177.616 167.703 186.767 162.388C187.565 160.152 187.656 157.696 187.027 155.399C185.984 151.486 186.767 155.12 186.767 155.12L184.946 148.13Z" fill="#3AD29F"/>
<path opacity="0.1" d="M171.395 141.169H179.213V148.9C179.213 149.742 178.901 150.55 178.346 151.146C177.79 151.741 177.037 152.076 176.252 152.076H174.351C173.566 152.076 172.813 151.741 172.257 151.146C171.702 150.55 171.39 149.742 171.39 148.9V141.169H171.395Z" fill="black"/>
<path d="M171.395 140.857H179.213V148.588C179.213 149.431 178.901 150.238 178.346 150.834C177.79 151.43 177.037 151.764 176.252 151.764H174.351C173.566 151.764 172.813 151.43 172.257 150.834C171.702 150.238 171.39 149.431 171.39 148.588V140.857H171.395Z" fill="#BE7C5E"/>
<path opacity="0.1" d="M171.408 142.047C173.93 143.049 176.704 143.049 179.226 142.047V141.018H171.408V142.047Z" fill="black"/>
<path d="M175.332 142.627C181.521 142.627 186.539 137.245 186.539 130.606C186.539 123.967 181.521 118.585 175.332 118.585C169.143 118.585 164.126 123.967 164.126 130.606C164.126 137.245 169.143 142.627 175.332 142.627Z" fill="#BE7C5E"/>
<path d="M164.614 126.042H185.989C185.989 126.042 184.163 116.783 176.085 117.377C168.007 117.972 164.614 126.042 164.614 126.042Z" fill="#333333"/>
<path d="M164.359 132.192C164.935 132.192 165.402 131.254 165.402 130.096C165.402 128.939 164.935 128.001 164.359 128.001C163.783 128.001 163.316 128.939 163.316 130.096C163.316 131.254 163.783 132.192 164.359 132.192Z" fill="#BE7C5E"/>
<path d="M186.253 132.192C186.829 132.192 187.295 131.254 187.295 130.096C187.295 128.939 186.829 128.001 186.253 128.001C185.677 128.001 185.21 128.939 185.21 130.096C185.21 131.254 185.677 132.192 186.253 132.192Z" fill="#BE7C5E"/>
<path opacity="0.1" d="M164.614 126.349H185.989C185.989 126.349 184.163 117.089 176.085 117.684C168.007 118.279 164.614 126.349 164.614 126.349Z" fill="black"/>
<path d="M271.82 189.54H149.219V197.512H271.82V189.54Z" fill="#E0E0E0"/>
<path d="M271.82 209.467H149.219V217.438H271.82V209.467Z" fill="#E0E0E0"/>
<path d="M271.825 125.778H208.665V133.75H271.825V125.778Z" fill="#E0E0E0"/>
<path d="M266.25 145.704H214.235V153.676H266.25V145.704Z" fill="#6C63FF"/>
<path d="M256.962 229.393H149.219V237.364H256.962V229.393Z" fill="#E0E0E0"/>
<path d="M242.099 249.319H149.219V257.291H242.099V249.319Z" fill="#E0E0E0"/>
<path d="M230.955 269.25H149.219V277.222H230.955V269.25Z" fill="#E0E0E0"/>
<path d="M253.244 289.176H149.219V297.148H253.244V289.176Z" fill="#E0E0E0"/>
<path d="M190.085 309.103H149.219V317.074H190.085V309.103Z" fill="#6C63FF"/>
<g opacity="0.5">
<path opacity="0.5" d="M286.898 353.005C307.405 353.005 324.028 335.173 324.028 313.176C324.028 291.179 307.405 273.347 286.898 273.347C266.392 273.347 249.768 291.179 249.768 313.176C249.768 335.173 266.392 353.005 286.898 353.005Z" fill="url(#paint6_linear)"/>
</g>
<path d="M286.898 350.659C306.197 350.659 321.842 333.877 321.842 313.176C321.842 292.474 306.197 275.692 286.898 275.692C267.6 275.692 251.955 292.474 251.955 313.176C251.955 333.877 267.6 350.659 286.898 350.659Z" fill="#69F0AE"/>
<path d="M271.732 308.173L284.835 321.058L303.398 291.777L309.953 297.634L284.835 332.772L266.272 310.519L271.732 308.173Z" fill="white"/>
</g>
<defs>
<linearGradient id="paint0_linear" x1="262.67" y1="269.406" x2="303.875" y2="14.8127" gradientUnits="userSpaceOnUse">
<stop stop-color="#808080" stop-opacity="0.25"/>
<stop offset="0.54" stop-color="#808080" stop-opacity="0.12"/>
<stop offset="1" stop-color="#808080" stop-opacity="0.1"/>
</linearGradient>
<linearGradient id="paint1_linear" x1="29061.2" y1="39130.4" x2="30026.3" y2="33167.1" gradientUnits="userSpaceOnUse">
<stop stop-color="#808080" stop-opacity="0.25"/>
<stop offset="0.54" stop-color="#808080" stop-opacity="0.12"/>
<stop offset="1" stop-color="#808080" stop-opacity="0.1"/>
</linearGradient>
<linearGradient id="paint2_linear" x1="96811.9" y1="84338.3" x2="72635" y2="-55119.5" gradientUnits="userSpaceOnUse">
<stop stop-color="#808080" stop-opacity="0.25"/>
<stop offset="0.54" stop-color="#808080" stop-opacity="0.12"/>
<stop offset="1" stop-color="#808080" stop-opacity="0.1"/>
</linearGradient>
<linearGradient id="paint3_linear" x1="19973" y1="-2110.17" x2="18871.4" y2="-8374.52" gradientUnits="userSpaceOnUse">
<stop stop-color="#808080" stop-opacity="0.25"/>
<stop offset="0.54" stop-color="#808080" stop-opacity="0.12"/>
<stop offset="1" stop-color="#808080" stop-opacity="0.1"/>
</linearGradient>
<linearGradient id="paint4_linear" x1="83913.5" y1="184232" x2="83913.5" y2="42825.3" gradientUnits="userSpaceOnUse">
<stop stop-color="#808080" stop-opacity="0.25"/>
<stop offset="0.54" stop-color="#808080" stop-opacity="0.12"/>
<stop offset="1" stop-color="#808080" stop-opacity="0.1"/>
</linearGradient>
<linearGradient id="paint5_linear" x1="26482.2" y1="24091.9" x2="26482.2" y2="17426.2" gradientUnits="userSpaceOnUse">
<stop stop-color="#808080" stop-opacity="0.25"/>
<stop offset="0.54" stop-color="#808080" stop-opacity="0.12"/>
<stop offset="1" stop-color="#808080" stop-opacity="0.1"/>
</linearGradient>
<linearGradient id="paint6_linear" x1="48672.5" y1="59852.7" x2="48672.5" y2="46408.8" gradientUnits="userSpaceOnUse">
<stop stop-color="#808080" stop-opacity="0.25"/>
<stop offset="0.54" stop-color="#808080" stop-opacity="0.12"/>
<stop offset="1" stop-color="#808080" stop-opacity="0.1"/>
</linearGradient>
<clipPath id="clip0">
<rect width="384.75" height="353" fill="white"/>
</clipPath>
</defs>
</svg>
