<svg width="227" height="207" viewBox="0 0 227 207" fill="none" xmlns="http://www.w3.org/2000/svg">
<g clip-path="url(#clip0)">
<g opacity="0.5">
<path opacity="0.5" d="M107.933 50.1547C119.446 50.1547 128.779 40.8215 128.779 29.3084C128.779 17.7954 119.446 8.46216 107.933 8.46216C96.4195 8.46216 87.0863 17.7954 87.0863 29.3084C87.0863 40.8215 96.4195 50.1547 107.933 50.1547Z" fill="url(#paint0_linear)"/>
</g>
<path d="M107.974 49.5806C119.243 49.5806 128.379 40.4451 128.379 29.1759C128.379 17.9067 119.243 8.77124 107.974 8.77124C96.7048 8.77124 87.5693 17.9067 87.5693 29.1759C87.5693 40.4451 96.7048 49.5806 107.974 49.5806Z" fill="#F5F5F5"/>
<path d="M119.199 31.188C119.199 37.9748 114.322 41.3172 107.991 41.3172C101.659 41.3172 96.2688 37.9776 96.2688 31.188C96.2688 24.3984 101.402 18.8977 107.734 18.8977C114.065 18.8977 119.199 24.3984 119.199 31.188Z" fill="#333333"/>
<path d="M107.991 49.6607C111.978 49.6672 115.879 48.5 119.207 46.3045C118.454 42.1949 115.594 41.952 115.594 41.952H99.8154C99.8154 41.952 97.1161 42.1728 96.2716 45.954C99.7013 48.3703 103.795 49.6651 107.991 49.6607Z" fill="#6C63FF"/>
<path opacity="0.1" d="M104.604 36.9481H110.916V42.1728C110.916 42.5659 110.838 42.9551 110.687 43.318C110.536 43.6809 110.315 44.0104 110.036 44.2874C109.757 44.5645 109.427 44.7836 109.063 44.9323C108.699 45.0809 108.309 45.1562 107.916 45.1536H107.563C106.776 45.1478 106.023 44.8312 105.469 44.2728C104.915 43.7144 104.604 42.9595 104.604 42.1728V36.9481Z" fill="black"/>
<path d="M105.156 36.708H110.331C110.482 36.708 110.626 36.7679 110.733 36.8745C110.84 36.9812 110.9 37.1258 110.9 37.2766V41.952C110.9 42.7426 110.586 43.5007 110.027 44.0598C109.468 44.6188 108.709 44.9328 107.919 44.9328H107.565C106.778 44.9277 106.025 44.6114 105.47 44.0529C104.915 43.4945 104.604 42.7392 104.604 41.952V37.2848C104.602 37.1355 104.658 36.9912 104.762 36.8832C104.865 36.7753 105.007 36.7123 105.156 36.708Z" fill="#FDA57D"/>
<path opacity="0.1" d="M104.61 39.3327C106.644 40.0927 108.883 40.0985 110.922 39.3493V38.5737H104.61V39.3327Z" fill="black"/>
<path d="M107.775 39.7522C112.77 39.7522 116.82 35.7029 116.82 30.7077C116.82 25.7126 112.77 21.6632 107.775 21.6632C102.78 21.6632 98.7307 25.7126 98.7307 30.7077C98.7307 35.7029 102.78 39.7522 107.775 39.7522Z" fill="#FDA57D"/>
<path opacity="0.1" d="M97.3507 31.3012C97.3507 31.3012 102.984 30.6195 107.251 25.1547C107.251 25.1547 112.884 31.3564 116.809 30.6747C116.809 30.6747 119.086 28.2845 116.809 25.8944C114.532 23.5042 112.768 20.4903 109.754 20.8877C106.74 21.2852 103.039 21.4563 101.447 22.8805C99.8541 24.3046 97.3507 31.3012 97.3507 31.3012Z" fill="black"/>
<path d="M97.3507 31.1879C97.3507 31.1879 102.984 30.5062 107.251 25.0414C107.251 25.0414 112.884 31.2431 116.809 30.5614C116.809 30.5614 119.086 28.1713 116.809 25.7811C114.532 23.3909 112.768 20.377 109.754 20.7745C106.74 21.1719 103.039 21.343 101.447 22.7672C99.8541 24.1913 97.3507 31.1879 97.3507 31.1879Z" fill="#333333"/>
<path d="M98.7252 32.2782C99.1901 32.2782 99.567 31.5714 99.567 30.6994C99.567 29.8275 99.1901 29.1207 98.7252 29.1207C98.2603 29.1207 97.8834 29.8275 97.8834 30.6994C97.8834 31.5714 98.2603 32.2782 98.7252 32.2782Z" fill="#FDA57D"/>
<path d="M116.82 32.2782C117.285 32.2782 117.662 31.5714 117.662 30.6994C117.662 29.8275 117.285 29.1207 116.82 29.1207C116.355 29.1207 115.978 29.8275 115.978 30.6994C115.978 31.5714 116.355 32.2782 116.82 32.2782Z" fill="#FDA57D"/>
<g opacity="0.5">
<path opacity="0.5" d="M196.211 51.6424C207.724 51.6424 217.057 42.3092 217.057 30.7961C217.057 19.283 207.724 9.94983 196.211 9.94983C184.698 9.94983 175.365 19.283 175.365 30.7961C175.365 42.3092 184.698 51.6424 196.211 51.6424Z" fill="url(#paint1_linear)"/>
</g>
<path d="M196.253 51.0683C207.522 51.0683 216.657 41.9328 216.657 30.6636C216.657 19.3944 207.522 10.2589 196.253 10.2589C184.983 10.2589 175.848 19.3944 175.848 30.6636C175.848 41.9328 184.983 51.0683 196.253 51.0683Z" fill="#F5F5F5"/>
<path d="M196.269 51.1483C200.256 51.1548 204.157 49.9876 207.486 47.7921C206.735 43.6825 203.873 43.4479 203.873 43.4479H188.086C188.086 43.4479 185.386 43.6687 184.542 47.4499C187.975 49.8648 192.072 51.1568 196.269 51.1483Z" fill="#6C63FF"/>
<path d="M196.054 40.0834C201.494 40.0834 205.904 35.6733 205.904 30.233C205.904 24.7928 201.494 20.3826 196.054 20.3826C190.614 20.3826 186.203 24.7928 186.203 30.233C186.203 35.6733 190.614 40.0834 196.054 40.0834Z" fill="#72351C"/>
<path opacity="0.1" d="M192.877 38.4358H199.189V43.6605C199.19 44.0521 199.113 44.4401 198.963 44.802C198.813 45.164 198.594 45.4929 198.317 45.77C198.04 46.0471 197.712 46.2669 197.35 46.4169C196.988 46.5668 196.6 46.644 196.208 46.644H195.855C195.065 46.644 194.306 46.33 193.747 45.771C193.188 45.212 192.874 44.4538 192.874 43.6632V38.4358H192.877Z" fill="black"/>
<path d="M193.446 38.2012H198.621C198.771 38.2012 198.916 38.2611 199.023 38.3677C199.129 38.4743 199.189 38.6189 199.189 38.7697V43.4258C199.189 43.8173 199.112 44.2049 198.962 44.5666C198.812 44.9282 198.593 45.2568 198.316 45.5336C198.039 45.8104 197.711 46.03 197.349 46.1798C196.987 46.3296 196.6 46.4067 196.208 46.4067H195.855C195.464 46.4067 195.076 46.3296 194.714 46.1798C194.353 46.03 194.024 45.8104 193.747 45.5336C193.471 45.2568 193.251 44.9282 193.101 44.5666C192.951 44.2049 192.874 43.8173 192.874 43.4258V38.7697C192.874 38.6189 192.934 38.4743 193.041 38.3677C193.147 38.2611 193.292 38.2012 193.443 38.2012H193.446Z" fill="#FDA57D"/>
<path opacity="0.1" d="M192.888 40.8204C194.923 41.5803 197.162 41.5862 199.2 40.837V40.0614H192.888V40.8204Z" fill="black"/>
<path d="M196.054 41.2399C201.049 41.2399 205.098 37.1905 205.098 32.1954C205.098 27.2002 201.049 23.1509 196.054 23.1509C191.059 23.1509 187.009 27.2002 187.009 32.1954C187.009 37.1905 191.059 41.2399 196.054 41.2399Z" fill="#FDA57D"/>
<path opacity="0.1" d="M189.612 23.9678C189.612 23.9678 193.424 31.6958 204.179 27.2108L201.676 23.2861L197.238 21.6936L189.612 23.9678Z" fill="black"/>
<path d="M189.612 23.8546C189.612 23.8546 193.424 31.5826 204.179 27.0976L201.676 23.184L197.238 21.5914L189.612 23.8546Z" fill="#72351C"/>
<path d="M189.579 23.3302C189.836 22.5348 190.28 21.8127 190.873 21.2244C192.654 19.4662 195.565 19.0936 197.067 17.0844C197.149 17.2263 197.201 17.384 197.218 17.5472C197.236 17.7104 197.219 17.8755 197.168 18.0317C197.118 18.1878 197.035 18.3316 196.925 18.4537C196.815 18.5758 196.681 18.6735 196.531 18.7404C197.964 18.7404 199.625 18.6051 200.437 17.4266C200.637 17.893 200.701 18.4068 200.621 18.9081C200.541 19.4094 200.32 19.8777 199.984 20.2584C201.254 20.3163 202.612 21.1774 202.692 22.447C202.747 23.2916 202.217 24.103 201.521 24.5778C200.799 25.0254 199.997 25.3273 199.159 25.4665C196.741 25.9992 188.003 28.232 189.579 23.3302Z" fill="#72351C"/>
<path d="M205.101 32.2754H204.861L200.197 36.4154C195.701 34.3095 192.402 36.4154 192.402 36.4154L187.506 32.4465L187.012 32.5072C187.071 34.8867 188.065 37.147 189.779 38.7982C191.494 40.4494 193.79 41.3583 196.17 41.3278C198.55 41.2972 200.822 40.3298 202.493 38.6352C204.165 36.9407 205.101 34.6556 205.098 32.2754H205.101ZM196.043 38.0217C194.282 38.0217 192.858 37.6657 192.858 37.2241C192.858 36.7825 194.285 36.4264 196.043 36.4264C197.801 36.4264 199.228 36.7825 199.228 37.2241C199.228 37.6657 197.801 38.0217 196.043 38.0217Z" fill="#72351C"/>
<path d="M187.007 33.7658C187.471 33.7658 187.848 33.059 187.848 32.1871C187.848 31.3152 187.471 30.6084 187.007 30.6084C186.542 30.6084 186.165 31.3152 186.165 32.1871C186.165 33.059 186.542 33.7658 187.007 33.7658Z" fill="#FDA57D"/>
<path d="M205.098 33.7658C205.563 33.7658 205.94 33.059 205.94 32.1871C205.94 31.3152 205.563 30.6084 205.098 30.6084C204.633 30.6084 204.257 31.3152 204.257 32.1871C204.257 33.059 204.633 33.7658 205.098 33.7658Z" fill="#FDA57D"/>
<g opacity="0.5">
<path opacity="0.5" d="M152.076 85.8415C163.589 85.8415 172.922 76.5083 172.922 64.9952C172.922 53.4821 163.589 44.1489 152.076 44.1489C140.563 44.1489 131.23 53.4821 131.23 64.9952C131.23 76.5083 140.563 85.8415 152.076 85.8415Z" fill="url(#paint2_linear)"/>
</g>
<path d="M152.076 85.2868C163.345 85.2868 172.481 76.1513 172.481 64.8821C172.481 53.6129 163.345 44.4774 152.076 44.4774C140.807 44.4774 131.671 53.6129 131.671 64.8821C131.671 76.1513 140.807 85.2868 152.076 85.2868Z" fill="#F5F5F5"/>
<path d="M144.111 65.0615C144.111 65.0615 141.798 76.4603 140.523 75.8255C140.523 75.8255 152.7 86.3439 163.453 75.8255C163.453 75.8255 161.559 67.7939 158.824 65.0615H144.111Z" fill="#333333"/>
<path d="M152.131 85.3475C156.118 85.354 160.019 84.1868 163.348 81.9913C162.597 77.8817 159.735 77.6471 159.735 77.6471H143.959C143.959 77.6471 141.26 77.8679 140.415 81.6491C143.845 84.0618 147.938 85.3538 152.131 85.3475Z" fill="#6C63FF"/>
<path d="M151.919 73.4767C156.914 73.4767 160.963 69.4274 160.963 64.4322C160.963 59.4371 156.914 55.3877 151.919 55.3877C146.924 55.3877 142.874 59.4371 142.874 64.4322C142.874 69.4274 146.924 73.4767 151.919 73.4767Z" fill="#333333"/>
<path opacity="0.1" d="M148.739 72.6349H155.051V77.8596C155.051 78.6492 154.738 79.4065 154.18 79.9654C153.622 80.5242 152.866 80.8389 152.076 80.8404H151.717C150.927 80.8404 150.168 80.5263 149.609 79.9673C149.05 79.4083 148.736 78.6501 148.736 77.8596V72.6349H148.739Z" fill="black"/>
<path d="M149.316 72.4004H154.491C154.642 72.4004 154.786 72.4603 154.893 72.5669C155 72.6735 155.06 72.8182 155.06 72.9689V77.6251C155.056 78.4137 154.74 79.1688 154.181 79.7249C153.621 80.281 152.865 80.5928 152.076 80.5921H151.717C150.927 80.5921 150.168 80.278 149.609 79.719C149.05 79.16 148.736 78.4018 148.736 77.6113V72.9689C148.736 72.8182 148.796 72.6735 148.903 72.5669C149.01 72.4603 149.154 72.4004 149.305 72.4004H149.316Z" fill="#BE7C5E"/>
<path opacity="0.1" d="M148.75 75.0168C150.785 75.7767 153.024 75.7826 155.062 75.0334V74.2578H148.75V75.0168Z" fill="black"/>
<path d="M151.919 75.4391C156.914 75.4391 160.963 71.3898 160.963 66.3946C160.963 61.3995 156.914 57.3501 151.919 57.3501C146.924 57.3501 142.874 61.3995 142.874 66.3946C142.874 71.3898 146.924 75.4391 151.919 75.4391Z" fill="#BE7C5E"/>
<path d="M143.269 62.9584H160.519C160.519 62.9584 159.045 55.9922 152.515 56.4365C145.985 56.8809 143.269 62.9584 143.269 62.9584Z" fill="#333333"/>
<path d="M143.059 67.5869C143.524 67.5869 143.901 66.8801 143.901 66.0082C143.901 65.1363 143.524 64.4294 143.059 64.4294C142.594 64.4294 142.217 65.1363 142.217 66.0082C142.217 66.8801 142.594 67.5869 143.059 67.5869Z" fill="#BE7C5E"/>
<path d="M160.729 67.5869C161.194 67.5869 161.57 66.8801 161.57 66.0082C161.57 65.1363 161.194 64.4294 160.729 64.4294C160.264 64.4294 159.887 65.1363 159.887 66.0082C159.887 66.8801 160.264 67.5869 160.729 67.5869Z" fill="#BE7C5E"/>
<path opacity="0.1" d="M143.269 63.204H160.519C160.519 63.204 159.045 56.2378 152.515 56.6821C145.985 57.1265 143.269 63.204 143.269 63.204Z" fill="black"/>
<path d="M152.076 45.9955C155.834 45.9955 159.507 47.1098 162.632 49.1975C165.756 51.2852 168.192 54.2526 169.63 57.7244C171.068 61.1962 171.444 65.0164 170.711 68.702C169.978 72.3876 168.168 75.773 165.511 78.4302C162.854 81.0874 159.468 82.897 155.783 83.6301C152.097 84.3632 148.277 83.9869 144.805 82.5489C141.333 81.1108 138.366 78.6756 136.278 75.551C134.19 72.4265 133.076 68.7531 133.076 64.9953C133.076 59.9562 135.078 55.1236 138.641 51.5604C142.204 47.9972 147.037 45.9955 152.076 45.9955ZM152.076 41.3035C147.39 41.3035 142.81 42.693 138.914 45.2963C135.017 47.8996 131.981 51.5997 130.188 55.9288C128.394 60.2579 127.925 65.0216 128.839 69.6174C129.754 74.2131 132.01 78.4346 135.323 81.748C138.637 85.0613 142.858 87.3178 147.454 88.2319C152.05 89.1461 156.813 88.6769 161.142 86.8837C165.472 85.0905 169.172 82.0539 171.775 78.1578C174.378 74.2617 175.768 69.6811 175.768 64.9953C175.761 58.7141 173.262 52.6922 168.821 48.2507C164.379 43.8092 158.357 41.3108 152.076 41.3035Z" fill="#CCCCCC"/>
<path d="M154.121 35.764H148.568V41.6097H154.121V35.764Z" fill="#CCCCCC"/>
<path d="M164.025 38.1355L161.014 43.1462L165.774 46.0063L168.785 40.9956L164.025 38.1355Z" fill="#CCCCCC"/>
<path d="M175.854 47.707L170.741 50.541L173.434 55.3979L178.546 52.5638L175.854 47.707Z" fill="#CCCCCC"/>
<path d="M173.767 74.3139L170.825 79.0232L175.782 82.1209L178.725 77.4116L173.767 74.3139Z" fill="#CCCCCC"/>
<path d="M128.294 47.7081L125.602 52.5649L130.715 55.399L133.407 50.5421L128.294 47.7081Z" fill="#CCCCCC"/>
<path d="M130.386 74.3149L125.428 77.4126L128.371 82.1219L133.329 79.0242L130.386 74.3149Z" fill="#CCCCCC"/>
<path d="M140.123 38.1338L135.363 40.9939L138.374 46.0046L143.134 43.1446L140.123 38.1338Z" fill="#CCCCCC"/>
<path d="M154.121 88.3779H148.568V94.2236H154.121V88.3779Z" fill="#CCCCCC"/>
<path d="M165.774 83.9854L161.014 86.8455L164.025 91.8562L168.785 88.9961L165.774 83.9854Z" fill="#CCCCCC"/>
<path d="M139.642 83.9581L136.602 88.9854L141.378 91.873L144.418 86.8457L139.642 83.9581Z" fill="#CCCCCC"/>
<path d="M128.983 62.6575H122.26V67.6255H128.983V62.6575Z" fill="#CCCCCC"/>
<path d="M175.166 67.6228H181.89V62.6548H175.166V67.6228Z" fill="#CCCCCC"/>
<path d="M196.211 11.7962C199.969 11.7962 203.642 12.9106 206.767 14.9983C209.891 17.086 212.327 20.0534 213.765 23.5252C215.203 26.9969 215.579 30.8172 214.846 34.5028C214.113 38.1884 212.303 41.5738 209.646 44.231C206.989 46.8882 203.603 48.6977 199.918 49.4309C196.232 50.164 192.412 49.7877 188.94 48.3497C185.468 46.9116 182.501 44.4763 180.413 41.3518C178.326 38.2273 177.211 34.5539 177.211 30.7961C177.211 25.757 179.213 20.9243 182.776 17.3612C186.339 13.798 191.172 11.7962 196.211 11.7962ZM196.211 7.10425C191.525 7.10425 186.945 8.49375 183.049 11.097C179.153 13.7003 176.116 17.4005 174.323 21.7296C172.53 26.0587 172.06 30.8224 172.975 35.4181C173.889 40.0139 176.145 44.2354 179.458 47.5488C182.772 50.8621 186.993 53.1185 191.589 54.0327C196.185 54.9468 200.949 54.4777 205.278 52.6845C209.607 50.8913 213.307 47.8547 215.91 43.9586C218.513 40.0625 219.903 35.4819 219.903 30.7961C219.896 24.5149 217.397 18.493 212.956 14.0515C208.514 9.61 202.492 7.11155 196.211 7.10425Z" fill="#CCCCCC"/>
<path d="M198.256 1.56494H192.703V7.41062H198.256V1.56494Z" fill="#CCCCCC"/>
<path d="M208.161 3.93447L205.15 8.94519L209.91 11.8053L212.921 6.79454L208.161 3.93447Z" fill="#CCCCCC"/>
<path d="M219.992 13.5089L214.88 16.3429L217.572 21.1998L222.685 18.3657L219.992 13.5089Z" fill="#CCCCCC"/>
<path d="M217.902 40.1165L214.959 44.8258L219.917 47.9235L222.859 43.2142L217.902 40.1165Z" fill="#CCCCCC"/>
<path d="M172.434 13.5084L169.742 18.3652L174.855 21.1993L177.547 16.3424L172.434 13.5084Z" fill="#CCCCCC"/>
<path d="M174.521 40.1154L169.563 43.2131L172.506 47.9224L177.463 44.8247L174.521 40.1154Z" fill="#CCCCCC"/>
<path d="M184.261 3.9329L179.501 6.79297L182.512 11.8037L187.271 8.94363L184.261 3.9329Z" fill="#CCCCCC"/>
<path d="M198.256 54.1788H192.703V60.0245H198.256V54.1788Z" fill="#CCCCCC"/>
<path d="M209.912 49.7871L205.152 52.6472L208.163 57.6579L212.923 54.7979L209.912 49.7871Z" fill="#CCCCCC"/>
<path d="M183.9 49.4623L180.86 54.4896L185.636 57.3773L188.676 52.35L183.9 49.4623Z" fill="#CCCCCC"/>
<path d="M173.121 28.4584H166.398V33.4264H173.121V28.4584Z" fill="#CCCCCC"/>
<path d="M219.304 33.4264H226.027V28.4584H219.304V33.4264Z" fill="#CCCCCC"/>
<path d="M107.927 10.3335C108.15 10.3335 108.373 10.3335 108.598 10.3335C113.578 10.5033 118.292 12.6229 121.724 16.2354C125.157 19.8479 127.032 24.6643 126.947 29.6466C126.862 34.629 124.823 39.3785 121.27 42.8717C117.716 46.365 112.932 48.3224 107.949 48.3221C107.726 48.3221 107.503 48.3221 107.278 48.3221C102.298 48.1523 97.5842 46.0327 94.1519 42.4202C90.7196 38.8077 88.8439 33.9913 88.929 29.009C89.014 24.0266 91.0531 19.2771 94.6067 15.7839C98.1603 12.2906 102.944 10.3332 107.927 10.3335ZM107.927 5.64148C101.714 5.64144 95.7488 8.08233 91.3179 12.4382C86.8869 16.7941 84.3445 22.7164 84.2385 28.9289C84.1324 35.1415 86.4712 41.147 90.7509 45.6516C95.0305 50.1562 100.909 52.7993 107.118 53.0114C107.394 53.0114 107.67 53.0252 107.946 53.0252C114.147 53.0072 120.094 50.5587 124.51 46.2053C128.926 41.8519 131.459 35.9407 131.566 29.7406C131.672 23.5405 129.344 17.5457 125.08 13.0431C120.816 8.54057 114.957 5.88915 108.761 5.65804C108.485 5.65804 108.209 5.64424 107.933 5.64424L107.927 5.64148Z" fill="#CCCCCC"/>
<path d="M105.452 0.000620995L105.249 5.84277L110.798 6.03561L111.001 0.193453L105.452 0.000620995Z" fill="#CCCCCC"/>
<path d="M120.816 2.90666L117.634 7.80981L122.291 10.8334L125.474 5.93029L120.816 2.90666Z" fill="#CCCCCC"/>
<path d="M132.305 12.8885L127.097 15.5433L129.619 20.4908L134.827 17.836L132.305 12.8885Z" fill="#CCCCCC"/>
<path d="M129.297 39.406L126.193 44.0103L131.039 47.2783L134.144 42.674L129.297 39.406Z" fill="#CCCCCC"/>
<path d="M84.7735 11.2348L81.9142 15.9952L86.9255 19.0051L89.7847 14.2447L84.7735 11.2348Z" fill="#CCCCCC"/>
<path d="M86.4959 38.1646L81.4101 41.0874L84.1867 45.9186L89.2724 42.9958L86.4959 38.1646Z" fill="#CCCCCC"/>
<path d="M96.929 2.08063L92.0726 4.77368L94.9076 9.88593L99.764 7.19288L96.929 2.08063Z" fill="#CCCCCC"/>
<path d="M103.626 52.5846L103.423 58.4268L108.973 58.6196L109.176 52.7774L103.626 52.5846Z" fill="#CCCCCC"/>
<path d="M120.971 48.7951L116.115 51.4882L118.95 56.6004L123.806 53.9074L120.971 48.7951Z" fill="#CCCCCC"/>
<path d="M93.5897 47.8393L90.4068 52.7424L95.0645 55.7661L98.2475 50.8629L93.5897 47.8393Z" fill="#CCCCCC"/>
<path d="M84.9375 26.1979L78.2182 25.9645L78.0457 30.9295L84.765 31.163L84.9375 26.1979Z" fill="#CCCCCC"/>
<path d="M130.924 32.756L137.643 32.9895L137.816 28.0245L131.097 27.791L130.924 32.756Z" fill="#CCCCCC"/>
<g opacity="0.5">
<path opacity="0.5" d="M18.4147 121.183C28.5849 121.183 36.8294 112.939 36.8294 102.769C36.8294 92.5984 28.5849 84.3539 18.4147 84.3539C8.24455 84.3539 0 92.5984 0 102.769C0 112.939 8.24455 121.183 18.4147 121.183Z" fill="url(#paint3_linear)"/>
</g>
<path d="M18.4506 120.678C28.4059 120.678 36.4762 112.608 36.4762 102.653C36.4762 92.6974 28.4059 84.6271 18.4506 84.6271C8.49537 84.6271 0.425049 92.6974 0.425049 102.653C0.425049 112.608 8.49537 120.678 18.4506 120.678Z" fill="#E6E6E6"/>
<path d="M18.4644 120.75C21.9866 120.756 25.4326 119.725 28.3728 117.786C27.7076 114.156 25.1795 113.949 25.1795 113.949H11.2415C11.2415 113.949 8.85683 114.145 8.11163 117.485C11.1426 119.616 14.7591 120.757 18.4644 120.75Z" fill="#CCCCCC"/>
<path d="M18.2767 110.974C23.0828 110.974 26.979 107.078 26.979 102.272C26.979 97.4657 23.0828 93.5696 18.2767 93.5696C13.4706 93.5696 9.57443 97.4657 9.57443 102.272C9.57443 107.078 13.4706 110.974 18.2767 110.974Z" fill="#CCCCCC"/>
<path opacity="0.1" d="M15.456 109.52H21.0312V114.134C21.0312 114.833 20.7538 115.502 20.26 115.996C19.7662 116.49 19.0965 116.767 18.3982 116.767H18.1001C17.7534 116.769 17.4098 116.702 17.0891 116.57C16.7683 116.438 16.4768 116.245 16.2311 116C15.9854 115.755 15.7905 115.465 15.6575 115.144C15.5245 114.824 15.456 114.481 15.456 114.134V109.52Z" fill="black"/>
<path d="M15.6354 109.313H20.8794C20.9233 109.313 20.9654 109.33 20.9965 109.361C21.0275 109.392 21.045 109.434 21.045 109.478V113.927C21.045 114.626 20.7676 115.295 20.2738 115.789C19.78 116.283 19.1103 116.56 18.412 116.56H18.1001C17.7534 116.562 17.4098 116.495 17.0891 116.363C16.7683 116.231 16.4768 116.038 16.2311 115.793C15.9854 115.548 15.7905 115.258 15.6575 114.938C15.5245 114.617 15.456 114.274 15.456 113.927V109.478C15.456 109.434 15.4734 109.392 15.5045 109.361C15.5356 109.33 15.5777 109.313 15.6216 109.313H15.6354Z" fill="#CCCCCC"/>
<path opacity="0.1" d="M15.4781 111.623C17.2748 112.294 19.2527 112.3 21.0533 111.639V110.952H15.4781V111.623Z" fill="black"/>
<path d="M18.2767 111.995C22.6896 111.995 26.2669 108.418 26.2669 104.005C26.2669 99.5922 22.6896 96.0149 18.2767 96.0149C13.8639 96.0149 10.2865 99.5922 10.2865 104.005C10.2865 108.418 13.8639 111.995 18.2767 111.995Z" fill="#CCCCCC"/>
<path opacity="0.1" d="M12.5856 96.738C12.5856 96.738 15.9528 103.575 25.4527 99.6029L23.2447 96.1336L19.3228 94.726L12.5856 96.738Z" fill="black"/>
<path d="M12.5856 96.6358C12.5856 96.6358 15.9528 103.472 25.4527 99.5007L23.2447 96.0314L19.3228 94.6238L12.5856 96.6358Z" fill="#CCCCCC"/>
<path d="M12.5497 96.175C12.7772 95.4722 13.17 94.8343 13.6951 94.3148C15.2683 92.7609 17.8351 92.4324 19.1655 90.6605C19.2375 90.786 19.2824 90.9251 19.2974 91.069C19.3123 91.2129 19.2969 91.3583 19.2522 91.4959C19.2074 91.6335 19.1344 91.7602 19.0377 91.8677C18.9409 91.9753 18.8228 92.0615 18.6907 92.1206C19.9548 92.1206 21.4259 92.0019 22.1407 90.9586C22.3175 91.3705 22.3738 91.8242 22.303 92.2669C22.2321 92.7095 22.0371 93.123 21.7405 93.4592C22.8638 93.5088 24.0617 94.2706 24.1335 95.3912C24.1831 96.1391 23.7139 96.8457 23.0985 97.2735C22.461 97.6694 21.7521 97.9366 21.0119 98.0601C18.8839 98.532 11.1697 100.503 12.5497 96.175Z" fill="#CCCCCC"/>
<path d="M10.281 105.393C10.6911 105.393 11.0235 104.769 11.0235 104C11.0235 103.23 10.6911 102.606 10.281 102.606C9.87098 102.606 9.53857 103.23 9.53857 104C9.53857 104.769 9.87098 105.393 10.281 105.393Z" fill="#CCCCCC"/>
<path d="M26.2669 105.393C26.677 105.393 27.0094 104.769 27.0094 104C27.0094 103.23 26.677 102.606 26.2669 102.606C25.8569 102.606 25.5245 103.23 25.5245 104C25.5245 104.769 25.8569 105.393 26.2669 105.393Z" fill="#CCCCCC"/>
<g opacity="0.5">
<path opacity="0.5" d="M21.3376 119.431C31.5077 119.431 39.7523 111.186 39.7523 101.016C39.7523 90.8459 31.5077 82.6013 21.3376 82.6013C11.1674 82.6013 2.92285 90.8459 2.92285 101.016C2.92285 111.186 11.1674 119.431 21.3376 119.431Z" fill="url(#paint4_linear)"/>
</g>
<path d="M21.3734 118.923C31.3287 118.923 39.399 110.853 39.399 100.897C39.399 90.9421 31.3287 82.8718 21.3734 82.8718C11.4182 82.8718 3.34787 90.9421 3.34787 100.897C3.34787 110.853 11.4182 118.923 21.3734 118.923Z" fill="#F5F5F5"/>
<path d="M21.3817 118.995C24.9039 119.001 28.3499 117.97 31.2901 116.03C30.625 112.401 28.0968 112.194 28.0968 112.194H14.1588C14.1588 112.194 11.7742 112.39 11.029 115.73C14.0599 117.861 17.6764 119.001 21.3817 118.995Z" fill="#CCCCCC"/>
<path d="M21.1996 109.219C26.0057 109.219 29.9018 105.323 29.9018 100.516C29.9018 95.7104 26.0057 91.8142 21.1996 91.8142C16.3934 91.8142 12.4973 95.7104 12.4973 100.516C12.4973 105.323 16.3934 109.219 21.1996 109.219Z" fill="#CCCCCC"/>
<path opacity="0.1" d="M18.3899 107.764H23.9651V112.379C23.9651 113.077 23.6877 113.747 23.1939 114.241C22.7001 114.735 22.0304 115.012 21.3321 115.012H21.0229C20.3246 115.012 19.6549 114.735 19.1611 114.241C18.6673 113.747 18.3899 113.077 18.3899 112.379V107.764Z" fill="black"/>
<path d="M18.5582 107.557H23.8022C23.8462 107.557 23.8883 107.575 23.9193 107.606C23.9504 107.637 23.9678 107.679 23.9678 107.723V112.172C23.9693 112.519 23.9023 112.862 23.7706 113.183C23.6389 113.504 23.4452 113.795 23.2006 114.041C22.9559 114.287 22.6652 114.481 22.345 114.614C22.0248 114.747 21.6815 114.816 21.3348 114.816H21.0229C20.3246 114.816 19.6549 114.539 19.1611 114.045C18.6673 113.551 18.3899 112.881 18.3899 112.183V107.726C18.3895 107.703 18.3936 107.681 18.4019 107.661C18.4103 107.64 18.4227 107.621 18.4384 107.606C18.4541 107.59 18.4728 107.578 18.4934 107.569C18.514 107.561 18.536 107.557 18.5582 107.557Z" fill="#CCCCCC"/>
<path opacity="0.1" d="M18.4009 109.87C20.1976 110.542 22.1755 110.548 23.9761 109.887V109.202H18.4009V109.87Z" fill="black"/>
<path d="M21.1995 110.243C25.6124 110.243 29.1898 106.665 29.1898 102.253C29.1898 97.8397 25.6124 94.2623 21.1995 94.2623C16.7867 94.2623 13.2094 97.8397 13.2094 102.253C13.2094 106.665 16.7867 110.243 21.1995 110.243Z" fill="#CCCCCC"/>
<path opacity="0.1" d="M15.5085 94.9826C15.5085 94.9826 18.8757 101.819 28.3756 97.8475L26.1676 94.3782L22.2456 92.9706L15.5085 94.9826Z" fill="black"/>
<path d="M15.5085 94.8833C15.5085 94.8833 18.8757 101.72 28.3756 97.7481L26.1676 94.2788L22.2456 92.8712L15.5085 94.8833Z" fill="#CCCCCC"/>
<path d="M15.4781 94.4223C15.7056 93.7195 16.0984 93.0816 16.6235 92.5621C18.1967 91.0082 20.7635 90.6798 22.0938 88.9078C22.1658 89.0333 22.2108 89.1724 22.2257 89.3163C22.2406 89.4602 22.2253 89.6057 22.1805 89.7432C22.1358 89.8808 22.0627 90.0075 21.966 90.1151C21.8693 90.2227 21.7511 90.3088 21.6191 90.3679C22.8832 90.3679 24.3542 90.2492 25.0691 89.2059C25.2459 89.6179 25.3022 90.0715 25.2313 90.5142C25.1605 90.9568 24.9654 91.3703 24.6689 91.7065C25.7922 91.7562 26.9901 92.5179 27.0618 93.6385C27.1115 94.3864 26.6423 95.093 26.0268 95.5208C25.3893 95.9167 24.6805 96.184 23.9403 96.3074C21.8068 96.7794 14.0843 98.75 15.4781 94.4223Z" fill="#CCCCCC"/>
<path d="M13.2038 103.638C13.6139 103.638 13.9463 103.014 13.9463 102.244C13.9463 101.474 13.6139 100.85 13.2038 100.85C12.7938 100.85 12.4614 101.474 12.4614 102.244C12.4614 103.014 12.7938 103.638 13.2038 103.638Z" fill="#CCCCCC"/>
<path d="M29.1898 103.638C29.5998 103.638 29.9322 103.014 29.9322 102.244C29.9322 101.474 29.5998 100.85 29.1898 100.85C28.7797 100.85 28.4473 101.474 28.4473 102.244C28.4473 103.014 28.7797 103.638 29.1898 103.638Z" fill="#CCCCCC"/>
<path d="M89.8297 38.1266V39.0098L87.3457 38.789V44.309L80.8459 53.8337L80.4457 53.5991L79.5625 54.7031L87.9612 60.0079V58.0179L87.4892 57.7419C88.0771 55.5477 90.4838 46.7985 91.8583 45.6421C91.8583 45.6421 94.3423 43.8729 95.6837 41.4413C97.025 39.0098 96.3516 30.6111 89.8297 38.1266Z" fill="url(#paint5_linear)"/>
<path d="M76.6783 58.9756C76.6783 58.9756 67.6752 57.074 62.7348 55.0702C60.4293 54.1291 57.9757 53.603 55.487 53.5163L50.0857 53.3397L47.3947 51.7251L48.2227 49.553C48.3055 49.5171 48.3883 49.4785 48.4711 49.4315L48.5484 48.9651C48.9799 48.8585 49.4055 48.7296 49.8235 48.5787C49.7621 49.1048 49.8266 49.638 50.0119 50.1342C50.1971 50.6304 50.4977 51.0754 50.8889 51.4325C51.1987 51.7772 51.5781 52.0523 52.002 52.2397C52.4258 52.4271 52.8846 52.5227 53.348 52.52C53.8072 52.5216 54.2617 52.4277 54.6826 52.2443C55.1036 52.0608 55.4818 51.7919 55.7932 51.4545C56.1047 51.1171 56.3426 50.7186 56.4918 50.2843C56.641 49.8501 56.6983 49.3896 56.66 48.932L56.2736 44.0578L56.0777 44.1599L56.0528 43.8343L55.9811 43.8729C57.4758 41.7541 58.2963 39.2336 58.3352 36.6409C58.3741 34.0482 57.6296 31.5042 56.1991 29.3415L56.4089 29.1483V23.7801C56.3371 23.7111 56.2626 23.6476 56.1881 23.5841V23.5593C51.7334 19.4193 45.6118 19.745 41.1847 20.7993C39.5438 21.1878 38.0642 22.0768 36.9507 23.3431C35.8371 24.6094 35.1447 26.1905 34.9692 27.8677C29.06 29.4795 31.0334 32.579 30.9396 33.7768C30.4814 39.6142 32.361 43.0477 34.4034 45.0349C35.2523 45.9091 36.2446 46.6316 37.3373 47.1711L36.0428 49.7572L35.6647 49.7434L34.6297 52.8291H34.58L21.7598 61.5121L12.903 71.2825C12.5184 71.707 12.2698 72.2372 12.1895 72.8044C12.1092 73.3716 12.2008 73.9499 12.4525 74.4645C12.7042 74.9792 13.1044 75.4065 13.6014 75.6914C14.0984 75.9763 14.6694 76.1057 15.2407 76.0628L24.3018 75.3783C24.3018 75.3783 30.7105 87.9197 28.7178 100.461C28.0499 104.676 28.3286 107.254 28.9938 108.824C28.809 110.522 28.3426 112.178 27.6138 113.723C25.1822 118.807 25.1822 124.112 28.2762 130.3L29.1594 162.349C29.1594 162.349 30.2634 177.38 29.1594 180.474C28.0554 183.568 29.601 198.378 29.601 198.378H29.3857V206.558L45.9457 207C45.9457 207 49.8097 205.167 50.5025 203.782L58.8266 206.34C58.8266 206.34 67.9843 204.762 62.6272 202.581C58.6279 200.953 57.6343 198.632 57.3832 197.555L70.4738 159.917C70.4738 159.917 68.0423 127.868 59.202 116.814L58.305 110.298H58.4292L60.3088 72.2429L60.4633 72.265L60.4192 72.2788C66.665 73.2227 71.6827 72.7232 75.0085 72.0525C76.4519 71.795 77.867 71.3985 79.2341 70.8685L79.4825 70.7691H79.5128H79.5349C80.5605 70.3495 81.5272 69.7984 82.4108 69.1297L87.9308 60.6868L79.5322 54.8908L76.6783 58.9756ZM41.9768 188.42L46.1776 159.023V144.003L53.693 159.696L45.6062 193.705L45.1812 193.586L43.3154 200.285C42.7059 199.781 42.2435 199.122 41.9768 198.378V188.42Z" fill="url(#paint6_linear)"/>
<path d="M23.4738 63.756C23.4738 63.756 11.0014 66.6899 13.2038 84.663C13.2038 84.663 17.7164 83.0677 19.2924 82.8855C20.7883 82.7117 25.3092 83.1974 25.3092 83.1974L27.4537 75.072L23.4738 63.756Z" fill="#535461"/>
<path d="M85.9657 42.1673V47.4444L79.6812 56.6518L85.9657 60.7393C85.9657 60.7393 88.7589 49.9753 90.2631 48.7085C90.2631 48.7085 92.6284 47.0194 93.9173 44.6982C95.2062 42.3771 94.5631 34.3565 88.3283 41.5325V42.3771L85.9657 42.1673Z" fill="#FDA57D"/>
<path d="M35.9352 54.7501L38.4192 49.7821C38.4923 49.6361 38.6029 49.5122 38.7397 49.423C38.8764 49.3337 39.0344 49.2824 39.1975 49.2743L48.6478 48.7913C48.8014 48.7833 48.9546 48.8138 49.0934 48.8801C49.2322 48.9464 49.3522 49.0464 49.4424 49.1709C49.5327 49.2955 49.5904 49.4407 49.6102 49.5932C49.63 49.7458 49.6113 49.9009 49.5558 50.0443L47.1187 56.3454C47.0465 56.5318 46.9156 56.6897 46.7459 56.7952C46.5761 56.9007 46.3767 56.9482 46.1776 56.9305L36.6776 56.086C36.5273 56.073 36.3825 56.0233 36.2558 55.9412C36.1292 55.8592 36.0247 55.7473 35.9514 55.6154C35.878 55.4835 35.8382 55.3356 35.8354 55.1848C35.8326 55.0339 35.8669 54.8847 35.9352 54.7501Z" fill="#FDA57D"/>
<path d="M36.6362 52.6139L35.0327 57.3225L51.5154 56.7318L45.184 52.9313L36.6362 52.6139Z" fill="#EDEEF9"/>
<path d="M78.5303 57.3639L79.3748 56.3096L86.5481 60.5296V62.4285L78.5303 57.3639Z" fill="#EDEEF9"/>
<path d="M30.0453 104.052C30.0453 104.052 31.2515 108.857 28.9413 113.712C26.6312 118.567 26.6202 123.631 29.5734 129.541L30.4179 160.143C30.4179 160.143 31.4723 174.495 30.4179 177.449C29.3636 180.402 30.8402 194.544 30.8402 194.544H42.6585V185.05L46.6688 156.981V142.629L53.8448 157.613L45.6062 192.226L56.3702 196.658L69.8777 157.825C69.8777 157.825 67.5565 127.222 59.1137 116.671L57.5377 105.156L30.0453 104.052Z" fill="#4D8AF0"/>
<path d="M30.6222 202.358V194.547H42.653C42.653 194.547 43.4976 197.713 48.9845 198.345C54.4714 198.977 46.4508 202.777 46.4508 202.777L30.6222 202.358Z" fill="#333333"/>
<path d="M43.6135 197.495L45.7084 189.971L57.3004 193.197C57.3004 193.197 57.2645 196.473 62.3815 198.554C67.4986 200.635 58.7521 202.142 58.7521 202.142L43.6135 197.495Z" fill="#333333"/>
<path opacity="0.1" d="M57.5377 105.799L30.0536 104.695C30.3932 106.333 30.4632 108.016 30.2606 109.677C31.5192 112.636 34.2157 111.824 34.2157 111.824L58.2636 111.084L57.5377 105.799Z" fill="black"/>
<path d="M35.5819 55.5698L23.3413 63.8498L25.7674 77.0978C25.7674 77.0978 31.889 89.0735 29.9874 101.049C28.0857 113.025 34.2074 111.181 34.2074 111.181L58.3657 110.444L60.1597 74.1087C60.1597 74.1087 74.7297 76.176 81.2737 71.1141L86.5508 63.0549L78.5303 57.5349L75.7868 61.4486C75.7868 61.4486 67.1977 59.616 62.4726 57.7116C60.2715 56.8136 57.929 56.3118 55.5533 56.2295L35.5819 55.5698Z" fill="#535461"/>
<path opacity="0.1" d="M35.7917 114.032C35.7917 114.032 34.3151 121.418 42.7552 133.661L35.7917 114.032Z" fill="black"/>
<path opacity="0.1" d="M60.2729 74.1418C60.2729 74.1418 70.4021 70.7664 74.8347 70.7664C79.2672 70.7664 78.5275 72.6818 78.5275 72.6818C78.5275 72.6818 71.4592 75.831 60.2729 74.1418Z" fill="black"/>
<path opacity="0.1" d="M48.7858 49.2081L44.7562 49.68C44.6292 49.6966 44.5133 49.8567 44.4443 50.1051C45.3302 51.7031 46.4398 52.6581 47.6431 52.6581C48.0732 52.6527 48.4945 52.5357 48.8658 52.3186L49.1749 50.4528C49.277 49.8373 49.0728 49.1722 48.7858 49.2081Z" fill="black"/>
<path d="M45.9733 52.2441C52.7717 52.2441 58.2829 46.7329 58.2829 39.9345C58.2829 33.1361 52.7717 27.6249 45.9733 27.6249C39.1749 27.6249 33.6637 33.1361 33.6637 39.9345C33.6637 46.7329 39.1749 52.2441 45.9733 52.2441Z" fill="#FDA57D"/>
<path opacity="0.1" d="M56.4337 27.8346V32.9627L55.8127 33.5312C55.5487 33.7728 55.3499 34.077 55.2346 34.4158C55.1193 34.7546 55.0913 35.1169 55.1532 35.4694C55.2152 35.8218 55.3649 36.153 55.5888 36.4322C55.8126 36.7114 56.1032 36.9297 56.4337 37.0668C56.4337 37.0668 55.407 45.2723 54.1264 48.3497L56.3068 47.196L56.6766 51.8494C56.7113 52.2859 56.6552 52.7248 56.512 53.1386C56.3688 53.5525 56.1415 53.9321 55.8444 54.2538C55.5473 54.5756 55.1869 54.8323 54.7858 55.008C54.3847 55.1836 53.9515 55.2744 53.5136 55.2745C52.9699 55.2744 52.4352 55.1346 51.961 54.8685C51.4867 54.6024 51.0888 54.219 50.8054 53.7549C50.5219 53.2908 50.3625 52.7617 50.3423 52.2182C50.3221 51.6748 50.4419 51.1353 50.6902 50.6515C51.2118 49.6358 52.1364 48.5677 52.589 47.0635C54.245 41.5435 50.933 42.5758 50.152 43.6025C49.3709 44.6292 50.2789 47.3202 50.2789 47.3202C50.2789 47.3202 52.716 51.808 39.893 50.7812C39.893 50.7812 31.4309 48.9872 32.3279 37.5746C32.419 36.432 30.5339 33.4705 36.1753 31.9332C36.3427 30.332 37.0037 28.8224 38.0668 27.6133C39.1299 26.4043 40.5426 25.5557 42.1093 25.185C46.3432 24.1942 52.1888 23.8768 56.4337 27.8346Z" fill="black"/>
<path d="M56.2322 27.6249V32.7529L55.6057 33.3215C55.3417 33.563 55.1429 33.8673 55.0276 34.2061C54.9123 34.5448 54.8843 34.9072 54.9462 35.2596C55.0082 35.6121 55.1579 35.9432 55.3818 36.2225C55.6056 36.5017 55.8962 36.7199 56.2267 36.8571C56.2267 36.8571 55.2 45.0625 53.9194 48.1399L56.0998 46.9863L56.4696 51.6396C56.5043 52.0761 56.4482 52.5151 56.305 52.9289C56.1618 53.3427 55.9345 53.7224 55.6374 54.0441C55.3403 54.3658 54.9799 54.6226 54.5788 54.7982C54.1777 54.9739 53.7445 55.0646 53.3066 55.0648C52.7628 55.0647 52.2282 54.9249 51.754 54.6588C51.2797 54.3927 50.8818 54.0092 50.5984 53.5451C50.3149 53.0811 50.1555 52.5519 50.1353 52.0085C50.1151 51.4651 50.2349 50.9256 50.4832 50.4418C51.0048 49.4261 51.9294 48.358 52.382 46.8538C54.038 41.3338 50.726 42.366 49.945 43.3927C49.1639 44.4195 50.0719 47.1105 50.0719 47.1105C50.0719 47.1105 52.509 51.5982 39.686 50.5715C39.686 50.5715 31.2239 48.7775 32.1209 37.3649C32.212 36.2223 30.3269 33.2608 35.9683 31.7235C36.1357 30.1222 36.7967 28.6126 37.8598 27.4036C38.9229 26.1946 40.3356 25.346 41.9023 24.9753C46.1334 23.9817 51.9791 23.6643 56.2322 27.6249Z" fill="#72351C"/>
</g>
<defs>
<linearGradient id="paint0_linear" x1="107.933" y1="50.1547" x2="107.933" y2="8.46492" gradientUnits="userSpaceOnUse">
<stop stop-color="#808080" stop-opacity="0.25"/>
<stop offset="0.54" stop-color="#808080" stop-opacity="0.12"/>
<stop offset="1" stop-color="#808080" stop-opacity="0.1"/>
</linearGradient>
<linearGradient id="paint1_linear" x1="29815" y1="7810.63" x2="29815" y2="1512.97" gradientUnits="userSpaceOnUse">
<stop stop-color="#808080" stop-opacity="0.25"/>
<stop offset="0.54" stop-color="#808080" stop-opacity="0.12"/>
<stop offset="1" stop-color="#808080" stop-opacity="0.1"/>
</linearGradient>
<linearGradient id="paint2_linear" x1="23103.8" y1="13011" x2="23103.8" y2="6713.29" gradientUnits="userSpaceOnUse">
<stop stop-color="#808080" stop-opacity="0.25"/>
<stop offset="0.54" stop-color="#808080" stop-opacity="0.12"/>
<stop offset="1" stop-color="#808080" stop-opacity="0.1"/>
</linearGradient>
<linearGradient id="paint3_linear" x1="2457.26" y1="16255.1" x2="2457.26" y2="11340.5" gradientUnits="userSpaceOnUse">
<stop stop-color="#808080" stop-opacity="0.25"/>
<stop offset="0.54" stop-color="#808080" stop-opacity="0.12"/>
<stop offset="1" stop-color="#808080" stop-opacity="0.1"/>
</linearGradient>
<linearGradient id="paint4_linear" x1="2850.21" y1="16019.4" x2="2850.21" y2="11104.9" gradientUnits="userSpaceOnUse">
<stop stop-color="#808080" stop-opacity="0.25"/>
<stop offset="0.54" stop-color="#808080" stop-opacity="0.12"/>
<stop offset="1" stop-color="#808080" stop-opacity="0.1"/>
</linearGradient>
<linearGradient id="paint5_linear" x1="8575.83" y1="7328.13" x2="8575.83" y2="5074.35" gradientUnits="userSpaceOnUse">
<stop stop-color="#808080" stop-opacity="0.25"/>
<stop offset="0.54" stop-color="#808080" stop-opacity="0.12"/>
<stop offset="1" stop-color="#808080" stop-opacity="0.1"/>
</linearGradient>
<linearGradient id="paint6_linear" x1="28187.8" y1="154198" x2="28187.8" y2="27654.4" gradientUnits="userSpaceOnUse">
<stop stop-color="#808080" stop-opacity="0.25"/>
<stop offset="0.54" stop-color="#808080" stop-opacity="0.12"/>
<stop offset="1" stop-color="#808080" stop-opacity="0.1"/>
</linearGradient>
<clipPath id="clip0">
<rect width="226.027" height="207" fill="white"/>
</clipPath>
</defs>
</svg>
