<svg width="198" height="169" viewBox="0 0 198 169" fill="none" xmlns="http://www.w3.org/2000/svg">
<path d="M24.75 64.6095H173.25L177.736 51.3907C179.36 46.5392 176.421 41.4767 171.084 40.0001C170.852 39.9298 170.62 39.8595 170.388 39.8595L153.141 36.2032C152.909 36.1329 152.754 35.9923 152.754 35.8517L148.809 20.1017C147.572 15.1798 142.158 12.0861 136.744 13.2111C136.512 13.2814 136.28 13.3517 136.048 13.3517L119.109 18.1329C118.877 18.2032 118.645 18.1329 118.568 17.9923L106.502 6.1798C102.713 2.45324 96.3703 2.2423 92.2711 5.68761C92.1164 5.82824 91.9617 5.96886 91.7297 6.1798L79.6641 17.9923C79.5094 18.1329 79.2774 18.2032 79.1227 18.1329L62.1844 13.3517C56.8477 11.8751 51.2789 14.547 49.6547 19.3986C49.5773 19.6095 49.5 19.8204 49.5 20.0314L45.5555 35.7814C45.4781 35.9923 45.3234 36.1329 45.1688 36.1329L27.8438 39.7189C22.4297 40.8439 19.0266 45.7657 20.2641 50.6876C20.3414 50.8985 20.4188 51.1095 20.4188 51.3204L24.75 64.6095Z" fill="#F9828B"/>
<path d="M173.327 105.391H24.75L20.264 118.609C18.6398 123.461 21.5789 128.523 26.9156 130C27.1476 130.07 27.3797 130.141 27.6117 130.141L44.9367 133.727C45.1687 133.797 45.3234 133.938 45.3234 134.078L49.268 149.828C50.5055 154.75 55.9195 157.844 61.3336 156.719C61.5656 156.648 61.7976 156.578 62.0297 156.578L78.968 151.797C79.2 151.727 79.432 151.797 79.5094 151.937L91.575 163.75C95.3648 167.477 101.707 167.687 105.806 164.242C105.961 164.102 106.193 163.961 106.348 163.75L118.413 151.937C118.568 151.797 118.8 151.727 118.955 151.797L135.893 156.578C141.23 158.055 146.798 155.383 148.423 150.531C148.5 150.32 148.577 150.109 148.577 149.898L152.522 134.148C152.599 133.937 152.754 133.797 152.909 133.797L170.234 130.211C175.648 129.086 179.051 124.164 177.813 119.242C177.736 119.031 177.659 118.82 177.659 118.609L173.327 105.391Z" fill="#F9828B"/>
<path d="M34.5727 64.2578C34.65 64.3984 34.65 64.4688 34.65 64.6094H163.35C163.35 64.4688 163.427 64.3984 163.427 64.2578L168.687 48.8594C168.764 48.5781 168.609 48.2969 168.3 48.2266C168.3 48.2266 168.3 48.2266 168.223 48.2266L150.898 44.6406C147.108 43.8672 144.169 41.1953 143.318 37.75L139.373 22C139.296 21.7188 138.987 21.5781 138.677 21.6484C138.677 21.6484 138.677 21.6484 138.6 21.6484L121.662 26.4297C117.949 27.4141 114.005 26.5 111.375 23.8984L99.3094 12.0859C99.0774 11.875 98.768 11.875 98.536 12.0859L86.4703 23.8984C83.8406 26.4297 79.8188 27.4141 76.1836 26.4297L59.2453 21.6484C58.936 21.5781 58.6266 21.7188 58.5492 22C58.5492 22 58.5492 22 58.5492 22.0703L54.6047 37.8203C53.7539 41.2656 50.8149 43.9375 47.025 44.7109L29.7 48.2969C29.3906 48.3672 29.2359 48.6484 29.3133 48.9297C29.3133 48.9297 29.3133 48.9297 29.3133 49L34.5727 64.2578Z" fill="#F45D64"/>
<path d="M163.505 105.742C163.427 105.602 163.427 105.531 163.427 105.391H34.7273C34.7273 105.531 34.65 105.602 34.65 105.742L29.3906 121.141C29.3133 121.422 29.468 121.703 29.7773 121.773C29.7773 121.773 29.7773 121.773 29.8547 121.773L47.1797 125.359C50.9695 126.133 53.9086 128.805 54.7594 132.25L58.7039 148C58.7812 148.281 59.0906 148.422 59.4 148.352C59.4 148.352 59.4 148.352 59.4773 148.352L76.4156 143.57C80.1281 142.516 84.0727 143.5 86.7023 146.102L98.768 157.914C99 158.125 99.3094 158.125 99.5414 157.914L111.607 146.102C114.237 143.57 118.259 142.586 121.894 143.57L138.832 148.352C139.141 148.422 139.451 148.281 139.528 148C139.528 148 139.528 148 139.528 147.93L143.473 132.18C144.323 128.734 147.262 126.063 151.052 125.289L168.377 121.703C168.687 121.633 168.841 121.352 168.764 121.07C168.764 121.07 168.764 121.07 168.764 121L163.505 105.742Z" fill="#F45D64"/>
<path d="M6.18749 64.6094H191.89C194.21 64.6094 196.066 66.2969 196.066 68.4063V101.523C196.066 103.633 194.21 105.32 191.89 105.32H6.18749C3.86718 105.32 2.01093 103.633 2.01093 101.523V68.4063C2.01093 66.2969 3.86718 64.6094 6.18749 64.6094Z" fill="#FCD770"/>
<path d="M6.1875 64.6094L21.6562 55.3984L24.75 64.6094H6.1875Z" fill="#FFCD29"/>
<path d="M191.89 64.6094L176.421 55.3984L173.327 64.6094H191.89Z" fill="#FFCD29"/>
<path d="M28.1531 141.883H26.7609V140.617C26.7609 139.633 25.9102 138.859 24.8273 138.859C23.7445 138.859 22.8937 139.633 22.8937 140.617V141.883H21.5016C20.4187 141.883 19.568 142.656 19.568 143.641C19.568 144.625 20.4187 145.398 21.5016 145.398H22.8937V146.664C22.8937 147.648 23.7445 148.422 24.8273 148.422C25.9102 148.422 26.7609 147.648 26.7609 146.664V145.398H28.1531C29.2359 145.398 30.0867 144.625 30.0867 143.641C30.0867 142.656 29.2359 141.883 28.1531 141.883Z" fill="#60BAE2"/>
<path d="M170.62 23.4766C170.62 23.3359 170.543 23.2656 170.543 23.125C170.466 23.0547 170.466 22.9141 170.388 22.8437C170.311 22.7734 170.234 22.6328 170.156 22.5625C169.383 21.9297 168.223 21.9297 167.449 22.5625C167.372 22.6328 167.295 22.7031 167.217 22.8437C167.062 23.0547 166.985 23.2656 166.908 23.4766C166.83 23.6875 166.83 23.9687 166.908 24.1797C166.908 24.3203 166.985 24.3906 166.985 24.5312C167.062 24.6719 167.062 24.7422 167.14 24.8125C167.217 24.8828 167.295 25.0234 167.372 25.0937C168.145 25.7969 169.305 25.7969 170.079 25.0937C170.156 25.0234 170.234 24.9531 170.311 24.8125C170.388 24.7422 170.466 24.6016 170.466 24.5312C170.543 24.4609 170.543 24.3203 170.543 24.1797C170.698 23.8984 170.698 23.6875 170.62 23.4766Z" fill="#F45D64"/>
<path d="M39.2133 155.945C39.2133 155.805 39.1359 155.734 39.1359 155.594C39.0586 155.523 39.0586 155.383 38.9812 155.312C38.9039 155.242 38.8265 155.102 38.7492 155.031C37.9758 154.398 36.8156 154.398 36.0422 155.031C35.9648 155.102 35.8875 155.172 35.8101 155.312C35.6554 155.523 35.5781 155.734 35.5008 155.945C35.4234 156.156 35.4234 156.437 35.5008 156.648C35.5008 156.789 35.5781 156.859 35.5781 157C35.6554 157.141 35.6554 157.211 35.7328 157.281C35.8101 157.352 35.8875 157.492 35.9648 157.562C36.7383 158.266 37.8984 158.266 38.6718 157.562C38.7492 157.492 38.8265 157.422 38.9039 157.281C38.9812 157.211 39.0586 157.07 39.0586 157C39.1359 156.93 39.1359 156.789 39.1359 156.648C39.2906 156.437 39.2906 156.227 39.2133 155.945Z" fill="#6DCC6D"/>
<path d="M166.134 6.74219C162.963 6.17969 160.566 3.92969 159.947 1.11719C159.947 1.04687 159.87 0.976562 159.792 0.976562C159.715 0.976562 159.715 1.04687 159.637 1.11719C159.019 4 156.544 6.17969 153.45 6.74219C153.373 6.74219 153.295 6.8125 153.295 6.88281C153.295 6.95312 153.373 6.95312 153.45 7.02344C156.621 7.58594 159.019 9.83594 159.637 12.6484C159.637 12.7187 159.715 12.7891 159.792 12.7891C159.87 12.7891 159.869 12.7187 159.947 12.6484C160.566 9.76562 163.041 7.58594 166.134 7.02344C166.212 7.02344 166.289 6.95312 166.289 6.88281C166.289 6.74219 166.212 6.74219 166.134 6.74219Z" fill="#FFCD29"/>
<path d="M191.89 107.148H6.18749C2.78436 107.148 0.0773315 104.688 0.0773315 101.594V68.4766C0.0773315 65.3828 2.78436 62.9219 6.18749 62.9219H191.89C195.293 62.9219 198 65.3828 198 68.4766V101.594C198 104.617 195.293 107.148 191.89 107.148ZM6.18749 66.3672C4.94999 66.3672 3.94452 67.2813 3.94452 68.4063V101.523C3.94452 102.648 4.94999 103.563 6.18749 103.563H191.89C193.127 103.563 194.133 102.648 194.133 101.523V68.4063C194.133 67.2813 193.127 66.3672 191.89 66.3672H6.18749Z" fill="#231F20"/>
<path d="M173.327 66.3674H24.75C23.8992 66.3674 23.1258 65.8752 22.8937 65.1018L18.4078 51.8831C16.4742 46.1174 20.032 40.0002 26.3742 38.2424C26.6836 38.1721 26.9156 38.1018 27.225 38.0315L43.6992 34.6565L47.4117 19.6799C48.8812 13.844 55.3008 10.1174 61.7977 11.4534C62.107 11.5237 62.3391 11.594 62.6484 11.6643L78.7359 16.1643L90.2602 4.91431C94.7461 0.484618 102.326 0.273681 107.198 4.35181C107.43 4.56274 107.585 4.70337 107.817 4.91431L119.341 16.1643L135.506 11.6643C141.848 9.90649 148.577 13.1409 150.511 18.9065C150.588 19.1877 150.666 19.3987 150.743 19.6799L154.455 34.6565L170.93 38.0315C177.349 39.3674 181.448 45.2034 179.979 51.1096C179.902 51.3909 179.824 51.6018 179.747 51.8831L175.261 65.1018C174.874 65.8752 174.178 66.3674 173.327 66.3674ZM26.2195 62.8518H171.858L175.957 50.8284C177.272 46.9612 174.874 42.8127 170.543 41.6174C170.388 41.5471 170.156 41.5471 170.002 41.4768L152.677 37.8909C151.748 37.6799 151.052 37.0471 150.82 36.2034L146.876 20.4534C145.87 16.4456 141.539 13.9846 137.13 14.8987C136.898 14.969 136.744 14.969 136.589 15.0393L119.651 19.8206C118.723 20.1018 117.717 19.8206 117.098 19.1877L105.033 7.37524C101.939 4.42212 96.8344 4.21118 93.5859 7.02368C93.4313 7.16431 93.2766 7.23462 93.1992 7.37524L81.1336 19.1877C80.5148 19.8206 79.5094 20.0315 78.5812 19.8206L61.643 15.0393C57.3891 13.844 52.8258 16.0237 51.5109 19.9612C51.4336 20.1018 51.4336 20.3127 51.3563 20.4534L47.4117 36.2034C47.1797 37.0471 46.4836 37.6799 45.5555 37.8909L28.2305 41.4768C23.8219 42.3909 21.1148 46.3284 22.1203 50.3362C22.1977 50.5471 22.1977 50.6877 22.275 50.8284L26.2195 62.8518Z" fill="#231F20"/>
<path d="M99.0774 168.461C95.7516 168.461 92.5805 167.195 90.3375 165.016L78.8133 153.766L62.6484 158.266C56.3063 160.023 49.5773 156.789 47.6438 151.023C47.5664 150.742 47.4891 150.531 47.4117 150.25L43.6992 135.273L27.225 131.898C20.8055 130.562 16.7063 124.727 18.1758 118.82C18.2531 118.539 18.3305 118.328 18.4078 118.047L22.8938 104.828C23.1258 104.125 23.8992 103.562 24.75 103.562H173.25C174.101 103.562 174.874 104.055 175.106 104.828L179.592 118.047C181.526 123.812 177.968 129.93 171.626 131.687C171.316 131.758 171.084 131.828 170.775 131.898L154.301 135.273L150.588 150.25C149.119 156.086 142.699 159.812 136.202 158.477C135.893 158.406 135.661 158.336 135.352 158.266L119.187 153.766L107.663 165.016C105.574 167.195 102.403 168.461 99.0774 168.461ZM79.2 150.039C79.8961 150.039 80.5922 150.32 81.0563 150.742L93.1219 162.555C94.6688 164.031 96.8344 164.945 99.0774 164.875C101.32 164.875 103.486 164.031 105.033 162.555L117.098 150.742C117.717 150.109 118.723 149.898 119.651 150.109L136.589 154.891C140.843 156.086 145.406 153.906 146.721 149.969C146.798 149.828 146.798 149.617 146.876 149.477L150.82 133.727C151.052 132.883 151.748 132.25 152.677 132.039L170.002 128.453C174.41 127.539 177.117 123.602 176.112 119.594C176.034 119.383 176.034 119.242 175.957 119.102L171.858 107.148H26.2195L22.1203 119.102C20.8055 122.969 23.2031 127.117 27.5344 128.313C27.6891 128.383 27.9211 128.383 28.0758 128.453L45.4008 132.039C46.3289 132.25 47.025 132.883 47.257 133.727L51.2016 149.477C52.207 153.484 56.5383 155.945 60.9469 155.031C61.1016 154.961 61.3336 154.961 61.4883 154.891L78.4266 150.109C78.7359 150.109 78.968 150.039 79.2 150.039Z" fill="#231F20"/>
<path d="M163.35 66.3672H34.7273C33.8766 66.3672 33.1031 65.8047 32.8711 65.0312V64.8906C32.8711 64.8203 32.8711 64.75 32.7937 64.6797L27.5344 49.2812C27.1477 48.0859 27.8437 46.8203 29.1586 46.4687C29.2359 46.4687 29.3133 46.4688 29.3133 46.3984L46.6383 42.8125C49.6547 42.1797 52.0523 40 52.7484 37.2578L56.693 21.5078C57.0023 20.3125 58.3172 19.5391 59.632 19.8203C59.7094 19.8203 59.7867 19.8203 59.7867 19.8906L76.725 24.6719C79.6641 25.5156 82.9125 24.7422 85.0781 22.6328L97.1438 10.8203C97.6078 10.3281 98.3039 10.1172 99 10.1172C99.6961 10.1172 100.315 10.3984 100.856 10.8203L112.922 22.7031C115.01 24.7422 118.259 25.5859 121.275 24.7422L138.213 19.9609C139.528 19.6094 140.92 20.2422 141.307 21.4375C141.307 21.5078 141.307 21.5781 141.384 21.5781L145.329 37.3281C146.025 40.0703 148.423 42.25 151.439 42.8828L168.764 46.4687C170.079 46.75 170.93 47.9453 170.62 49.1406C170.62 49.2109 170.62 49.2812 170.543 49.2812L165.284 64.6797C165.284 64.75 165.284 64.8203 165.206 64.8906V65.0312C165.052 65.875 164.278 66.3672 163.35 66.3672ZM36.1195 62.8516H161.88L166.366 49.6328L150.588 46.3281C146.102 45.4141 142.622 42.1797 141.539 38.1016L137.904 23.6875L122.358 28.0469C117.949 29.2422 113.154 28.1172 110.06 25.0234L99 14.1953L87.9398 25.0234C84.7688 28.0469 80.0508 29.2422 75.6422 28.0469L60.0961 23.6875L56.4609 38.1016C55.4555 42.1797 51.8977 45.3438 47.4117 46.3281L31.5562 49.6328L36.1195 62.8516Z" fill="#231F20"/>
<path d="M99.0773 159.812C98.3812 159.812 97.7625 159.531 97.2211 159.109L85.1554 147.297C83.0672 145.258 79.8187 144.414 76.8023 145.258L59.864 150.039C58.5492 150.391 57.157 149.758 56.7703 148.562C56.7703 148.492 56.7703 148.422 56.6929 148.422L52.7484 132.672C52.0523 129.93 49.6547 127.75 46.6383 127.117L29.3133 123.531C27.9984 123.25 27.1476 122.055 27.457 120.859C27.457 120.789 27.457 120.719 27.5343 120.719L32.7937 105.32C32.7937 105.25 32.7937 105.18 32.8711 105.18V105.039C33.1031 104.266 33.8765 103.703 34.7273 103.703H163.427C164.278 103.703 165.052 104.266 165.284 105.039V105.18C165.284 105.25 165.284 105.32 165.361 105.32L170.62 120.719C171.007 121.914 170.311 123.18 168.996 123.531C168.919 123.531 168.841 123.531 168.841 123.602L151.516 127.187C148.5 127.82 146.102 130 145.406 132.742L141.462 148.492C141.152 149.687 139.837 150.461 138.523 150.18C138.445 150.18 138.368 150.18 138.368 150.109L121.43 145.328C118.491 144.484 115.242 145.258 113.077 147.367L101.011 159.18C100.392 159.602 99.7734 159.812 99.0773 159.812ZM79.2 141.461C82.5258 141.461 85.6969 142.727 88.0172 144.906L99.0773 155.734L110.137 144.906C113.309 141.883 118.027 140.687 122.435 141.883L137.981 146.242L141.616 131.828C142.622 127.75 146.18 124.586 150.666 123.602L166.521 120.297L162.035 107.078H36.1195L31.6336 120.297L47.489 123.602C51.975 124.516 55.4554 127.75 56.5383 131.828L60.1734 146.242L75.7195 141.883C76.8023 141.602 77.9625 141.461 79.2 141.461Z" fill="#231F20"/>
<path d="M24.75 66.3671H6.1875C5.10469 66.3671 4.25391 65.5937 4.25391 64.6093C4.25391 64.0468 4.56328 63.4843 5.10469 63.1328L20.5734 53.9218C21.5016 53.3593 22.6617 53.6406 23.2805 54.414C23.3578 54.5546 23.4352 54.6953 23.5125 54.8359L26.6063 64.0468C26.9156 64.9609 26.3742 65.9453 25.2914 66.2265C25.1367 66.3671 24.982 66.3671 24.75 66.3671ZM12.6844 62.8515H22.1977L20.5734 58.1406L12.6844 62.8515Z" fill="#231F20"/>
<path d="M191.89 66.3672H173.327C172.245 66.3672 171.394 65.5938 171.394 64.6094C171.394 64.4688 171.394 64.2578 171.471 64.1172L174.565 54.9063C174.874 53.9922 175.957 53.4297 176.962 53.711C177.117 53.7813 177.272 53.8516 177.427 53.9219L192.895 63.1328C193.823 63.6953 194.055 64.75 193.437 65.5938C193.127 66.086 192.509 66.3672 191.89 66.3672ZM175.957 62.8516H185.47L177.581 58.1407L175.957 62.8516Z" fill="#231F20"/>
<path d="M101.939 137.383H92.7351C91.6523 137.383 90.8015 136.609 90.8015 135.625C90.8015 134.641 91.6523 133.867 92.7351 133.867H101.939C103.718 133.867 105.187 132.531 105.187 130.914C105.187 129.297 103.718 127.961 101.939 127.961H96.2156C92.2711 127.961 89.1 125.078 89.1 121.492C89.1 117.906 92.2711 115.023 96.2156 115.023H104.337C105.419 115.023 106.27 115.797 106.27 116.781C106.27 117.766 105.419 118.539 104.337 118.539H96.2156C94.4367 118.539 92.9672 119.875 92.9672 121.492C92.9672 123.109 94.4367 124.445 96.2156 124.445H101.939C105.884 124.445 109.055 127.328 109.055 130.914C109.055 134.5 105.884 137.383 101.939 137.383Z" fill="#231F20"/>
<path d="M99.0773 140.617C97.9945 140.617 97.1437 139.844 97.1437 138.859V113.547C97.1437 112.562 97.9945 111.789 99.0773 111.789C100.16 111.789 101.011 112.562 101.011 113.547V138.859C101.011 139.773 100.083 140.617 99.0773 140.617Z" fill="#231F20"/>
<path d="M127.849 131.055H121.275C120.192 131.055 119.341 130.281 119.341 129.297C119.341 128.313 120.192 127.539 121.275 127.539H127.849C128.855 127.539 129.628 126.836 129.628 125.992C129.628 125.078 128.855 124.375 127.927 124.375H127.849H123.75C120.656 124.375 118.104 122.055 118.104 119.242C118.104 116.43 120.656 114.109 123.75 114.109H129.551C130.634 114.109 131.484 114.883 131.484 115.867C131.484 116.852 130.634 117.625 129.551 117.625H123.75C122.745 117.625 121.971 118.328 121.971 119.242C121.971 120.156 122.745 120.859 123.75 120.859H127.849C130.943 120.859 133.495 123.109 133.573 125.922C133.65 128.734 131.098 131.055 128.004 131.125C127.927 131.055 127.927 131.055 127.849 131.055Z" fill="#231F20"/>
<path d="M125.761 133.375C124.678 133.375 123.827 132.602 123.827 131.617V113.547C123.827 112.563 124.678 111.789 125.761 111.789C126.844 111.789 127.695 112.563 127.695 113.547V131.617C127.695 132.602 126.844 133.375 125.761 133.375Z" fill="#231F20"/>
<path d="M74.3273 131.055H67.7531C66.6703 131.055 65.8195 130.281 65.8195 129.297C65.8195 128.313 66.6703 127.539 67.7531 127.539H74.3273C75.3328 127.539 76.1063 126.766 76.0289 125.922C76.0289 125.078 75.2555 124.375 74.3273 124.375H70.2281C67.1344 124.375 64.582 122.055 64.582 119.242C64.582 116.43 67.1344 114.109 70.2281 114.109H76.0289C77.1117 114.109 77.9625 114.883 77.9625 115.867C77.9625 116.852 77.1117 117.625 76.0289 117.625H70.2281C69.2227 117.625 68.4492 118.328 68.4492 119.242C68.4492 120.156 69.2227 120.859 70.2281 120.859H74.3273C77.4211 120.859 79.9734 123.25 79.8961 126.063C79.8961 128.805 77.4211 131.055 74.3273 131.055Z" fill="#231F20"/>
<path d="M72.3164 133.375C71.2336 133.375 70.3828 132.602 70.3828 131.617V113.547C70.3828 112.563 71.2336 111.789 72.3164 111.789C73.3992 111.789 74.25 112.563 74.25 113.547V131.617C74.25 132.602 73.3219 133.375 72.3164 133.375Z" fill="#231F20"/>
<path d="M69.6094 41.3359L68.1398 42.0391C67.2891 42.4609 66.2063 42.1797 65.7422 41.4062C65.6648 41.2656 65.5875 41.125 65.5875 40.9844C65.4328 40.2813 65.8195 39.5781 66.5156 39.2969L69.8414 37.75C70.0734 37.6094 70.3828 37.5391 70.6149 37.5391H72.007C72.9352 37.5391 73.7859 38.2422 73.7859 39.1562V54.2734C73.7859 55.3281 72.8578 56.1719 71.6977 56.1719C70.5375 56.1719 69.6094 55.3281 69.6094 54.2734V41.3359Z" fill="black"/>
<path d="M93.4312 46.6797C93.4312 52.4453 91.1109 56.3828 86.393 56.3828C81.5976 56.3828 79.5094 52.0234 79.5094 46.75C79.5094 41.3359 81.7523 37.1172 86.5476 37.1172C91.4976 37.1172 93.4312 41.6172 93.4312 46.6797ZM83.918 46.8203C83.918 51.1094 84.9234 53.1484 86.625 53.1484C88.3265 53.1484 89.1773 51.0391 89.1773 46.75C89.1773 42.6016 88.3265 40.4219 86.5476 40.4219C84.9234 40.4219 83.8406 42.4609 83.918 46.8203Z" fill="black"/>
<path d="M109.209 46.6797C109.209 52.4453 106.889 56.3828 102.171 56.3828C97.3758 56.3828 95.2875 52.0234 95.2875 46.75C95.2875 41.3359 97.5304 37.1172 102.326 37.1172C107.276 37.1172 109.209 41.6172 109.209 46.6797ZM99.6187 46.8203C99.6187 51.1094 100.624 53.1484 102.326 53.1484C104.027 53.1484 104.878 51.0391 104.878 46.75C104.878 42.6016 104.027 40.4219 102.248 40.4219C100.702 40.4219 99.6187 42.4609 99.6187 46.8203Z" fill="black"/>
<path d="M115.938 48.6483C109.132 48.6483 109.287 37.1873 116.093 37.1873C123.054 37.117 122.512 48.6483 115.938 48.6483ZM116.016 46.2576C117.253 46.2576 117.872 44.992 117.872 42.8826C117.872 40.9842 117.33 39.5076 116.016 39.5076C113.463 39.5076 113.463 46.2576 116.016 46.2576ZM129.241 56.3826C122.435 56.3826 122.512 44.9217 129.396 44.9217C136.28 44.9217 135.816 56.3826 129.241 56.3826ZM127.462 50.617C127.462 52.5858 128.081 53.992 129.319 53.992C130.556 53.992 131.175 52.7264 131.175 50.617C131.175 48.7186 130.711 47.242 129.319 47.242C128.004 47.242 127.462 48.7889 127.462 50.617Z" fill="black"/>
<path d="M31.7109 75.3672C30.2414 75.3672 28.9265 76.2812 28.5398 77.5469L27.225 81.7656C26.6062 83.9453 25.9101 86.4766 25.4461 88.7266H25.3687C24.9047 86.4766 24.3633 84.0859 23.7445 81.8359L22.507 77.6875C22.1203 76.3516 20.8055 75.4375 19.2586 75.4375C17.4797 75.4375 16.0101 76.7031 15.9328 78.3203L15.0047 92.875C14.9273 93.8594 15.7781 94.7031 16.8609 94.7734H16.9383C18.0211 94.7734 18.8719 94 18.9492 93.0156L19.1812 87.3906C19.3359 85 19.4133 81.9766 19.4906 79.375H19.568C20.032 81.9062 20.6508 84.6484 21.2695 86.8984L22.8937 92.875C23.1258 93.7891 24.0539 94.3516 25.0594 94.3516C26.0648 94.3516 26.9156 93.7891 27.1476 92.875L29.0039 86.7578C29.7773 84.5078 30.5508 81.7656 31.1695 79.3047H31.2469C31.2469 82.1172 31.3242 84.9297 31.4015 87.25L31.6336 92.8047C31.7109 93.8594 32.5617 94.6328 33.7219 94.6328C34.882 94.6328 35.8101 93.7891 35.8101 92.7344V92.6641L35.0367 78.1797C34.9594 76.6328 33.4898 75.3672 31.7109 75.3672Z" fill="black"/>
<path d="M47.7211 75.0859C42.075 75.0859 38.4398 79.4453 38.4398 85.2109C38.4398 90.6953 41.7656 95.0547 47.4117 95.0547C52.9804 95.0547 56.8476 91.1875 56.8476 84.8594C56.7703 79.5156 53.5992 75.0859 47.7211 75.0859ZM47.6437 91.5391C44.782 91.5391 43.0031 88.8672 43.0031 85.0703C43.0031 81.3438 44.7047 78.5313 47.6437 78.5313C50.6601 78.5313 52.2843 81.4844 52.2843 85C52.207 88.7266 50.5054 91.5391 47.6437 91.5391Z" fill="black"/>
<path d="M73.4765 75.3672C72.3937 75.3672 71.4656 76.2109 71.4656 77.1953V81.0625C71.4656 83.7344 71.543 86.4766 71.8523 89.1484H71.775C70.8469 86.8984 69.8414 84.6484 68.6812 82.5391L65.5101 76.8437C65.0461 76 64.0406 75.4375 63.0351 75.4375H62.4937C60.9469 75.4375 59.7094 76.5625 59.7094 77.9687V92.9453C59.7094 93.9297 60.6375 94.7734 61.7203 94.7734C62.8031 94.7734 63.7312 93.9297 63.7312 92.9453V88.9375C63.7312 85.7734 63.6539 83.0312 63.5765 80.5H63.6539C64.582 82.75 65.8195 85.2812 66.9797 87.3203L70.3055 93.3672C70.7695 94.2109 71.775 94.7734 72.7804 94.7734C74.3273 94.7734 75.5648 93.6484 75.5648 92.2422V77.2656C75.4875 76.2109 74.5594 75.3672 73.4765 75.3672Z" fill="black"/>
<path d="M89.4867 91.1172H85.0008C84.2273 91.1172 83.6086 90.5547 83.6086 89.8516V87.8125C83.6086 87.1094 84.2273 86.5469 85.0008 86.5469H88.6359C89.7188 86.5469 90.5695 85.7734 90.5695 84.7891C90.5695 83.8047 89.7188 83.0313 88.6359 83.0313H85.0008C84.2273 83.0313 83.6086 82.4688 83.6086 81.7656V80.3594C83.6086 79.6563 84.2273 79.0938 85.0008 79.0938H89.1C90.1828 79.0938 91.0336 78.3203 91.0336 77.3359C91.0336 76.3516 90.1828 75.5781 89.1 75.5781H81.907C80.4375 75.5781 79.2773 76.6328 79.2773 77.9688V92.4531C79.2773 93.7891 80.4375 94.8438 81.907 94.8438H89.4867C90.5695 94.8438 91.4203 94.0703 91.4203 93.0859C91.4203 91.8906 90.5695 91.1172 89.4867 91.1172Z" fill="black"/>
<path d="M106.038 75.3672C105.187 75.3672 104.414 75.8594 104.105 76.5625L102.712 80.0078L102.094 81.625C101.939 82.0469 101.398 82.2578 100.934 82.1172C100.702 82.0469 100.47 81.8359 100.392 81.625C100.16 81.1328 100.005 80.5703 99.6961 80.0078L98.2266 76.5625C97.9172 75.8594 97.1437 75.3672 96.293 75.3672H96.1383C94.9781 75.3672 94.05 76.2109 94.05 77.2656C94.05 77.5469 94.1273 77.8281 94.282 78.1094L98.768 86.5469C98.8453 86.6875 98.9226 86.8984 98.9226 87.1094V92.8047C98.9226 93.8594 99.8508 94.7031 101.011 94.7031H101.166C102.326 94.7031 103.254 93.8594 103.254 92.8047V86.9688C103.254 86.7578 103.331 86.5469 103.409 86.4062L108.049 78.1797C108.591 77.2656 108.204 76.0703 107.121 75.6484C106.657 75.4375 106.348 75.3672 106.038 75.3672Z" fill="black"/>
<path d="M127.617 84.2969C129.551 83.5937 130.788 81.9766 130.788 80.0781C130.866 78.5312 129.937 77.0547 128.468 76.2812C127.076 75.4375 125.452 75.1562 122.822 75.1562C121.816 75.1562 120.811 75.2266 119.883 75.2266C118.413 75.2969 117.253 76.4219 117.253 77.7578V92.1719C117.253 93.5078 118.413 94.6328 119.96 94.7031C120.579 94.7031 121.198 94.7734 121.971 94.7734C125.761 94.7734 128.081 94.1406 129.473 93.0156C130.788 91.9609 131.484 90.4844 131.484 88.9375C131.484 86.8281 129.937 84.8594 127.617 84.2969ZM121.507 79.7266C121.507 79.0234 122.126 78.4609 122.899 78.4609C123.054 78.4609 123.209 78.4609 123.363 78.4609C125.297 78.4609 126.457 79.2344 126.457 80.7109C126.457 82.1172 125.22 83.1016 122.977 83.1016C122.203 83.1016 121.584 82.5391 121.584 81.8359L121.507 79.7266ZM123.209 91.6797H122.977C122.203 91.6797 121.584 91.1172 121.584 90.4141V87.4609C121.584 86.7578 122.203 86.1953 122.977 86.1953H123.054C125.22 86.1953 126.921 86.9688 126.921 88.9375C126.844 90.9063 125.142 91.6797 123.209 91.6797Z" fill="black"/>
<path d="M145.174 77.8281C144.71 76.3516 143.241 75.3672 141.616 75.3672C139.915 75.3672 138.445 76.4219 137.981 77.8281L133.65 92.1719C133.341 93.2266 134.037 94.2812 135.12 94.5625C135.274 94.6328 135.506 94.6328 135.661 94.6328C136.666 94.6328 137.517 94 137.749 93.1562L138.445 90.625C138.6 90.0625 139.141 89.6406 139.837 89.6406H143.086C143.705 89.6406 144.323 90.0625 144.478 90.625L145.252 93.2266C145.484 94.0703 146.334 94.6328 147.34 94.6328H147.495C148.655 94.6328 149.66 93.7891 149.66 92.6641C149.66 92.4531 149.66 92.3125 149.583 92.1719L145.174 77.8281ZM142.931 86.4766H139.992C139.683 86.4766 139.451 86.2656 139.451 85.9844C139.451 85.9141 139.451 85.9141 139.451 85.8437L140.456 82.3281C140.611 81.6953 140.766 80.9922 140.998 80.2187C141.075 80.0078 141.23 79.8672 141.462 79.9375C141.616 79.9375 141.771 80.0781 141.771 80.2187L142.312 82.3281L143.318 85.8437C143.395 86.0547 143.241 86.3359 142.931 86.4062C143.009 86.4766 142.931 86.4766 142.931 86.4766Z" fill="black"/>
<path d="M164.665 75.3672C163.737 75.1563 162.731 75.0859 161.726 75.0859C155.925 75.0859 151.284 78.7422 151.284 85.3516C151.284 90.8359 154.687 94.9844 161.339 94.9844C162.422 94.9844 163.427 94.914 164.51 94.7031C165.516 94.4922 166.134 93.5781 165.98 92.664C165.825 91.6797 164.82 91.0469 163.737 91.1875C163.195 91.2578 162.577 91.3281 161.958 91.3281C158.091 91.3281 155.848 88.8672 155.848 85C155.848 80.7109 158.555 78.6016 161.958 78.6016C162.577 78.6016 163.195 78.6719 163.814 78.7422C164.82 78.9531 165.825 78.3203 166.057 77.4062V77.3359C166.289 76.4922 165.67 75.5781 164.665 75.3672Z" fill="black"/>
<path d="M182.995 91.8203L178.509 84.2969C178.277 83.875 178.277 83.3125 178.587 82.961L181.99 78.5313C182.763 77.7578 182.609 76.5625 181.758 75.8594C181.526 75.6485 181.216 75.5781 180.907 75.5078C179.979 75.2266 178.973 75.5781 178.432 76.3516L174.72 81.836C174.565 82.0469 174.333 82.1875 174.101 82.1875C173.714 82.1875 173.327 81.9063 173.327 81.4844V77.4063C173.327 76.3516 172.399 75.4375 171.162 75.4375C170.002 75.4375 168.996 76.2813 168.996 77.4063V92.875C168.996 93.9297 169.924 94.8438 171.162 94.8438C172.322 94.8438 173.327 94 173.327 92.875V88.9375C173.327 88.6563 173.405 88.375 173.637 88.1641C174.101 87.6016 175.029 87.461 175.648 87.8828C175.802 88.0235 175.957 88.1641 176.034 88.3047L179.051 93.7188C179.438 94.3516 180.134 94.7735 180.984 94.7735H181.139C182.299 94.7735 183.305 93.9297 183.305 92.8047C183.305 92.4531 183.15 92.1016 182.995 91.8203Z" fill="black"/>
<path d="M116.944 55.0471L126.534 37.6799C126.766 37.1877 127.462 37.0471 127.927 37.258C128.391 37.4689 128.623 38.0314 128.391 38.5236L118.8 55.8908C118.491 56.3127 117.872 56.5236 117.408 56.2424C116.866 56.0314 116.712 55.5393 116.944 55.0471Z" fill="black"/>
</svg>
