<svg width="351" height="72" viewBox="0 0 351 72" fill="none" xmlns="http://www.w3.org/2000/svg">
<path d="M11.285 49.052C9.26131 49.052 7.29715 48.802 5.39251 48.302C3.48787 47.802 1.94035 47.1354 0.749952 46.3021L3.07123 41.0882C4.19021 41.8262 5.48774 42.4214 6.96384 42.8738C8.43994 43.3261 9.89222 43.5523 11.3207 43.5523C14.0348 43.5523 15.3919 42.8738 15.3919 41.5167C15.3919 40.8025 14.999 40.2787 14.2134 39.9454C13.4515 39.5883 12.2135 39.2193 10.4993 38.8383C8.6185 38.4336 7.04717 38.0051 5.78534 37.5527C4.52352 37.0765 3.44026 36.3266 2.53555 35.3028C1.63085 34.2791 1.1785 32.8982 1.1785 31.1603C1.1785 29.6365 1.59514 28.2676 2.42842 27.0534C3.2617 25.8154 4.49971 24.8392 6.14246 24.125C7.80902 23.4108 9.84461 23.0536 12.2492 23.0536C13.892 23.0536 15.5109 23.2441 17.1061 23.625C18.7012 23.9821 20.1059 24.5178 21.3201 25.2321L19.1416 30.4817C16.7608 29.1961 14.4515 28.5533 12.2135 28.5533C10.8088 28.5533 9.78509 28.7676 9.14227 29.1961C8.49946 29.6008 8.17805 30.1365 8.17805 30.8031C8.17805 31.4698 8.55898 31.9697 9.32083 32.303C10.0827 32.6364 11.3088 32.9816 12.9992 33.3387C14.9038 33.7434 16.4751 34.1839 17.7132 34.66C18.975 35.1124 20.0582 35.8504 20.9629 36.8742C21.8915 37.8741 22.3557 39.2431 22.3557 40.9811C22.3557 42.481 21.9391 43.838 21.1058 45.0522C20.2725 46.2664 19.0226 47.2426 17.356 47.9806C15.6895 48.6948 13.6658 49.052 11.285 49.052ZM45.6564 29.1961V48.552H39.1925V46.4807C38.4783 47.2664 37.6212 47.8616 36.6213 48.2663C35.6213 48.671 34.5619 48.8734 33.4429 48.8734C30.9431 48.8734 28.9432 48.1354 27.4433 46.6593C25.9672 45.1832 25.2291 42.969 25.2291 40.0168V29.1961H32.0144V38.9098C32.0144 40.362 32.2882 41.4215 32.8358 42.0881C33.3834 42.7548 34.1809 43.0881 35.2285 43.0881C36.2999 43.0881 37.1688 42.719 37.8355 41.981C38.5259 41.2191 38.8711 40.0644 38.8711 38.5169V29.1961H45.6564ZM62.2047 28.8747C63.9665 28.8747 65.5617 29.2913 66.9901 30.1246C68.4424 30.9341 69.5852 32.1007 70.4185 33.6244C71.2756 35.1243 71.7041 36.8742 71.7041 38.874C71.7041 40.8739 71.2756 42.6357 70.4185 44.1594C69.5852 45.6593 68.4424 46.8259 66.9901 47.6592C65.5617 48.4687 63.9665 48.8734 62.2047 48.8734C59.943 48.8734 58.1455 48.1949 56.8122 46.8378V55.4801H50.0269V29.1961H56.4908V31.1245C57.7526 29.6246 59.6573 28.8747 62.2047 28.8747ZM60.7762 43.4809C61.9666 43.4809 62.9428 43.0762 63.7046 42.2667C64.4665 41.4334 64.8474 40.3025 64.8474 38.874C64.8474 37.4456 64.4665 36.3266 63.7046 35.5171C62.9428 34.6838 61.9666 34.2672 60.7762 34.2672C59.5858 34.2672 58.6097 34.6838 57.8479 35.5171C57.086 36.3266 56.7051 37.4456 56.7051 38.874C56.7051 40.3025 57.086 41.4334 57.8479 42.2667C58.6097 43.0762 59.5858 43.4809 60.7762 43.4809ZM87.0357 28.8747C88.7975 28.8747 90.3927 29.2913 91.8211 30.1246C93.2734 30.9341 94.4162 32.1007 95.2495 33.6244C96.1066 35.1243 96.5351 36.8742 96.5351 38.874C96.5351 40.8739 96.1066 42.6357 95.2495 44.1594C94.4162 45.6593 93.2734 46.8259 91.8211 47.6592C90.3927 48.4687 88.7975 48.8734 87.0357 48.8734C84.774 48.8734 82.9765 48.1949 81.6432 46.8378V55.4801H74.8579V29.1961H81.3218V31.1245C82.5836 29.6246 84.4883 28.8747 87.0357 28.8747ZM85.6072 43.4809C86.7977 43.4809 87.7738 43.0762 88.5356 42.2667C89.2975 41.4334 89.6784 40.3025 89.6784 38.874C89.6784 37.4456 89.2975 36.3266 88.5356 35.5171C87.7738 34.6838 86.7977 34.2672 85.6072 34.2672C84.4168 34.2672 83.4407 34.6838 82.6789 35.5171C81.917 36.3266 81.5361 37.4456 81.5361 38.874C81.5361 40.3025 81.917 41.4334 82.6789 42.2667C83.4407 43.0762 84.4168 43.4809 85.6072 43.4809ZM109.403 48.8734C107.331 48.8734 105.462 48.4449 103.796 47.5878C102.129 46.7307 100.82 45.5403 99.8675 44.0166C98.939 42.4929 98.4747 40.7668 98.4747 38.8383C98.4747 36.9337 98.939 35.2195 99.8675 33.6958C100.82 32.1721 102.117 30.9936 103.76 30.1603C105.427 29.3032 107.307 28.8747 109.403 28.8747C111.498 28.8747 113.379 29.3032 115.045 30.1603C116.712 30.9936 118.009 32.1721 118.938 33.6958C119.866 35.1957 120.33 36.9099 120.33 38.8383C120.33 40.7668 119.866 42.4929 118.938 44.0166C118.009 45.5403 116.712 46.7307 115.045 47.5878C113.379 48.4449 111.498 48.8734 109.403 48.8734ZM109.403 43.4809C110.593 43.4809 111.569 43.0762 112.331 42.2667C113.093 41.4334 113.474 40.2906 113.474 38.8383C113.474 37.4099 113.093 36.2909 112.331 35.4814C111.569 34.6719 110.593 34.2672 109.403 34.2672C108.212 34.2672 107.236 34.6719 106.474 35.4814C105.712 36.2909 105.331 37.4099 105.331 38.8383C105.331 40.2906 105.712 41.4334 106.474 42.2667C107.236 43.0762 108.212 43.4809 109.403 43.4809ZM129.938 31.5174C130.628 30.6365 131.521 29.9818 132.616 29.5532C133.735 29.1009 135.009 28.8747 136.437 28.8747V34.9814C135.818 34.91 135.306 34.8743 134.902 34.8743C133.449 34.8743 132.306 35.2671 131.473 36.0528C130.664 36.8385 130.259 38.0408 130.259 39.6597V48.552H123.474V29.1961H129.938V31.5174Z" fill="url(#paint0_linear)"/>
<path d="M152.663 47.7663C152.092 48.1235 151.39 48.3972 150.556 48.5877C149.747 48.7782 148.878 48.8734 147.949 48.8734C145.426 48.8734 143.485 48.2544 142.128 47.0164C140.771 45.7784 140.093 43.9332 140.093 41.481V34.9814H137.271V29.9103H140.093V24.8749H146.878V29.9103H151.306V34.9814H146.878V41.4096C146.878 42.1 147.056 42.6476 147.414 43.0524C147.794 43.4333 148.294 43.6237 148.913 43.6237C149.699 43.6237 150.39 43.4214 150.985 43.0166L152.663 47.7663Z" fill="#304FFE"/>
<path d="M174.1 23.5893V27.5533H160.779V34.1601H172.743V37.9098H160.779V44.588H174.528V48.552H156.565V23.5893H174.1ZM183.36 38.2669V48.552H179.36V29.5532H183.36V33.0173C184.003 31.8507 184.884 30.9341 186.003 30.2675C187.145 29.6008 188.372 29.2675 189.681 29.2675C191.824 29.2675 193.55 29.9222 194.859 31.2317C196.192 32.5411 196.859 34.4339 196.859 36.9099V48.552H192.859V38.1241C192.859 34.6243 191.407 32.8744 188.502 32.8744C187.122 32.8744 185.919 33.3387 184.896 34.2672C183.872 35.1719 183.36 36.5052 183.36 38.2669ZM220.018 29.5532V46.1236C220.018 49.4805 219.101 51.9923 217.268 53.6588C215.459 55.3492 213.125 56.1944 210.268 56.1944C207.411 56.1944 204.828 55.3016 202.519 53.516L204.412 50.4805C206.269 51.8851 208.138 52.5875 210.018 52.5875C211.923 52.5875 213.423 52.0994 214.518 51.1233C215.637 50.1471 216.197 48.5877 216.197 46.445V44.0166C215.601 45.1356 214.744 46.0284 213.625 46.695C212.53 47.3616 211.292 47.6949 209.911 47.6949C207.388 47.6949 205.316 46.814 203.697 45.0522C202.078 43.2904 201.269 41.1001 201.269 38.4812C201.269 35.8623 202.078 33.672 203.697 31.9102C205.316 30.1484 207.376 29.2675 209.876 29.2675C212.399 29.2675 214.447 30.3032 216.018 32.3745V29.5532H220.018ZM205.197 38.3384C205.197 39.8859 205.673 41.231 206.626 42.3738C207.602 43.4928 208.899 44.0523 210.518 44.0523C212.161 44.0523 213.482 43.5047 214.482 42.4095C215.506 41.3144 216.018 39.9573 216.018 38.3384C216.018 36.6956 215.506 35.3148 214.482 34.1958C213.459 33.053 212.137 32.4816 210.518 32.4816C208.899 32.4816 207.602 33.0649 206.626 34.2315C205.673 35.3981 205.197 36.767 205.197 38.3384ZM229.813 48.552H225.814V29.5532H229.813V48.552ZM226.064 25.7677C225.564 25.2678 225.314 24.6726 225.314 23.9821C225.314 23.2917 225.564 22.6965 226.064 22.1965C226.564 21.6966 227.159 21.4466 227.849 21.4466C228.54 21.4466 229.135 21.6966 229.635 22.1965C230.135 22.6965 230.385 23.2917 230.385 23.9821C230.385 24.6726 230.135 25.2678 229.635 25.7677C229.135 26.2677 228.54 26.5177 227.849 26.5177C227.159 26.5177 226.564 26.2677 226.064 25.7677ZM239.613 38.2669V48.552H235.614V29.5532H239.613V33.0173C240.256 31.8507 241.137 30.9341 242.256 30.2675C243.399 29.6008 244.625 29.2675 245.934 29.2675C248.077 29.2675 249.803 29.9222 251.113 31.2317C252.446 32.5411 253.112 34.4339 253.112 36.9099V48.552H249.113V38.1241C249.113 34.6243 247.66 32.8744 244.756 32.8744C243.375 32.8744 242.173 33.3387 241.149 34.2672C240.125 35.1719 239.613 36.5052 239.613 38.2669ZM276.378 40.8025H261.486C261.582 42.1834 262.212 43.3023 263.379 44.1594C264.546 44.9927 265.879 45.4093 267.379 45.4093C269.76 45.4093 271.569 44.6594 272.807 43.1595L275.093 45.6593C273.045 47.7782 270.379 48.8377 267.093 48.8377C264.427 48.8377 262.153 47.9568 260.272 46.195C258.415 44.4094 257.487 42.0286 257.487 39.0526C257.487 36.0528 258.439 33.672 260.344 31.9102C262.248 30.1484 264.486 29.2675 267.057 29.2675C269.652 29.2675 271.855 30.0532 273.664 31.6245C275.474 33.172 276.378 35.3148 276.378 38.0527V40.8025ZM261.486 37.6598H272.379C272.379 36.0647 271.879 34.8386 270.879 33.9815C269.879 33.1244 268.641 32.6959 267.165 32.6959C265.712 32.6959 264.403 33.1482 263.236 34.0529C262.07 34.9338 261.486 36.1361 261.486 37.6598Z" fill="black"/>
<g clip-path="url(#clip0)">
<path d="M343.295 33.2937C342.73 32.2957 341.776 31.5769 340.661 31.3089L340.708 25.1916C340.812 11.5727 329.27 0.382462 314.978 0.272544C300.687 0.162626 288.974 11.174 288.869 24.7929L288.822 30.9102C287.698 31.1766 286.736 31.9006 286.169 32.907C285.728 33.7414 285.508 34.6746 285.529 35.6182L285.425 49.0789C285.392 50.0175 285.598 50.9493 286.024 51.7863C286.896 53.3092 288.569 54.1907 290.318 54.0475L292.362 54.0633C292.435 55.4581 293.583 56.5538 294.979 56.5621L297.3 56.5799C298.756 56.5911 299.946 55.4198 299.957 53.9635L300.136 30.694C300.147 29.2377 298.976 28.0481 297.519 28.0369L295.133 28.0186C293.677 28.0074 292.487 29.1787 292.476 30.6351L292.475 30.7405L291.407 30.7323L291.453 24.8128C291.546 12.6309 302.064 2.81014 314.905 2.90891C327.746 3.00767 338.112 12.989 338.018 25.1709L337.973 31.0905L336.905 31.0822L336.906 30.9768C336.917 29.5205 335.745 28.3309 334.289 28.3197L332.074 28.3027C330.618 28.2915 329.428 29.4629 329.417 30.9192L329.237 54.281C329.259 55.6011 330.253 56.7017 331.564 56.8567C331.3 58.5316 330.545 60.0904 329.394 61.3359C327.307 63.614 323.921 64.9064 319.37 65.2142L319.375 64.6341C319.315 63.1145 318.041 61.9273 316.521 61.9753L310.865 61.9318C309.346 61.8604 308.054 63.0279 307.971 64.5464L307.94 68.5016C308 70.0212 309.274 71.2084 310.794 71.1605L316.503 71.2044C318.022 71.2757 319.314 70.1083 319.397 68.5897L319.403 67.8514C324.745 67.5365 328.792 65.9591 331.384 63.1443C333 61.4124 334.027 59.2147 334.32 56.8647C335.651 56.7976 336.723 55.7478 336.818 54.4184L338.861 54.4341C340.607 54.6041 342.294 53.7485 343.189 52.2392C343.628 51.4088 343.849 50.4803 343.83 49.5412L343.933 36.0674C343.966 35.103 343.746 34.1469 343.295 33.2937ZM295.018 51.5522L295.158 33.3454C295.173 33.1919 295.174 33.0376 295.162 32.8839L295.178 30.7086L297.394 30.6597L297.214 53.9555L295 53.9385L295.018 51.5522ZM292.522 33.2592L292.382 51.4265L290.338 51.4108C288.809 51.399 288.458 50.7503 288.341 50.5252C288.131 50.0757 288.036 49.5813 288.062 49.086L288.166 35.6384C288.14 35.1394 288.239 34.6417 288.454 34.1903C288.574 33.9803 288.935 33.3239 290.464 33.3356L292.522 33.2592ZM316.829 66.5395L316.815 68.3457C316.755 68.4525 316.645 68.5212 316.523 68.528L310.815 68.4841C310.745 68.4887 310.674 68.4882 310.604 68.4825L310.633 64.6328C310.708 64.5727 310.803 64.545 310.898 64.5558L316.606 64.5997C316.751 64.6008 316.844 64.6015 316.844 64.6015L316.829 66.5395ZM334.301 33.6464L334.142 54.2396L333.101 54.2316L332.943 54.2303L332.837 54.2295L331.914 54.2224L332.093 30.9398L334.361 30.9572L334.301 33.6464ZM340.839 50.9554C340.719 51.1654 340.358 51.8219 338.828 51.8101L336.798 51.7945L336.937 33.7194L338.968 33.735C340.497 33.7468 340.848 34.3955 340.965 34.6206C341.175 35.0701 341.27 35.5645 341.244 36.0599L341.14 49.5206C341.159 50.0163 341.056 50.5091 340.839 50.9554Z" fill="#304FFE"/>
</g>
<defs>
<linearGradient id="paint0_linear" x1="139.5" y1="13.552" x2="139.5" y2="57.448" gradientUnits="userSpaceOnUse">
<stop stop-color="#304FFE"/>
<stop offset="1" stop-color="#4834D4"/>
</linearGradient>
<clipPath id="clip0">
<rect width="70.9201" height="70.9201" fill="white" transform="translate(279.545) rotate(0.440667)"/>
</clipPath>
</defs>
</svg>
