<svg width="1056" height="459" viewBox="0 0 1056 459" fill="none" xmlns="http://www.w3.org/2000/svg">
<path d="M527.644 458.231C818.974 458.231 1055.14 442.596 1055.14 423.309C1055.14 404.023 818.974 388.388 527.644 388.388C236.313 388.388 0.143555 404.023 0.143555 423.309C0.143555 442.596 236.313 458.231 527.644 458.231Z" fill="#F2F2F2"/>
<path d="M308.311 307.517H272.777V202.877C272.777 197.32 270.569 191.989 266.639 188.059C262.709 184.129 257.379 181.922 251.821 181.922H243.495C240.743 181.922 238.018 182.464 235.475 183.517C232.933 184.57 230.623 186.113 228.677 188.059C226.731 190.005 225.187 192.315 224.134 194.858C223.081 197.4 222.539 200.125 222.539 202.877V307.517H122.309C120.247 307.517 118.22 306.984 116.425 305.97C114.629 304.955 113.127 303.494 112.062 301.728C110.998 299.962 110.408 297.951 110.35 295.89C110.292 293.829 110.768 291.788 111.731 289.965L217.813 89.1844C219.136 86.6812 219.938 83.9359 220.17 81.1143C220.402 78.2927 220.06 75.4534 219.165 72.7675C218.27 70.0817 216.839 67.6051 214.961 65.4873C213.082 63.3696 210.793 61.6544 208.233 60.4455L201.971 57.4883C197.108 55.1921 191.549 54.853 186.443 56.5413C181.338 58.2296 177.077 61.8159 174.542 66.5584L45.16 308.591C42.9568 312.712 41.8042 317.314 41.8042 321.987V321.987C41.8042 325.719 42.5392 329.414 43.9672 332.861C45.3953 336.309 47.4884 339.441 50.127 342.08C52.7657 344.719 55.8982 346.812 59.3458 348.24C62.7933 349.668 66.4884 350.403 70.22 350.403H222.539V416.57C222.539 419.869 223.189 423.135 224.451 426.183C225.713 429.23 227.563 431.999 229.896 434.332C232.228 436.664 234.998 438.515 238.045 439.777C241.093 441.039 244.359 441.689 247.658 441.689H247.658C250.957 441.689 254.223 441.039 257.27 439.777C260.318 438.515 263.087 436.664 265.42 434.332C267.752 431.999 269.602 429.23 270.865 426.183C272.127 423.135 272.777 419.869 272.777 416.57V350.403H308.311C313.998 350.403 319.452 348.144 323.474 344.122C327.495 340.101 329.754 334.647 329.754 328.96V328.96C329.754 323.273 327.495 317.819 323.474 313.797C319.452 309.776 313.998 307.517 308.311 307.517V307.517Z" fill="#6C63FF"/>
<path d="M966.308 307.517H930.773V202.877C930.773 197.32 928.566 191.989 924.636 188.059C920.706 184.129 915.375 181.922 909.818 181.922H901.491C898.739 181.922 896.014 182.464 893.472 183.517C890.929 184.57 888.619 186.113 886.673 188.059C884.727 190.005 883.184 192.315 882.131 194.858C881.077 197.4 880.535 200.125 880.535 202.877V307.517H780.305C778.243 307.517 776.216 306.984 774.421 305.97C772.626 304.955 771.123 303.494 770.059 301.728C768.995 299.962 768.405 297.951 768.347 295.89C768.289 293.829 768.764 291.788 769.728 289.965L875.81 89.1844C877.133 86.6812 877.934 83.9359 878.167 81.1144C878.399 78.2928 878.057 75.4534 877.162 72.7675C876.266 70.0817 874.836 67.6051 872.957 65.4873C871.078 63.3695 868.79 61.6544 866.23 60.4455L859.967 57.4883C855.105 55.1921 849.546 54.853 844.44 56.5413C839.334 58.2296 835.073 61.8159 832.538 66.5584L703.157 308.591C700.953 312.712 699.801 317.314 699.801 321.987V321.987C699.801 329.523 702.795 336.751 708.124 342.08C713.453 347.409 720.68 350.403 728.217 350.403H880.535V416.57C880.535 423.232 883.182 429.621 887.893 434.332C892.603 439.043 898.992 441.689 905.654 441.689V441.689C912.316 441.689 918.705 439.043 923.416 434.332C928.127 429.621 930.773 423.232 930.773 416.57V350.403H966.308C971.995 350.403 977.449 348.144 981.47 344.122C985.492 340.101 987.751 334.647 987.751 328.96V328.96C987.751 323.273 985.492 317.819 981.47 313.797C977.449 309.776 971.995 307.517 966.308 307.517Z" fill="#6C63FF"/>
<path d="M318.114 295.264H282.58V190.624C282.58 187.872 282.038 185.147 280.984 182.605C279.931 180.062 278.388 177.752 276.442 175.806C274.496 173.86 272.186 172.317 269.643 171.263C267.101 170.21 264.376 169.668 261.624 169.668H253.297C247.74 169.668 242.409 171.876 238.479 175.806C234.549 179.736 232.342 185.066 232.342 190.624V295.264H132.111C130.05 295.264 128.023 294.731 126.227 293.716C124.432 292.702 122.929 291.241 121.865 289.475C120.801 287.709 120.211 285.698 120.153 283.637C120.095 281.576 120.571 279.535 121.534 277.712L227.616 76.9312C228.939 74.428 229.74 71.6827 229.973 68.8611C230.205 66.0395 229.863 63.2001 228.968 60.5143C228.073 57.8285 226.642 55.3519 224.763 53.2341C222.884 51.1163 220.596 49.4012 218.036 48.1923L211.774 45.2351C206.911 42.9389 201.352 42.5998 196.246 44.2881C191.141 45.9763 186.879 49.5627 184.344 54.3051L54.9628 296.338C52.7596 300.459 51.6069 305.06 51.6069 309.734V309.734C51.6069 317.27 54.6007 324.498 59.9297 329.827C65.2587 335.156 72.4864 338.15 80.0228 338.15H232.342V404.317C232.342 407.616 232.991 410.882 234.254 413.93C235.516 416.977 237.366 419.746 239.699 422.079C242.031 424.411 244.8 426.262 247.848 427.524C250.895 428.786 254.162 429.436 257.461 429.436H257.461C264.123 429.436 270.512 426.789 275.222 422.079C279.933 417.368 282.58 410.979 282.58 404.317V338.15H318.114C320.93 338.15 323.718 337.595 326.32 336.517C328.921 335.44 331.285 333.86 333.276 331.869C335.268 329.878 336.847 327.514 337.925 324.913C339.002 322.311 339.557 319.523 339.557 316.707V316.707C339.557 313.891 339.002 311.102 337.925 308.501C336.847 305.899 335.268 303.535 333.276 301.544C331.285 299.553 328.921 297.973 326.32 296.896C323.718 295.818 320.93 295.264 318.114 295.264V295.264Z" stroke="#3F3D56" stroke-miterlimit="10"/>
<path d="M984.688 295.264H949.153V190.624C949.153 185.066 946.946 179.736 943.016 175.806C939.086 171.876 933.755 169.668 928.198 169.668H919.871C917.119 169.668 914.394 170.21 911.852 171.263C909.309 172.317 906.999 173.86 905.053 175.806C903.107 177.752 901.564 180.062 900.51 182.605C899.457 185.147 898.915 187.872 898.915 190.624V295.264H798.685C796.623 295.264 794.596 294.731 792.801 293.716C791.006 292.702 789.503 291.241 788.439 289.475C787.374 287.709 786.785 285.698 786.727 283.637C786.669 281.576 787.144 279.535 788.108 277.712L894.19 76.9312C895.513 74.428 896.314 71.6827 896.547 68.8611C896.779 66.0395 896.437 63.2001 895.542 60.5143C894.646 57.8285 893.216 55.3519 891.337 53.2341C889.458 51.1163 887.17 49.4012 884.61 48.1923L878.347 45.2351C873.485 42.9389 867.925 42.5998 862.82 44.2881C857.714 45.9763 853.453 49.5627 850.918 54.3051L721.536 296.338C719.333 300.459 718.181 305.06 718.181 309.734C718.181 317.27 721.174 324.498 726.503 329.827C731.832 335.156 739.06 338.15 746.596 338.15H898.915V404.317C898.915 410.979 901.562 417.368 906.272 422.079C910.983 426.789 917.372 429.436 924.034 429.436V429.436C930.696 429.436 937.085 426.789 941.796 422.079C946.507 417.368 949.153 410.979 949.153 404.317V338.15H984.688C987.504 338.15 990.292 337.595 992.893 336.517C995.495 335.44 997.859 333.86 999.85 331.869C1001.84 329.878 1003.42 327.514 1004.5 324.913C1005.58 322.311 1006.13 319.523 1006.13 316.707V316.707C1006.13 311.02 1003.87 305.565 999.85 301.544C995.829 297.523 990.375 295.264 984.688 295.264V295.264Z" stroke="#3F3D56" stroke-miterlimit="10"/>
<path d="M598.085 7.75592C598.085 7.75592 601.338 17.1275 604.314 14.6323L601.942 2.38245L598.085 7.75592Z" fill="#FBBEBE"/>
<path d="M1018.94 417.793C1017.15 408.683 1024.9 400.606 1032.56 395.357C1040.22 390.107 1049.17 384.949 1051.78 376.04C1055.53 363.236 1044.35 351.51 1035.64 341.398C1029.19 333.894 1023.64 325.651 1019.12 316.841C1017.31 313.308 1015.65 309.615 1015.17 305.674C1014.48 299.999 1016.31 294.351 1018.14 288.938C1024.26 270.903 1030.8 253.02 1037.77 235.288" stroke="#3F3D56" stroke-miterlimit="10"/>
<path d="M12.4837 425.879C11.3083 419.893 16.4017 414.587 21.4329 411.138C26.464 407.688 32.3427 404.3 34.0593 398.446C36.5264 390.034 29.1776 382.33 23.4579 375.686C19.2144 370.756 15.5702 365.34 12.6016 359.551C11.311 357.278 10.4319 354.794 10.0049 352.215C9.55392 348.486 10.7519 344.775 11.9588 341.219C15.9794 329.37 20.2782 317.62 24.8551 305.969" stroke="#3F3D56" stroke-miterlimit="10"/>
<path d="M467.946 215.115C477.335 215.115 484.946 205.266 484.946 193.115C484.946 180.965 477.335 171.115 467.946 171.115C458.557 171.115 450.946 180.965 450.946 193.115C450.946 205.266 458.557 215.115 467.946 215.115Z" fill="#2F2E41"/>
<path d="M560.446 215.615C569.835 215.615 577.446 205.766 577.446 193.615C577.446 181.465 569.835 171.615 560.446 171.615C551.057 171.615 543.446 181.465 543.446 193.615C543.446 205.766 551.057 215.615 560.446 215.615Z" fill="#2F2E41"/>
<path d="M547.446 258.615C547.446 268.555 533.566 276.615 516.446 276.615C499.326 276.615 485.446 268.555 485.446 258.615C485.446 250.005 495.856 242.805 509.766 241.045C511.98 240.753 514.212 240.61 516.446 240.615C520.189 240.603 523.921 241.006 527.576 241.816C539.196 244.406 547.446 250.955 547.446 258.615Z" fill="#2F2E41"/>
<path d="M471.946 210.115C481.335 210.115 488.946 200.266 488.946 188.115C488.946 175.965 481.335 166.115 471.946 166.115C462.557 166.115 454.946 175.965 454.946 188.115C454.946 200.266 462.557 210.115 471.946 210.115Z" stroke="#3F3D56" stroke-miterlimit="10"/>
<path d="M564.446 210.615C573.835 210.615 581.446 200.766 581.446 188.615C581.446 176.465 573.835 166.615 564.446 166.615C555.057 166.615 547.446 176.465 547.446 188.615C547.446 200.766 555.057 210.615 564.446 210.615Z" stroke="#3F3D56" stroke-miterlimit="10"/>
<path d="M520.446 271.615C537.567 271.615 551.446 263.557 551.446 253.615C551.446 243.674 537.567 235.615 520.446 235.615C503.325 235.615 489.446 243.674 489.446 253.615C489.446 263.557 503.325 271.615 520.446 271.615Z" stroke="#3F3D56" stroke-miterlimit="10"/>
<path d="M527.946 243.316C527.954 244.573 527.482 245.786 526.626 246.707C526.222 247.149 525.73 247.502 525.183 247.744C524.636 247.986 524.044 248.113 523.446 248.115H513.446C512.214 248.073 511.049 247.544 510.205 246.644C509.362 245.745 508.909 244.548 508.946 243.316C508.941 242.341 509.226 241.386 509.766 240.574C511.979 240.263 514.211 240.109 516.446 240.115C520.193 240.103 523.929 240.533 527.576 241.396C527.823 242.005 527.948 242.658 527.946 243.316V243.316Z" fill="white"/>
<path d="M471.946 187.115C474.707 187.115 476.946 184.877 476.946 182.115C476.946 179.354 474.707 177.115 471.946 177.115C469.184 177.115 466.946 179.354 466.946 182.115C466.946 184.877 469.184 187.115 471.946 187.115Z" fill="white"/>
<path d="M564.946 187.115C567.707 187.115 569.946 184.877 569.946 182.115C569.946 179.354 567.707 177.115 564.946 177.115C562.184 177.115 559.946 179.354 559.946 182.115C559.946 184.877 562.184 187.115 564.946 187.115Z" fill="white"/>
<path opacity="0.3" d="M569.946 234.115C572.707 234.115 574.946 231.877 574.946 229.115C574.946 226.354 572.707 224.115 569.946 224.115C567.184 224.115 564.946 226.354 564.946 229.115C564.946 231.877 567.184 234.115 569.946 234.115Z" fill="#6C63FF"/>
<path opacity="0.3" d="M447.946 234.115C450.707 234.115 452.946 231.877 452.946 229.115C452.946 226.354 450.707 224.115 447.946 224.115C445.184 224.115 442.946 226.354 442.946 229.115C442.946 231.877 445.184 234.115 447.946 234.115Z" fill="#6C63FF"/>
<path d="M668.938 177.531C665.919 172.202 660.824 168.363 654.868 166.932L655.119 134.266C655.678 61.5411 594.04 1.78535 517.725 1.19839C441.409 0.611429 378.859 59.412 378.3 132.137L378.049 164.803C372.047 166.226 366.912 170.092 363.885 175.466C361.53 179.922 360.352 184.905 360.465 189.944L359.912 261.824C359.735 266.836 360.835 271.812 363.11 276.282C367.764 284.414 376.701 289.121 386.04 288.356L396.952 288.44C397.342 295.889 403.472 301.74 410.931 301.784L423.321 301.879C431.098 301.939 437.45 295.684 437.51 287.907L438.466 163.649C438.525 155.872 432.27 149.52 424.494 149.46L411.751 149.362C403.974 149.302 397.622 155.557 397.562 163.334L397.558 163.897L391.855 163.853L392.099 132.243C392.599 67.1919 448.764 14.7492 517.335 15.2765C585.906 15.8039 641.257 69.1044 640.757 134.156L640.514 165.766L634.812 165.722L634.816 165.159C634.876 157.382 628.621 151.03 620.844 150.97L609.016 150.879C601.24 150.819 594.888 157.074 594.828 164.851L593.868 289.603C593.983 296.652 599.293 302.53 606.295 303.357C604.883 312.301 600.85 320.625 594.705 327.276C583.558 339.441 565.481 346.343 541.178 347.986L541.202 344.889C540.884 336.774 534.08 330.434 525.963 330.69L495.76 330.458C487.648 330.077 480.747 336.311 480.304 344.42L480.142 365.541C480.46 373.656 487.264 379.995 495.381 379.739L525.865 379.974C533.977 380.355 540.878 374.121 541.321 366.011L541.351 362.069C569.879 360.387 591.488 351.964 605.332 336.933C613.959 327.685 619.445 315.949 621.009 303.4C628.118 303.042 633.841 297.436 634.346 290.337L645.258 290.421C654.583 291.328 663.593 286.76 668.371 278.7C670.714 274.266 671.891 269.307 671.791 264.293L672.344 192.342C672.519 187.193 671.344 182.087 668.938 177.531ZM411.136 275.032L411.884 177.807C411.963 176.987 411.969 176.164 411.903 175.343L411.992 163.727L423.823 163.466L422.866 287.865L411.038 287.774L411.136 275.032ZM397.807 177.347L397.06 274.36L386.148 274.276C377.982 274.213 376.107 270.749 375.483 269.547C374.363 267.147 373.85 264.507 373.993 261.862L374.545 190.052C374.41 187.387 374.938 184.73 376.083 182.319C376.726 181.198 378.654 177.692 386.82 177.755L397.807 177.347ZM527.606 355.063L527.532 364.708C527.214 365.279 526.627 365.646 525.975 365.682L495.491 365.448C495.116 365.472 494.739 365.469 494.365 365.439L494.523 344.882C494.919 344.561 495.428 344.413 495.934 344.47L526.418 344.705C527.193 344.711 527.685 344.714 527.685 344.714L527.606 355.063ZM620.907 179.415L620.061 289.382L614.499 289.339L613.654 289.333L613.091 289.328L608.163 289.29L609.119 164.961L621.228 165.054L620.907 179.415ZM655.821 271.844C655.179 272.966 653.251 276.471 645.084 276.408L634.242 276.325L634.985 179.804L645.827 179.888C653.993 179.951 655.868 183.415 656.492 184.617C657.612 187.017 658.124 189.657 657.982 192.302L657.429 264.182C657.53 266.83 656.978 269.461 655.821 271.844Z" fill="#304FFE"/>
</svg>
