<svg width="150" height="150" viewBox="0 0 150 150" fill="none" xmlns="http://www.w3.org/2000/svg">
<path d="M149.88 74.94C149.88 89.7617 145.485 104.251 137.25 116.574C129.016 128.898 117.312 138.504 103.618 144.176C89.9248 149.848 74.8569 151.332 60.3199 148.44C45.783 145.548 32.43 138.411 21.9494 127.931C11.4689 117.45 4.33156 104.097 1.43998 89.5601C-1.45159 75.0232 0.0324774 59.9552 5.70451 46.2617C11.3765 32.5682 20.9818 20.8642 33.3056 12.6297C45.6294 4.39516 60.1183 0 74.94 0C94.8154 0 113.877 7.89546 127.931 21.9494C141.985 36.0034 149.88 55.0647 149.88 74.94ZM66.28 114.61L121.87 59.02C122.32 58.5713 122.677 58.0383 122.92 57.4514C123.164 56.8646 123.289 56.2354 123.289 55.6C123.289 54.9646 123.164 54.3355 122.92 53.7486C122.677 53.1617 122.32 52.6287 121.87 52.18L115.03 45.39C114.582 44.9404 114.05 44.5837 113.464 44.3402C112.878 44.0968 112.25 43.9715 111.615 43.9715C110.98 43.9715 110.352 44.0968 109.766 44.3402C109.18 44.5837 108.648 44.9404 108.2 45.39L62.86 90.73L41.69 69.51C40.7813 68.6062 39.5517 68.0989 38.27 68.0989C36.9883 68.0989 35.7588 68.6062 34.85 69.51L28.01 76.39C27.1062 77.2988 26.5989 78.5284 26.5989 79.81C26.5989 81.0917 27.1062 82.3212 28.01 83.23L59.44 114.65C59.8887 115.1 60.4217 115.457 61.0086 115.7C61.5955 115.944 62.2246 116.069 62.86 116.069C63.4954 116.069 64.1245 115.944 64.7114 115.7C65.2983 115.457 65.8313 115.1 66.28 114.65V114.61Z" fill="#4D8AF0"/>
</svg>
